<svg width="831" height="751" fill="none" xmlns="http://www.w3.org/2000/svg"><ellipse rx="562.5" ry="350.5" transform="matrix(-1 0 0 1 268.5 400.5)" fill="url(#paint0_linear)"/><g clip-path="url(#clip0)"><path opacity=".56" d="M318.5 665C104.49 665-69 641.047-69 611.5S104.49 558 318.5 558 706 581.953 706 611.5 532.51 665 318.5 665z" fill="#D2EBFF"/><path d="M503.673 448.92a107.08 107.08 0 01-.673-11.916c0-2.105.071-4.236.193-6.316l19.669-6.37a86.566 86.566 0 016.96-23.579l-13.037-16.067a106.258 106.258 0 0110.329-15.032l19.669 6.392a87.287 87.287 0 0119.467-14.986l-1.119-20.686a104.95 104.95 0 0117.171-6.093l12.145 16.779a87.18 87.18 0 0124.551-.644L630.244 333a105.34 105.34 0 0117.465 5.171l-.025 20.72a87.145 87.145 0 0120.236 13.936l19.295-7.448a106.22 106.22 0 0111.11 14.467l-12.174 16.737a86.696 86.696 0 018.209 23.183l19.971 5.322c.444 3.957.668 7.935.669 11.916 0 2.128-.064 4.233-.193 6.316l-19.657 6.396a86.584 86.584 0 01-6.964 23.579l13.037 16.067a106.175 106.175 0 01-10.329 15.032l-19.673-6.426a87.31 87.31 0 01-19.471 14.986l1.119 20.69a104.857 104.857 0 01-17.167 6.089l-12.145-16.779a87.179 87.179 0 01-24.551.644L587.76 541a104.54 104.54 0 01-17.469-5.171l.025-20.715a87.351 87.351 0 01-20.253-13.937l-19.299 7.452a106.343 106.343 0 01-11.11-14.463l12.195-16.737a86.56 86.56 0 01-8.209-23.187l-19.967-5.322zm105.329 29.709a41.538 41.538 0 0023.098-7.015 41.602 41.602 0 0015.312-18.68 41.672 41.672 0 002.366-24.05 41.639 41.639 0 00-11.378-21.313 41.534 41.534 0 00-45.308-9.024 41.587 41.587 0 00-18.658 15.331 41.668 41.668 0 005.17 52.56 41.55 41.55 0 0029.398 12.191z" fill="url(#paint1_linear)"/><path d="M421.863 579.688c109.69-23.102 193.269-104.33 241.72-234.713 34.517-92.943 39.196-178.852 39.39-182.548l1.863-37.186L411.565 21.567 118.294 125.24l1.877 37.186c.194 3.622 4.874 89.605 39.39 182.548 48.452 130.442 132.031 211.641 241.72 234.713l10.284 2.176 10.298-2.176z" fill="#89CAF7"/><path d="M179.279 165.363l232.286-82.108 232.301 82.108s-15.724 311.142-232.301 356.75c-216.563-45.608-232.286-356.75-232.286-356.75z" fill="#D2EBFF"/><mask id="a" maskUnits="userSpaceOnUse" x="298" y="158" width="227" height="261"><path d="M412.034 418.221c36.916 0 65.025-9.409 84.328-28.229 19.061-18.82 28.592-46.326 28.592-82.518V190.573c0-9.893-2.896-17.734-8.687-23.525-6.032-6.032-13.994-9.048-23.886-9.048-9.893 0-17.734 3.016-23.525 9.048-6.032 5.791-9.048 13.632-9.048 23.525v119.434c0 18.337-4.102 32.452-12.306 42.345-8.203 9.892-20.026 14.839-35.468 14.839-15.442 0-27.265-4.947-35.468-14.839-8.204-9.893-12.306-24.008-12.306-42.345V190.573c0-9.893-2.895-17.734-8.686-23.525-6.032-6.032-13.994-9.048-23.886-9.048-9.893 0-17.855 3.016-23.887 9.048-6.032 5.791-9.048 13.632-9.048 23.525v116.901c0 35.95 9.772 63.456 29.315 82.518 19.303 18.82 47.291 28.229 83.966 28.229z" fill="#fff"/></mask><g mask="url(#a)"><path d="M412.034 418.221c36.916 0 65.025-9.409 84.328-28.229 19.061-18.82 28.592-46.326 28.592-82.518V190.573c0-9.893-2.896-17.734-8.687-23.525-6.032-6.032-13.994-9.048-23.886-9.048-9.893 0-17.734 3.016-23.525 9.048-6.032 5.791-9.048 13.632-9.048 23.525v119.434c0 18.337-4.102 32.452-12.306 42.345-8.203 9.892-20.026 14.839-35.468 14.839-15.442 0-27.265-4.947-35.468-14.839-8.204-9.893-12.306-24.008-12.306-42.345V190.573c0-9.893-2.895-17.734-8.686-23.525-6.032-6.032-13.994-9.048-23.886-9.048-9.893 0-17.855 3.016-23.887 9.048-6.032 5.791-9.048 13.632-9.048 23.525v116.901c0 35.95 9.772 63.456 29.315 82.518 19.303 18.82 47.291 28.229 83.966 28.229z" fill="#fff"/><path d="M480.848 413.715c.035-.02.082-.006.106.028.026.037.005.086-.039.098l-.027.007c-.092.026-.135-.078-.052-.126l.012-.007z" fill="url(#paint2_linear)"/><path d="M489.74 215.546a.408.408 0 00.034-.057c.132-.269-.037-.587-.324-.67-1.801-.518-2.08-1.934-3.704-2.486-2.033-.669-1.338.061-3.335 0-.686-.03-1.258.164-1.829.332-.806.237-1.391 1.292-.715 1.789 1.523 1.082 3.081 2.191 4.893 2.613 1.803.411 3.918-.021 4.98-1.521z" fill="#89CAF7"/><g filter="url(#filter0_d)"><path d="M461.632 340.835c.035 1.241.766 2.324 1.4 3.371a34.192 34.192 0 014.919 15.366c.378 5.183.15 11.572 4.664 14.124 2.579 1.435 6.205 1.18 7.921 3.6.536.73.792 1.654 1.047 2.517 1.08 3.933 2.168 7.866 3.248 11.8a.394.394 0 00.415.289c.477-.042 1.774 2.164 1.769 2.643-.003.32.05.638.17.938.094.237.378.303.62.224 1.551-.506 3.41.469 4.233 1.962.854 1.619.73 3.59.255 5.377-.922 3.311-3.04 6.221-5.803 8.243-2.496 1.827-2.582 4.116-.023 2.379 12.312-8.325 21.605-21.007 25.847-35.255 1.496-5.025 2.455-10.367 5.386-14.688 2.447-3.652 6.143-6.327 8.589-9.979 3.432-5.245 4.075-12.048 8.053-16.844 2.226-2.737 5.667-6.099 3.696-9.03-.792-1.205-2.482-2.349-1.813-3.625.22-.414.669-.669 1.021-1.021 1.337-1.435.413-3.688-.255-5.536-2.147-6.22 2.539-12.237 5.649-18.036.506-.944.959-1.917 1.356-2.918.825-2.129 1.878-4.702 3.8-5.504.697-.292 1.393-.724 1.65-1.435.394-1.09.793-2.181 1.188-3.271.178-.492 1.094-.607 1.574-.399.322.139.646-.145.621-.495-2.21-31.417-14.767-59.966-34.269-82.296-.655-.751-1.472-1.346-2.338-1.838-4.797-2.799-8.616-6.997-13.254-10.05-.95-.634-2.033-1.241-3.212-1.118-1.144.097-2.227 1.267-1.813 2.35.158.448.537.801.924 1.082a98.073 98.073 0 0017.707 12.004c.756.378 1.557.827 1.9 1.593.643 1.302-.44 2.922-1.812 3.397-1.451.505-3.043 2.447-3.08 3.983a7.13 7.13 0 01-.037.567c-.082.763-.871 1.334-1.36.742-.493-.596-.75-1.605-.997-2.397-.824-2.563-3.345-4.336-5.503-6.177-2.346-2.002-7.363-6.759-9.027-9.356-1.172-1.861-3.634-3.693-5.276-2.721-.377.224-.534.669-.577 1.105-.028.283-.058.566-.088.85a1.335 1.335 0 01-1.651 1.155l-1.295-.329c-1.157-.294-3.866 2.733-4.428 3.786a3.794 3.794 0 01-.8 1.012c-1.604 1.449-3.391 3.115-1.647 4.392 2.812 2.121 5.815 4.293 9.049 5.526.487.185.729.746.503 1.215l-.272.564c-.069.142-.003.333.155.333 2.288.22 4.708-1.425 7.154-1.108 1.496.193 3.336.193 4.198 1.716.123.193.66 2.86.282 2.64-.852-.488-1.701-.976-2.544-1.461-.751-.433-1.716-.097-1.8.766-.09.929-.852 1.784-1.777 1.912a7.857 7.857 0 00-1.09.231c-1.078.311-1.482 1.569-.815 2.471 1.511 2.042 3.901 3.448 6.43 3.764.972.122 1.744-.698 1.785-1.677.041-.975.82-1.807 1.765-1.563 2.34.605 4.253 2.776 5.517 4.947 1.584 2.702 2.79 5.791 5.404 7.507 1.584 1.082 3.529 1.496 5.245 2.385 1.681.924 3.238 2.675 2.886 4.549-.158.889-.73 1.717-.704 2.641.097 1.716 2.095 2.517 3.433 3.625 2.288 1.91 2.86 5.413 5.306 7.094 1.778 1.24 4.137 1.214 6.205 1.848 1.821.558 3.641 2.227 3.48 3.988-.037.402.155.842.556.794.696-.085 2.391-.017 2.687.619a69.906 69.906 0 015.457 17.316c.381 2.161-1.197 4.22-2.415 2.396a7.13 7.13 0 01-1.062-2.69c-.68-3.94-3.739-1.294-3.221 2.67l.388 2.989c.096.607.158 1.241-.132 1.778-.353.668-1.109.95-1.69 1.425-1.619 1.4-1.399 3.881-1.496 6.011-.083 2.22-.721 4.395-1.752 6.368-.084.159-.338.056-.3-.119a.156.156 0 00-.17-.187 8.91 8.91 0 01-6.72-2.163c-.985-.889-1.812-2.033-3.053-2.482-1.276-.475-2.676-.132-3.978.22-4.039 1.109-8.334 2.35-11.036 5.527-1.364 1.619-2.226 3.661-3.854 4.989-3.688 3.116-9.927 1.743-13.298 5.21-2.023 2.096-2.25 5.153-1.93 8.171.158 1.485 2.171 2.541 3.2 3.624 1.017 1.069-.425 1.455-1.75.805a2.966 2.966 0 00-1.315-.323c-.503-.012-4.769 1.127-5.271 1.092-2.356-.168-4.912 1.01-5.877 3.157-.201.446-.598.8-1.086.835-1.189.084-2.381.168-3.573.254-3.443.247-6.918 3.508-9.931 5.194-2.936 1.644-6.564 3.028-6.437 6.074z" fill="#89CAF7"/></g><path d="M483.308 193.703c1.373.678 3.265-.088 3.776-1.531.519-1.444-.458-3.23-1.954-3.573-.942-.22-2.253-.115-2.543-1.039-.088-.281-.035-.589-.035-.88.035-1.742-1.523-3.186-3.204-3.626-1.154-.296-2.355-.231-3.546-.053-1.025.153-1.938.832-2.133 1.849a6.49 6.49 0 00-.113 1.011c-.029.897.759 1.542 1.656 1.58 1.096.045 1.904.982 2.027 2.072.154 1.37.639 2.639 1.854 3.125 1.619.642 3.731-.554 5.078.537" fill="#89CAF7"/><path d="M465.081 174.279c-3.195-1.532-5.896-3.943-9.047-5.562-5.421-2.781-11.748-3.028-17.838-3.221l-30.588-.952c-2.769-.086-3.781 3.619-1.349 4.947 2.076 1.143 4.379 2.308 6.677 2.337.926.012 1.819.692 1.435 1.535-.594 1.306-.636 4.05.79 4.214 4.866.56 10.366-.854 14.824 1.34 2.517 1.24 4.55 3.581 7.322 4.021 1.601.256 3.265-.176 4.858.176 2.666.581 4.347 3.107 6.318 4.99 2.271 2.174 5.606 3.661 8.572 2.623 2.966-1.039 4.515-5.448 2.138-7.507-1.17-1.012-2.842-1.179-4.224-1.892-1.381-.704-2.473-2.596-1.434-3.749.449-.502 1.188-.695 1.601-1.232.449-.581.405-1.408.775-2.042 1.408-2.473 5.324.854 7.991-.141" fill="url(#paint3_linear)"/><path d="M422.988 185.973c-1.875-.431-3.503-1.54-5.254-2.349a10.86 10.86 0 00-1.578-.592c-2.523-.716-4.195 2.181-1.722 3.056a15.759 15.759 0 007.77.678" fill="url(#paint4_linear)"/><g filter="url(#filter1_d)"><path d="M308.579 201.14c.678-.746 1.699-1.04 2.679-1.277 2.385-.511 4.198-2.35 6.24-3.688 3.389-2.242 7.666-3.08 11.695-2.425 1.253.203 3.022-1.717 2.883-2.978a9.62 9.62 0 01-.058-1.046c0-.288.288-.479.56-.384.12.042.251.029.361-.034 8.296-4.8 17.993-9.726 27.021-6.501 2.103.766 4.004 1.91 6.134 2.641 2.262.792 4.77 1.117 6.706 2.516 1.971 1.4 3.018 4.489 1.329 6.17-1.435 1.434-3.723 1.047-5.729 1.24-.906.089-1.873.552-2.549 1.189-1.414 1.335.333 3.094 2.095 3.919 4.835 2.264 9.676 4.537 14.515 6.814 3.216 1.514 3.517 8.02 3.066 11.546-.204 1.596 1.162 2.879 2.745 2.592 2.011-.364 4.005-1.266 6.063-1.401 4.294-.22 8.395 3.565 8.483 7.859.123 4.295-3.819 8.264-8.114 8.202a8.927 8.927 0 01-.833-.049c-4.497-.463-9.664-5.387-12.834-8.61-4.004-4.014-9.724-7.639-15.075-5.668-1.751.634-3.247 1.813-4.708 2.983-2.68 2.122-5.36 4.262-8.045 6.411a2.266 2.266 0 01-3.036-.196c-.885-.909-2.336-.881-3.21.039l-2.792 2.939a1.56 1.56 0 01-1.982.225l-.521-.339a1.068 1.068 0 00-1.573.499c-.392.996-1.854.815-1.986-.247l-.049-.395a1.154 1.154 0 00-1.168-1.007c-1.783.029-3.6-.058-5.19-.853-1.91-.924-3.309-3.212-2.508-5.184.413-1.047 1.399-1.874 1.592-2.992.414-2.226-2.763-3.749-4.831-2.737-1.089.528-1.888 1.44-2.527 2.501-.512.848-1.867.727-2.075-.242-.209-.977-1.594-1.094-2.011-.185a51.207 51.207 0 01-2.704 5.105c-1.331 2.201.605 5.55 3.177 5.641 2.015.072 4.023.318 5.992.736 3.095.656 4.007 4.408 1.025 5.465-1.196.424-2.47.628-3.746.578-1.496-.035-3.15-.378-4.295.572-.862.73-1.082 1.91-1.24 2.992-.532 3.179 3.968 6.685 7.189 6.564 1.405-.053 2.824-.042 4.198-.069 3.042-.084 6.432-.681 8.816-2.353 1.556-1.091 4.004-1.395 4.486.443.47 1.79 2.19 3.454 3.939 2.849 1.438-.498 2.822-1.112 4.017-1.906 2.624-1.742 6.368-3.511 9.152-4.985 1.666-.882 3.005-2.373 3.49-4.204.352-1.302.449-2.895 1.593-3.59.695-.414 1.593-.352 2.42-.256 6.899.801 13.773 1.567 20.637 2.368 3.749.449 7.63.897 10.939 2.737 6.046 3.312 9.602 11.176 14.408 16.118a42.257 42.257 0 016.475 8.611c1.144 1.971 2.13 4.233 1.681 6.459-.317 1.717-1.461 3.177-1.813 4.867-.607 2.895 1.048 5.694 1.743 8.554 1.971 8.141-4.207 15.806-9.936 21.966-2.702 2.86-5.826 5.976-9.768 6.134-2.447.097-4.77-.986-7.058-1.883a50.953 50.953 0 00-14.857-3.376c-1.988-.148-5.932 3.848-7.884 4.256-1.971.413-4.101-.229-6.01.44-3.862 1.381-3.83 6.558-2.4 10.622.223.632-.308 1.316-.967 1.191-.627-.118-1.146.495-.915 1.09l.412 1.061c.345.885-.247 1.857-1.122 2.227-4.616 1.948-6.281 8.768-5.041 14.012 1.364 5.888 4.858 11.291 4.955 17.337.026 3.309-.986 6.521-2.007 9.663l-1.102 3.45c-3.993 12.498-12.322 14.642-24.384 9.478-2.482-1.083-5.403-1.303-7.348-3.151-1.875-1.778-1.268-5.949 1.144-5.949-3.274-.352-6.073-3.344-6.169-6.653-.036-.924.096-1.848-.027-2.763-.22-1.303-1.047-2.447-1.839-3.565-5.052-7.251-8.325-15.559-11.599-23.761-.854-2.2-1.716-4.356-2.57-6.556-3.238-8.176-6.451-16.316-9.689-24.492l-.107-.271c-.384-.971 4.434-8.321 5.237-8.987 2.641-2.156 4.013-5.439 6.082-8.14 1.751-2.324 4.109-4.383 4.937-7.217.475-1.619.387-3.37.668-5.06.643-3.661 3.054-6.706 4.709-10.015 2.378-4.757-2.665-5.498-5.179-.811a404.078 404.078 0 00-10.402 20.828c-.888 1.911-4.41 1.962-6.28.99-1.302-.704-2.763-.986-4.136-1.558-3.626-1.593-6.134-5.439-6.134-9.381.035-3.943 2.544-7.789 6.205-9.346 1.812-.766 3.881-1.012 5.597-2.068 1.716-1.013 2.957-3.336 1.874-5.026-1.012-1.592-3.467-1.557-5.148-.668-1.69.924-2.931 2.481-4.515 3.529-1.144.765-2.481 1.267-3.722 1.971-6.715 3.846-8.37 12.593-9.778 20.223a203.496 203.496 0 01-2.026 9.65c-.102.428-.649.364-.649-.075.035-36.402 13.893-69.539 36.606-94.489zm-11.789 45.022c.924-.062 1.778-.669 2.517-1.241 1.206-.95 2.42-2.068 2.772-3.564.414-1.778-.44-3.82.511-5.404.449-.765 1.241-1.241 1.91-1.777 1.751-1.4 3.027-3.406 3.502-5.562.414-1.91-.185-4.453-2.13-4.77-.812-.139-1.692.238-2.174.911-.112.156-.042.367.127.458.308.167.236.742-.052.941-1.418.976-1.86 3.418-.479 4.589.22.22.51.414.51.731 0 .404-.42.668-.723.936-1.341 1.183-3.152 1.703-4.751 2.558-1.371.713-2.727 1.897-3.145 3.306-.233.781.367 1.482 1.129 1.768.295.111.603.275.689.578.172.608-.241 1.4-.75 1.881-.633.598-1.46 1.206-1.496 2.094 0 .96 1.083 1.628 2.033 1.567z" fill="#89CAF7"/></g><path d="M295.533 346.22c.338-.606 1.67-1.274 2.235-.873a.764.764 0 01.292.769c-.503 2.7 1.067 5.696 3.633 6.734 1.434.581 3.344.836 3.828 2.305.405 1.25-.563 2.517-.695 3.82-.211 2.165 1.813 3.784 3.274 5.394 1.46 1.611 2.235 4.638.29 5.606-.449.229-.968.273-1.47.317-2.112.185-4.426.247-6.151-.985-4.946-3.529-.247-13.104-5.131-16.73-.695-.511-1.566-.88-1.945-1.655-.79-1.561.956-3.114 1.84-4.702z" fill="url(#paint5_linear)"/></g><path d="M387.585 490.471L281.07 475.253h-93.639l-83.683 16.38 143.968 72.584 139.869-73.746z" fill="#073A93"/><path d="M192.052 567.138s188.454-103.599 210.691-69.647c32.131 49.035-16.976 73.746-191.958 120.561l-18.733-50.914z" fill="#073A93"/><path d="M140.113 618.901a22.087 22.087 0 0111.923-28.855l43.518-18.019 16.9 40.808-43.518 18.019a22.07 22.07 0 01-28.823-11.953z" fill="#1858B5"/><path d="M198.342 578.615l-32.937 13.622a14.97 14.97 0 0011.461 27.663l32.921-13.638-11.445-27.647z" fill="#489BFF"/><path opacity=".45" d="M209.637 605.964l-43.533 18.019a22.04 22.04 0 01-27.079-8.659 21.272 21.272 0 001.073 3.577 22.079 22.079 0 0011.956 11.939 22.073 22.073 0 0016.897-.016l43.518-18.019-2.832-6.841z" fill="#063272"/><path d="M199.801 605.363l-8.102-19.201a1.952 1.952 0 00-1.057-1.018 2.003 2.003 0 00-1.482-.004 1.926 1.926 0 00-1.055 1.028 1.87 1.87 0 00-.005 1.459l8.12 19.201a1.925 1.925 0 001.051 1.03 1.973 1.973 0 001.487-.008 1.925 1.925 0 001.052-1.03 1.853 1.853 0 00-.009-1.457z" fill="url(#paint6_linear)"/><path d="M187.812 610.372l-8.129-19.191a1.933 1.933 0 00-1.051-1.034 1.997 1.997 0 00-1.491-.005 1.946 1.946 0 00-1.039 1.035 1.886 1.886 0 00-.005 1.451l8.129 19.191c.197.467.575.839 1.051 1.034a1.994 1.994 0 001.49.005 1.944 1.944 0 001.04-1.035c.195-.465.197-.986.005-1.451z" fill="url(#paint7_linear)"/><path d="M174.836 615.379l-7.479-19.162a1.89 1.89 0 00-.371-.627 1.768 1.768 0 00-.569-.427 1.676 1.676 0 00-1.366-.035 1.84 1.84 0 00-.962 1.022c-.18.462-.18.982.001 1.444l7.367 19.247c.184.459.53.824.965 1.014.434.191.921.193 1.357.006.224-.088.428-.223.602-.396.174-.173.315-.381.413-.612a2.033 2.033 0 00.042-1.474z" fill="url(#paint8_linear)"/><path d="M123.778 427.127c2.907-9.956 17.333-26.827 30.15-61.39 13.324-35.935 70.136-39.81 70.136-39.81l22.042 11.804 22.058-11.804s56.812 3.875 70.136 39.81c12.817 34.578 27.243 51.434 30.134 61.39 2.892 9.957-12.742 74.388-57.661 83.465H181.455c-44.919-9.077-60.568-73.508-57.677-83.465z" fill="#489BFF"/><path d="M221.605 326.151v17.676s4.069 19.734 23.294 23.028a30.041 30.041 0 0014.967-8.097 30.042 30.042 0 008.164-14.931v-17.676h-46.425z" fill="#F49290"/><path d="M288.984 291.454s6.572-41.3-9.136-46.323c-4.292-1.371-1.162-14.994-25.068-15.173-32.653-.223-58.377-4.62-54.085 62.062l88.289-.566z" fill="#073A93"/><path d="M268.283 296.014a11.279 11.279 0 016.965-10.423 11.283 11.283 0 0112.295 2.445 11.289 11.289 0 012.445 12.296 11.277 11.277 0 01-10.423 6.965 11.282 11.282 0 01-11.282-11.283zm-68.705 0a11.279 11.279 0 016.965-10.423 11.282 11.282 0 11-6.965 10.423z" fill="#FFB5B1"/><path d="M207.298 276.907c.462-.149 9.464-3.145 11.178-14.979l4.947 1.386a75.346 75.346 0 0041.73-.402l3.95-.984a17.883 17.883 0 0011.759 14.949h.104l.298 18.273c0 10.642-4.471 23.564-11.669 33.52a31.454 31.454 0 01-25.299 12.769 31.442 31.442 0 01-25.299-12.769c-7.183-9.956-11.684-22.878-11.684-33.52v-18.198l-.015-.045z" fill="#FFB5B1"/><path d="M177.863 428.23h134.236a4.277 4.277 0 014.277 4.278v86.653a4.277 4.277 0 01-4.277 4.278H177.863a4.277 4.277 0 01-4.277-4.278v-86.653a4.277 4.277 0 014.277-4.278z" fill="#D2EBFF"/><path d="M245.406 489.696c-8.19 0-14.829-6.64-14.829-14.83 0-8.19 6.639-14.83 14.829-14.83 8.19 0 14.829 6.64 14.829 14.83 0 8.19-6.639 14.83-14.829 14.83z" fill="#89CAF7"/><path d="M303.903 567.138s-188.47-103.599-210.691-69.647c-32.132 49.035 16.975 73.746 191.957 120.561l18.734-50.914z" fill="#073A93"/><path d="M355.842 618.901a22.092 22.092 0 00-11.923-28.855l-43.518-18.019-16.901 40.808 43.518 18.019a22.07 22.07 0 0028.824-11.953z" fill="#1858B5"/><path d="M286.168 606.262l32.921 13.638a14.98 14.98 0 0011.458.001 14.974 14.974 0 009.243-13.831 14.97 14.97 0 00-9.24-13.833l-32.937-13.622-11.445 27.647z" fill="#489BFF"/><path opacity=".45" d="M286.316 605.964l43.518 18.019a22.038 22.038 0 0027.035-8.659 21.272 21.272 0 01-1.073 3.577 22.079 22.079 0 01-11.956 11.939 22.073 22.073 0 01-16.897-.016l-43.518-18.019 2.891-6.841z" fill="#063272"/><path d="M300.11 606.48l7.409-18.376c.186-.442.532-.792.966-.975.433-.183.92-.185 1.355-.006.436.184.784.538.966.984.182.446.184.947.006 1.395l-7.409 18.376a1.794 1.794 0 01-.96.987 1.736 1.736 0 01-1.36-.007 1.747 1.747 0 01-.583-.39 1.817 1.817 0 01-.527-1.289c0-.24.047-.478.137-.699z" fill="url(#paint9_linear)"/><path d="M310.085 610.486l7.452-18.356c.18-.447.526-.803.963-.989a1.755 1.755 0 011.366-.005c.432.19.774.546.953.99.179.444.181.943.005 1.388l-7.452 18.356c-.18.447-.527.803-.963.989a1.755 1.755 0 01-1.366.005 1.823 1.823 0 01-.953-.99 1.876 1.876 0 01-.005-1.388z" fill="url(#paint10_linear)"/><path d="M321.083 615.374l7.45-19.202c.089-.231.22-.441.386-.618s.362-.317.579-.412a1.659 1.659 0 011.364.008c.434.192.778.56.958 1.024.179.463.179.983 0 1.447l-7.451 19.218c-.183.46-.528.825-.961 1.016a1.683 1.683 0 01-1.352.006 1.867 1.867 0 01-.962-1.031 2.046 2.046 0 01-.011-1.456z" fill="url(#paint11_linear)"/></g><defs><linearGradient id="paint0_linear" x1="325.832" y1="112.661" x2="569.475" y2="961.78" gradientUnits="userSpaceOnUse"><stop stop-color="#6A7FFE"/><stop offset=".375" stop-color="#5B8CFD"/><stop offset=".766" stop-color="#4E9FFD"/><stop offset=".984" stop-color="#49A4FC"/></linearGradient><linearGradient id="paint1_linear" x1="670" y1="342" x2="574.93" y2="484.865" gradientUnits="userSpaceOnUse"><stop stop-color="#FFC85E"/><stop offset="1" stop-color="#FFB626"/></linearGradient><linearGradient id="paint2_linear" x1="481.002" y1="413.677" x2="480.94" y2="414.073" gradientUnits="userSpaceOnUse"><stop stop-color="#6A7FFE"/><stop offset=".375" stop-color="#5B8CFD"/><stop offset=".766" stop-color="#4E9FFD"/><stop offset=".984" stop-color="#49A4FC"/></linearGradient><linearGradient id="paint3_linear" x1="465.081" y1="164.202" x2="460.763" y2="199.021" gradientUnits="userSpaceOnUse"><stop stop-color="#6A7FFE"/><stop offset=".375" stop-color="#5B8CFD"/><stop offset=".766" stop-color="#4E9FFD"/><stop offset=".984" stop-color="#49A4FC"/></linearGradient><linearGradient id="paint4_linear" x1="422.988" y1="182.74" x2="422.314" y2="188.231" gradientUnits="userSpaceOnUse"><stop stop-color="#6A7FFE"/><stop offset=".375" stop-color="#5B8CFD"/><stop offset=".766" stop-color="#4E9FFD"/><stop offset=".984" stop-color="#49A4FC"/></linearGradient><linearGradient id="paint5_linear" x1="309.552" y1="344.005" x2="295.346" y2="371.356" gradientUnits="userSpaceOnUse"><stop stop-color="#6A7FFE"/><stop offset=".375" stop-color="#5B8CFD"/><stop offset=".766" stop-color="#4E9FFD"/><stop offset=".984" stop-color="#49A4FC"/></linearGradient><linearGradient id="paint6_linear" x1="199.968" y1="585" x2="184.161" y2="588.001" gradientUnits="userSpaceOnUse"><stop stop-color="#FFC961"/><stop offset="1" stop-color="#FFB627"/></linearGradient><linearGradient id="paint7_linear" x1="187.968" y1="590" x2="172.161" y2="593.001" gradientUnits="userSpaceOnUse"><stop stop-color="#FFC961"/><stop offset="1" stop-color="#FFB627"/></linearGradient><linearGradient id="paint8_linear" x1="174.967" y1="595" x2="160.397" y2="597.536" gradientUnits="userSpaceOnUse"><stop stop-color="#FFC961"/><stop offset="1" stop-color="#FFB627"/></linearGradient><linearGradient id="paint9_linear" x1="310.955" y1="586.989" x2="296.441" y2="589.64" gradientUnits="userSpaceOnUse"><stop stop-color="#FFC961"/><stop offset="1" stop-color="#FFB627"/></linearGradient><linearGradient id="paint10_linear" x1="320.967" y1="591" x2="306.436" y2="593.644" gradientUnits="userSpaceOnUse"><stop stop-color="#FFC961"/><stop offset="1" stop-color="#FFB627"/></linearGradient><linearGradient id="paint11_linear" x1="331.967" y1="595" x2="317.397" y2="597.536" gradientUnits="userSpaceOnUse"><stop stop-color="#FFC961"/><stop offset="1" stop-color="#FFB627"/></linearGradient><filter id="filter0_d" x="457.629" y="188.314" width="99.202" height="231.972" filterUnits="userSpaceOnUse" color-interpolation-filters="sRGB"><feFlood flood-opacity="0" result="BackgroundImageFix"/><feColorMatrix in="SourceAlpha" values="0 0 0 0 0 0 0 0 0 0 0 0 0 0 0 0 0 0 127 0"/><feOffset dy="2"/><feGaussianBlur stdDeviation="2"/><feColorMatrix values="0 0 0 0 0 0 0 0 0 0 0 0 0 0 0 0 0 0 0.25 0"/><feBlend in2="BackgroundImageFix" result="effect1_dropShadow"/><feBlend in="SourceGraphic" in2="effect1_dropShadow" result="shape"/></filter><filter id="filter1_d" x="267.973" y="179.774" width="157.322" height="212.793" filterUnits="userSpaceOnUse" color-interpolation-filters="sRGB"><feFlood flood-opacity="0" result="BackgroundImageFix"/><feColorMatrix in="SourceAlpha" values="0 0 0 0 0 0 0 0 0 0 0 0 0 0 0 0 0 0 127 0"/><feOffset dy="2"/><feGaussianBlur stdDeviation="2"/><feColorMatrix values="0 0 0 0 0 0 0 0 0 0 0 0 0 0 0 0 0 0 0.25 0"/><feBlend in2="BackgroundImageFix" result="effect1_dropShadow"/><feBlend in="SourceGraphic" in2="effect1_dropShadow" result="shape"/></filter><clipPath id="clip0"><path transform="matrix(-1 0 0 1 715 0)" fill="#fff" d="M0 0h813v665H0z"/></clipPath></defs></svg>