<svg width="157" height="156" fill="none" xmlns="http://www.w3.org/2000/svg"><path d="M54.648 152.689a78.036 78.036 0 008.495 2.232c1.533.312 3.062.573 4.591.801l7.482-13.276a63.761 63.761 0 0018.037-1.567l9.667 11.782a78.782 78.782 0 0012.362-5.256l-1.746-15.155a64.468 64.468 0 0013.667-11.87l14.755 3.846a77.91 77.91 0 006.917-11.51l-10.32-11.241a64.39 64.39 0 004.071-17.627l14.203-5.569a77.74 77.74 0 00-1.161-13.38l-14.947-3.025a64.279 64.279 0 00-7.078-16.67l8.21-12.847a78.128 78.128 0 00-8.806-10.152l-13.858 6.342a63.61 63.61 0 00-15.516-9.338l-.901-15.224a78.38 78.38 0 00-8.494-2.231 88.264 88.264 0 00-4.595-.801L82.2 14.229a63.56 63.56 0 00-18.013 1.566L54.516 4.013A78.209 78.209 0 0042.147 9.27l1.741 15.156a64.423 64.423 0 00-13.666 11.87L15.467 32.45a77.517 77.517 0 00-6.913 11.51L18.87 55.2a64.41 64.41 0 00-4.071 17.628L.596 78.399c0 4.486.39 8.963 1.165 13.381l14.943 3.025a64.373 64.373 0 007.077 16.665l-8.194 12.868a78.51 78.51 0 008.807 10.155l13.858-6.341a63.715 63.715 0 0015.516 9.338l.88 15.199zm-5.952-80.471a30.667 30.667 0 018.451-15.663 30.613 30.613 0 0133.415-6.503 30.668 30.668 0 0118.789 28.409 30.668 30.668 0 01-19.037 28.243 30.623 30.623 0 01-37.141-11.45 30.67 30.67 0 01-4.477-23.024v-.012z" fill="url(#paint0_linear)"/><path d="M93.867 85.053c5.379-8.634 2.745-19.998-5.883-25.381-8.628-5.384-19.983-2.747-25.362 5.887-5.379 8.635-2.745 20 5.883 25.382 8.628 5.383 19.983 2.747 25.362-5.888z" fill="url(#paint1_linear)"/><defs><linearGradient id="paint0_linear" x1="380024" y1="38744.3" x2="387956" y2="120938" gradientUnits="userSpaceOnUse"><stop stop-color="#6BBEFF"/><stop offset="1" stop-color="#0C3AA1"/></linearGradient><linearGradient id="paint1_linear" x1="89643.6" y1="9282.48" x2="91559" y2="28849.5" gradientUnits="userSpaceOnUse"><stop stop-color="#6BBEFF"/><stop offset="1" stop-color="#0C3AA1"/></linearGradient></defs></svg>