<svg width="630" height="1028" fill="none" xmlns="http://www.w3.org/2000/svg"><path d="M476.677 783.1l19.604 134.572 750.279 19.425 18.52-157.815-788.403 3.818z" fill="#1B45A1"/><path d="M168.331 910.868a2.832 2.832 0 01-1.589-.469 2.832 2.832 0 01-1.206-2.93 2.816 2.816 0 01.797-1.452c.626-.613 15.627-15.114 43.523-31.321a320.114 320.114 0 01121.231-40.723 2.835 2.835 0 012.458 4.521 2.83 2.83 0 01-1.792 1.096 314.462 314.462 0 00-119.066 39.984c-27.31 15.894-42.271 30.374-42.424 30.514a2.79 2.79 0 01-1.932.78z" fill="#65ACE4"/><path d="M1488.06 953.537c-16.14-6.39-35.21-13.328-55.24-20.731-95.55-35.439-383.79-75.05-613.665-59.516-63.327 4.278-244.074 26.729-331.9 27.782-96.752 1.16-47.793 44.035-285.046 53.038s-128.558 33.02-31.473 56.56c63.946 15.52 246.825 10.59 432.967 5.42-5.555.72-4.909.74 3.271-.1 29.535-.82 59.13-1.64 88.332-2.38 108.655 1.29 266.442 11.74 383.154 12.7 155.29 1.28 460.49 9.42 487.37-26.485 13.56-18.132-23.31-34.459-77.77-46.288z" fill="#D7E3FF"/><path d="M998.284 918.792V779.275H675.223v139.517H570.212a35.3 35.3 0 00-24.964 10.344 35.33 35.33 0 00-10.34 24.975v8.589a11.48 11.48 0 0011.477 11.482h580.765a11.475 11.475 0 008.11-3.364 11.542 11.542 0 003.37-8.118v-8.589c0-9.368-3.72-18.351-10.35-24.975a35.294 35.294 0 00-24.96-10.344H998.284z" fill="#3B77D9"/><path d="M1324.28 195.427H349.258c-9.55 0-17.292 7.746-17.292 17.3v581.136c0 9.554 7.742 17.299 17.292 17.299h975.022c9.55 0 17.29-7.745 17.29-17.299V212.727c0-9.554-7.74-17.3-17.29-17.3z" fill="#153F9C"/><path d="M375.902 220.523h921.728c4.13 0 8.08 1.641 11 4.56a15.564 15.564 0 014.56 11.007v497.177a15.565 15.565 0 01-15.56 15.567H375.902a15.55 15.55 0 01-10.987-4.564 15.569 15.569 0 01-4.553-10.996V236.097c0-4.126 1.636-8.083 4.55-11.003a15.561 15.561 0 0110.99-4.571z" fill="#9DD2F2"/><path d="M585.386 479.491l-80.859 80.887a7.094 7.094 0 01-9.991 0l-80.872-80.887a7.099 7.099 0 010-9.996l80.858-80.907a7.096 7.096 0 019.992 0l80.872 80.894a7.103 7.103 0 010 10.009z" fill="#fff"/><path d="M579.424 479.138l-75.27 75.303a6.606 6.606 0 01-9.325 0l-75.27-75.303a6.605 6.605 0 010-9.33l75.27-75.302a6.594 6.594 0 019.325 0l75.27 75.302a6.592 6.592 0 010 9.33z" fill="#79C3F0"/><path d="M580.53 467.103H418.527a6.568 6.568 0 00-6.568 6.57v96.367a6.57 6.57 0 006.568 6.571H580.53a6.57 6.57 0 006.568-6.571v-96.367a6.569 6.569 0 00-6.568-6.57z" fill="#fff"/><path opacity=".3" d="M587.098 473.187c0-3.332.273-3.332-3.071-5.458a9.306 9.306 0 00-3.497-.666c-173.727 0-163.122-.313-165.507.666-3.237 2.066-3.064 1.999-3.064 5.458.759 1.499-4.889-2.419 82.597 53.458a10.17 10.17 0 009.992 0c87.432-55.877 81.79-51.965 82.55-53.458z" fill="#79C3F0"/><path d="M572.73 552.241h-59.064a1.776 1.776 0 01-1.778-1.779 1.776 1.776 0 011.778-1.779h59.064a1.776 1.776 0 011.778 1.779 1.778 1.778 0 01-1.778 1.779zm0 7.67h-59.064a1.784 1.784 0 01-1.191-3.006 1.79 1.79 0 011.191-.559h59.064a1.785 1.785 0 010 3.565z" fill="#3973CF"/><path d="M527.687 248.579a54.65 54.65 0 01-30.367-9.216 54.681 54.681 0 01-20.132-24.542 54.707 54.707 0 01-3.111-31.595 54.683 54.683 0 0114.96-27.999 54.637 54.637 0 0159.568-11.854 54.668 54.668 0 0124.531 20.14 54.705 54.705 0 019.212 30.381 54.755 54.755 0 01-16.027 38.65 54.712 54.712 0 01-38.634 16.035zm0-101.366a46.663 46.663 0 00-43.118 28.831 46.704 46.704 0 0010.134 50.884 46.655 46.655 0 0071.806-7.118 46.701 46.701 0 007.846-25.949 46.737 46.737 0 00-13.695-32.976 46.7 46.7 0 00-32.973-13.672z" fill="#FB8627"/><path d="M527.688 216.498a22.586 22.586 0 01-20.874-13.954 22.612 22.612 0 014.897-24.633 22.584 22.584 0 0124.623-4.9 22.6 22.6 0 0113.948 20.883 22.662 22.662 0 01-6.633 15.968 22.642 22.642 0 01-15.961 6.636zm0-37.211c-2.888 0-5.711.856-8.112 2.462a14.612 14.612 0 00-6.208 14.995 14.608 14.608 0 0011.472 11.477 14.602 14.602 0 0017.449-14.327 14.662 14.662 0 00-4.292-10.313 14.648 14.648 0 00-10.309-4.294z" fill="#FB8627"/><path d="M592.579 197.893H462.243a3.998 3.998 0 010-7.997h130.336a3.994 3.994 0 013.997 3.998 3.999 3.999 0 01-3.997 3.999z" fill="#FB8627"/><path d="M527.687 259.308a4 4 0 01-3.997-3.999V131.293a3.998 3.998 0 017.994 0v124.016a3.999 3.999 0 01-3.997 3.999zm-88.984 133.218a48.248 48.248 0 01-26.815-8.137 48.288 48.288 0 01-17.777-21.671 48.3 48.3 0 0110.463-52.622 48.251 48.251 0 0174.261 7.317 48.305 48.305 0 018.134 26.827 48.358 48.358 0 01-14.154 34.126 48.314 48.314 0 01-34.112 14.16zm0-88.577a40.259 40.259 0 00-22.374 6.79 40.29 40.29 0 00-14.833 18.082 40.308 40.308 0 008.73 43.908 40.267 40.267 0 0020.62 11.027 40.267 40.267 0 0041.342-17.132 40.3 40.3 0 006.788-22.384 40.349 40.349 0 00-11.81-28.476 40.314 40.314 0 00-28.463-11.815z" fill="#FB8627"/><path d="M438.703 364.491a20.244 20.244 0 01-18.709-12.507 20.262 20.262 0 0114.762-27.621 20.251 20.251 0 0124.196 19.877 20.273 20.273 0 01-5.937 14.316 20.256 20.256 0 01-14.312 5.935zm0-32.513a12.258 12.258 0 00-12.021 14.654 12.252 12.252 0 0022.211 4.42 12.265 12.265 0 002.066-6.812 12.273 12.273 0 00-3.592-8.669 12.26 12.26 0 00-8.664-3.593z" fill="#FB8627"/><path d="M495.401 348.238H381.498a3.994 3.994 0 01-3.997-3.998 3.999 3.999 0 013.997-3.999h113.903a3.994 3.994 0 013.997 3.999 3.998 3.998 0 01-3.997 3.998z" fill="#FB8627"/><path d="M438.703 401.903a3.994 3.994 0 01-3.997-3.998v-108.37a3.998 3.998 0 016.823-2.827 4.001 4.001 0 011.17 2.827v108.37a3.996 3.996 0 01-3.996 3.998z" fill="#FB8627"/><path d="M766.359 625.312h-150.14a2.551 2.551 0 00-2.551 2.552v83.706a2.552 2.552 0 002.551 2.552h150.14a2.552 2.552 0 002.551-2.552v-83.706a2.551 2.551 0 00-2.551-2.552z" fill="#3AA1E0"/><path d="M763.129 629.223H619.45a2.379 2.379 0 00-2.378 2.379v76.229a2.379 2.379 0 002.378 2.379h143.679a2.379 2.379 0 002.378-2.379v-76.229a2.379 2.379 0 00-2.378-2.379z" fill="#fff"/><path d="M758.726 634.181H623.853a2.679 2.679 0 00-2.678 2.679v65.7a2.679 2.679 0 002.678 2.679h134.873c1.479 0 2.678-1.2 2.678-2.679v-65.7a2.679 2.679 0 00-2.678-2.679z" fill="#3AA1E0"/><path d="M568.407 733.307v-30.52a7.708 7.708 0 00-7.68-7.684H331.966v45.888h228.761a7.708 7.708 0 007.68-7.684zm-7.68-106.369H331.966v45.881h228.761a7.708 7.708 0 007.68-7.684v-30.521a7.712 7.712 0 00-2.26-5.421 7.703 7.703 0 00-5.42-2.255z" fill="#99A8C2" opacity=".5"/><path d="M547.931 614.129H315.713a7.682 7.682 0 00-7.68 7.684v30.514a7.682 7.682 0 007.68 7.684h232.218c4.241 0 7.68-3.44 7.68-7.684v-30.514a7.682 7.682 0 00-7.68-7.684z" fill="#1B45A1"/><path d="M537.613 620.6H326.018a6.19 6.19 0 00-6.188 6.191v20.565a6.19 6.19 0 006.188 6.191h211.595a6.19 6.19 0 006.188-6.191v-20.565a6.19 6.19 0 00-6.188-6.191z" fill="#fff"/><path d="M547.931 682.301H315.713a7.682 7.682 0 00-7.68 7.684v30.514a7.682 7.682 0 007.68 7.683h232.218c4.241 0 7.68-3.44 7.68-7.683v-30.514a7.682 7.682 0 00-7.68-7.684z" fill="#1B45A1"/><path d="M537.613 688.765H326.018a6.19 6.19 0 00-6.188 6.191v20.565a6.19 6.19 0 006.188 6.191h211.595a6.19 6.19 0 006.188-6.191v-20.565a6.19 6.19 0 00-6.188-6.191z" fill="#fff"/><path d="M347.074 637.073a5.337 5.337 0 01-3.29 4.926 5.329 5.329 0 01-6.962-6.966 5.324 5.324 0 014.923-3.291 5.327 5.327 0 015.329 5.331zm19.317-5.331a5.327 5.327 0 00-4.924 3.291 5.33 5.33 0 1010.253 2.04 5.33 5.33 0 00-5.303-5.304l-.026-.027zm24.646 0a5.327 5.327 0 00-4.924 3.291 5.332 5.332 0 006.963 6.966 5.326 5.326 0 003.289-4.926 5.329 5.329 0 00-5.308-5.304l-.02-.027zm24.645 0a5.326 5.326 0 00-5.226 6.371 5.335 5.335 0 004.187 4.189 5.33 5.33 0 006.368-5.229 5.333 5.333 0 00-5.309-5.304l-.02-.027zm24.646 0a5.323 5.323 0 00-2.96.899 5.332 5.332 0 004.999 9.358 5.334 5.334 0 003.29-4.926 5.333 5.333 0 00-5.309-5.304l-.02-.027zm24.646 0a5.323 5.323 0 00-2.96.899 5.332 5.332 0 004.999 9.358 5.334 5.334 0 003.29-4.926 5.329 5.329 0 00-5.316-5.304l-.013-.027zm-117.9 73.05a5.337 5.337 0 01-3.29 4.926 5.329 5.329 0 01-6.962-6.966 5.332 5.332 0 014.923-3.291 5.33 5.33 0 015.329 5.331zm19.317-5.331a5.334 5.334 0 00-4.924 3.291 5.333 5.333 0 003.884 7.269 5.329 5.329 0 006.369-5.229 5.33 5.33 0 00-5.303-5.304l-.026-.027zm24.646 0a5.334 5.334 0 00-4.924 3.291 5.332 5.332 0 006.963 6.966 5.326 5.326 0 003.289-4.926 5.327 5.327 0 00-5.308-5.304l-.02-.027zm24.645 0a5.33 5.33 0 105.329 5.331 5.331 5.331 0 00-5.309-5.304l-.02-.027zm24.646 0a5.33 5.33 0 105.329 5.331 5.331 5.331 0 00-5.309-5.304l-.02-.027zm24.646 0a5.33 5.33 0 105.329 5.331 5.333 5.333 0 00-5.316-5.304l-.013-.027zm50.444-54.005c-9.805 0-17.572-7.15-17.891-7.457a1.998 1.998 0 010-2.919c.319-.306 8.086-7.456 17.891-7.456 9.805 0 17.572 7.15 17.898 7.456a1.992 1.992 0 01.633 1.46 1.997 1.997 0 01-.633 1.459c-.326.307-8.093 7.457-17.898 7.457zm-13.322-8.923c2.591 1.886 7.654 4.925 13.322 4.925 5.669 0 10.744-3.032 13.322-4.918-2.591-1.886-7.653-4.918-13.322-4.918-5.668 0-10.757 3.032-13.342 4.911h.02z" fill="#1B45A1"/><path d="M515.418 644.61a8.07 8.07 0 01-7.459-4.987 8.078 8.078 0 015.888-11.012 8.071 8.071 0 018.287 3.44 8.08 8.08 0 01-6.716 12.559zm0-12.148a4.076 4.076 0 00-3.998 4.874 4.075 4.075 0 007.387 1.47 4.08 4.08 0 00.688-2.266 4.085 4.085 0 00-4.077-4.078zm-5.955 65.686h-10.012a5.138 5.138 0 00-5.136 5.138v4.305c0 2.838 2.3 5.138 5.136 5.138h10.012c2.836 0 5.135-2.3 5.135-5.138v-4.305a5.137 5.137 0 00-5.135-5.138z" fill="#1B45A1"/><path d="M531.578 709.917h-34.857a1.998 1.998 0 010-3.999h32.859v-5.211a1.996 1.996 0 011.998-1.999 1.998 1.998 0 011.999 1.999v7.211a1.998 1.998 0 01-1.999 1.999z" fill="#1B45A1"/><path d="M526.901 709.564a1.998 1.998 0 01-1.998-2v-5.931a1.997 1.997 0 113.996 0v5.931a1.998 1.998 0 01-1.998 2zm-7.306 0a1.998 1.998 0 01-1.998-2v-8.043a1.996 1.996 0 011.998-1.999 1.998 1.998 0 011.998 1.999v8.043a1.998 1.998 0 01-1.998 2z" fill="#1B45A1"/><path d="M498.212 707.918a1.501 1.501 0 01-1.492-1.493v-2.306a1.499 1.499 0 01.399-1.119 1.497 1.497 0 012.18 0 1.492 1.492 0 01.399 1.119v2.306a1.495 1.495 0 01-1.486 1.493z" fill="#fff"/><path d="M313.669 963.646s-130.837-90.916-186.183-38.484c-44.19 41.856 34.251 91.038 134.6 77.818 70.607-9.333 78.64 4.2 91.016 3.92 92.062-7.062 216.118-34.657 155.742-77.913-82.237-58.976-137.884 3.545-166.526 19.106l-28.649 15.553z" fill="#0E3A82"/><path d="M482.826 926.788c-34.385-7.097-165.387 41.503-165.387 41.503s-114.084-34.406-141.374-37.678c-27.291-3.272-39.847 7.097-39.847 7.097s12.876-14.52 27.837-15.833c14.96-1.313 36.576-4.918 36.576-4.918s218.335-10.376 247.264-3.825c28.929 6.551 34.931 13.654 34.931 13.654z" fill="#0F2D5C"/><path d="M297.295 749.9c-5.189.82-85.841 35.986-86.833 50.76-.993 14.774 22.095 134.351 66.743 149.938 44.649 15.587 94.587 0 94.587 0s52.403-129.413 36.842-153.983c-15.56-24.57-85.927-46.688-85.927-46.688l-25.412-.027z" fill="url(#paint0_linear)"/><path d="M238.012 777.722c-77.048 41.317-95.972 115.88-75.596 132.32 14.281 11.515 68.123 36.998 114.79 35.359 46.667-1.64 90.497 2.752 90.497 2.752s80.052-16.294 96.019-40.297c15.966-24.004-28.33-101.958-68.049-124.503-39.72-22.544-157.661-5.631-157.661-5.631z" fill="url(#paint1_linear)"/><path d="M311.484 796.548a19.422 19.422 0 01-13.671-5.698 19.444 19.444 0 01-5.686-13.68v-65.254a19.387 19.387 0 015.675-13.707 19.372 19.372 0 0127.403 0 19.388 19.388 0 015.676 13.707v65.254a19.442 19.442 0 01-5.701 13.694 19.418 19.418 0 01-13.696 5.684z" fill="#F09959"/><path d="M311.484 692.531a19.423 19.423 0 00-13.673 5.7 19.442 19.442 0 00-5.684 13.685v53.358c11.424 9.55 22.488 4.545 38.754-8.07v-45.315a19.44 19.44 0 00-19.397-19.358z" fill="#E38540"/><path d="M354.014 714.582c-3.184 6.504-8.36 10.109-11.551 8.056-3.19-2.052-3.204-8.996 0-15.5s8.353-10.109 11.551-8.05c3.197 2.059 3.184 8.963 0 15.494zm-74.977-6.984c3.684 5.917 4.39 13.067 1.579 15.993-2.811 2.925-8.073.46-11.757-5.458-3.683-5.917-4.389-13.068-1.578-15.993 2.811-2.926 8.073-.46 11.756 5.458z" fill="#F09959"/><path d="M345.681 714.135c0 23.711-14.921 42.93-33.305 42.93s-33.305-19.219-33.305-42.93c0-23.71 14.921-42.929 33.305-42.929s33.305 19.219 33.305 42.929z" fill="#F09959"/><path d="M385.021 820.392c21.829 11.648 40.859 55.79 40.859 55.79s-49.125 7.65-59.283 15.327c-10.158 7.677 1.459-2.912 7.281-24.03 5.821-21.118 11.143-47.087 11.143-47.087zm-152.005-3.186c5.096 23.324 29.476 88.351 29.476 88.351s-22.581-25.73-46.581-27.189c-24-1.46-32.899-1.82-32.752 3.998.033 1.153 3.996-25.849 22.561-42.596 18.564-16.746 27.296-22.564 27.296-22.564z" fill="#FB8627"/><path d="M379.386 963.893H247.531a10.874 10.874 0 01-10.724-9.083l-15.9-94.914a10.887 10.887 0 012.432-8.815 10.883 10.883 0 018.292-3.847h163.635a10.883 10.883 0 018.292 3.847 10.887 10.887 0 012.432 8.815l-15.9 94.914a10.87 10.87 0 01-10.704 9.083z" fill="#2A66C6"/><path d="M379.386 963.893H247.531a10.759 10.759 0 01-6.931-2.43 10.772 10.772 0 01-3.76-6.313l-15.9-91.489c-1.106-6.391 3.997-12.215 10.724-12.215h163.602c6.721 0 11.83 5.824 10.725 12.215l-15.9 91.489a10.763 10.763 0 01-10.705 8.743z" fill="url(#paint2_linear)"/><path d="M330.861 1001.28c-.793-.13-85.149-21.254-103.979-5.693-18.831 15.563 63.04 15.823 77.781 12.423 14.741-3.41 26.198-6.73 26.198-6.73zm18.83 3.79s17.985-13.575 41.752-11.116c23.766 2.459 44.216 7.636 23.746 14.056-20.469 6.42-41.758 7.24-51.583 6.42-9.825-.82-13.915-9.36-13.915-9.36zm-47.973-351.45c-21.648 6.57-14.115 67.539 10.658 65.526 24.772-2.012 25.751-28.368 23.979-45.441-1.772-17.073-12.303-26.863-34.637-20.085z" fill="#0F2D5C"/><path d="M293.938 698.814c-5.995-5.777-14.308 12.395-11.044 20.385 3.264 7.991-1.299 12.662 3.118 21.232 4.416 8.57-8.134-5.465-9.892-15.76-1.759-10.296-2.764-28.116-5.269-36.152-2.504-8.037.127-21.991 11.324-24.857 11.197-2.865 13.782-8.036 18.051-8.283 4.27-.247 24.593 1.753 34.638 7.277 10.045 5.524 15.56 13.808 14.807 26.363-.752 12.554-3.996 44.695-7.027 49.979-3.031 5.285-4.57 3.998-3.664 1.006.906-2.992 4.163-21.091 1.659-27.622-2.505-6.53-1.259-22.597-7.78-23.85-6.521-1.253-5.023 9.876-12.803 10.709-7.78.833-26.118-.427-26.118-.427z" fill="#0F2D5C"/><defs><linearGradient id="paint0_linear" x1="368.881" y1="734.767" x2="243.83" y2="960.195" gradientUnits="userSpaceOnUse"><stop stop-color="#FFC34E"/><stop offset="1" stop-color="#FB8627"/></linearGradient><linearGradient id="paint1_linear" x1="258693" y1="231085" x2="234231" y2="309127" gradientUnits="userSpaceOnUse"><stop stop-color="#FFC34E"/><stop offset="1" stop-color="#FB8627"/></linearGradient><linearGradient id="paint2_linear" x1="383.583" y1="811.336" x2="257.83" y2="966.339" gradientUnits="userSpaceOnUse"><stop stop-color="#8FD4FF"/><stop offset="1" stop-color="#1355BF"/></linearGradient></defs></svg>