<svg width="375" height="248" fill="none" xmlns="http://www.w3.org/2000/svg"><path d="M99.61 188.919l4.754 32.465 181.968 4.686 4.493-38.072-191.215.921z" fill="#1B45A1"/><path d="M24.826 219.743a.685.685 0 01-.678-.82.68.68 0 01.193-.351c.152-.148 3.79-3.646 10.556-7.556a77.933 77.933 0 0129.402-9.824.687.687 0 01.728.601.682.682 0 01-.566.754 76.555 76.555 0 00-28.878 9.646c-6.623 3.834-10.252 7.328-10.289 7.361a.681.681 0 01-.468.189z" fill="#65ACE4"/><path d="M344.902 230.036c-3.914-1.542-8.539-3.215-13.397-5.001-23.173-8.55-93.08-18.105-148.833-14.358-15.359 1.032-59.196 6.448-80.497 6.702-23.465.28-11.591 10.623-69.133 12.795-57.542 2.172-31.18 7.966-7.633 13.646 15.509 3.744 59.863 2.553 105.009 1.305-1.348.176-1.191.181.793-.022 7.163-.198 14.341-.395 21.423-.576 26.353.312 64.621 2.833 92.928 3.066 37.663.309 111.683 2.272 118.203-6.39 3.288-4.375-5.654-8.313-18.863-11.167z" fill="#D7E3FF"/><path d="M319.723 120.811c2.171-3.465 1.108-8.025-2.374-10.185s-8.065-1.103-10.235 2.362c-2.171 3.466-1.108 8.026 2.374 10.186s8.065 1.102 10.235-2.363z" fill="url(#paint1_linear)"/><path d="M226.117 221.654v-33.657h-78.353v33.657h-25.469a8.581 8.581 0 00-6.054 2.496 8.499 8.499 0 00-2.508 6.025v2.072c0 .735.293 1.439.815 1.959.522.519 1.23.811 1.968.811h140.855c.738 0 1.445-.292 1.967-.812a2.763 2.763 0 00.816-1.958v-2.072c0-2.26-.902-4.427-2.508-6.025a8.581 8.581 0 00-6.054-2.496h-25.475z" fill="#3B77D9"/><path d="M147.769 211.069l78.349-6.011V190.88l-78.349.827v19.362zm78.349 5.068l-78.349 5.519h78.349v-5.519z" fill="#1F57B5"/><path d="M305.18 47.146H68.706c-2.316 0-4.194 1.868-4.194 4.173v140.197c0 2.305 1.878 4.173 4.194 4.173H305.18c2.316 0 4.194-1.868 4.194-4.173V51.319c0-2.305-1.878-4.173-4.194-4.173z" fill="#153F9C"/><path d="M75.168 53.2h223.55a3.78 3.78 0 012.668 1.1 3.746 3.746 0 011.106 2.656v119.941c0 .996-.398 1.951-1.106 2.656a3.782 3.782 0 01-2.668 1.1H75.168a3.79 3.79 0 01-2.664-1.101 3.747 3.747 0 01-1.105-2.653V56.957c0-.995.397-1.95 1.104-2.654a3.785 3.785 0 012.665-1.103z" fill="#9DD2F2"/><path d="M195.505 186.959h-17.123c-.945 0-1.712.763-1.712 1.705v.512c0 .942.767 1.705 1.712 1.705h17.123c.946 0 1.713-.763 1.713-1.705v-.512c0-.942-.767-1.705-1.713-1.705z" fill="#2A66C6"/><path d="M199.025 224.049h53.718a1.83 1.83 0 011.281.528 1.807 1.807 0 01.53 1.275v.437c0 .478-.191.937-.531 1.275-.34.339-.801.529-1.282.529h-53.716c-.48 0-.941-.19-1.28-.528a1.798 1.798 0 01-.531-1.275v-.438a1.793 1.793 0 01.531-1.275c.168-.167.368-.3.587-.391.22-.09.456-.137.693-.137z" fill="#79C3F0"/><path d="M189.082 65.208c12.252 0 28.349-4.587 33.322-6.098.753-.228 1.528.283 1.528 1.007v33.911c0 26.205-34.317 47.448-34.317 47.448s-34.317-21.243-34.317-47.448v-32.34c0-.694.719-1.2 1.454-1.025 4.734 1.129 20.083 4.545 32.33 4.545z" fill="#99A8C2" opacity=".3"/><path d="M186.436 62.301c11.643 0 26.941-4.36 31.665-5.795.714-.219 1.453.267 1.453.955v32.228c0 24.901-32.61 45.088-32.61 45.088s-32.613-20.187-32.613-45.088V58.956c0-.661.683-1.142 1.385-.975 4.496 1.07 19.08 4.32 30.72 4.32z" fill="#1B45A1"/><path d="M186.943 67.602c8.735 0 19.595-2.85 25.04-5.1 1.627-.67 3.471.415 3.471 2.044v25.862c0 21.777-28.519 39.43-28.519 39.43s-28.519-17.653-28.519-39.43V65.67c0-1.564 1.709-2.648 3.317-2.101 5.41 1.834 16.392 4.032 25.21 4.032z" fill="#316CCC"/><path d="M187.243 74.618v48.34s-22.681-14.384-22.681-31.473v-19.59c0-1.14 1.252-1.928 2.423-1.525 4.236 1.465 13.21 4.248 20.258 4.248zm.001-.001v48.341s23.491-14.384 23.491-31.473V71.85c0-1.126-1.228-1.92-2.393-1.536-4.395 1.449-13.959 4.302-21.098 4.302z" fill="#79C3F0"/><path style="mix-blend-mode:overlay" d="M163.309 89.373c3.008 9.766 4.714 25.182 5.512 34.297-8.41-7.803-16.759-17.007-17.179-21.816-.527-6.016-1.559-23.362-1.38-35.42 3.477 4.11 9.871 12.634 13.047 22.939z" fill="url(#paint2_linear)"/><path d="M309.374 74.084h-59.645a1.723 1.723 0 00-1.21.5c-.321.32-.502.752-.503 1.204v8.663c.001.452.182.885.503 1.204.321.32.756.499 1.21.5h59.645V74.083z" fill="#99A8C2" opacity=".5"/><path d="M326.928 70.108h-81.194c-.946 0-1.713.763-1.713 1.704v8.662c0 .941.767 1.704 1.713 1.704h81.194c.946 0 1.713-.763 1.713-1.704v-8.662c0-.941-.767-1.704-1.713-1.704z" fill="#316CCC"/><path d="M325.096 72.285h-77.531a1.33 1.33 0 00-1.333 1.326v5.066a1.33 1.33 0 001.333 1.326h77.531a1.33 1.33 0 001.333-1.326V73.61a1.33 1.33 0 00-1.333-1.326z" fill="#fff"/><path d="M255.337 78.534a.647.647 0 01-.647-.643v-3.833a.643.643 0 01.647-.643.642.642 0 01.646.643v3.836a.642.642 0 01-.646.64z" fill="#316CCC"/><path d="M257.488 77.377a.645.645 0 01-.889.184l-3.231-2.108a.641.641 0 01.246-1.12.648.648 0 01.46.051l3.231 2.108a.64.64 0 01.183.886z" fill="#316CCC"/><path d="M253.236 77.433a.64.64 0 01.161-.891l3.172-2.183a.647.647 0 01.951.645.646.646 0 01-.22.406l-3.171 2.183a.649.649 0 01-.893-.16zm11.137 1.101a.642.642 0 01-.646-.643v-3.833a.642.642 0 01.646-.643.647.647 0 01.647.643v3.836a.643.643 0 01-.647.64z" fill="#316CCC"/><path d="M266.521 77.378a.65.65 0 01-.891.183l-3.221-2.108a.65.65 0 01-.34-.675.64.64 0 01.539-.531.647.647 0 01.507.137l3.221 2.108a.64.64 0 01.185.886z" fill="#316CCC"/><path d="M262.259 77.432a.64.64 0 01.161-.89l3.17-2.183a.648.648 0 011.051.635.658.658 0 01-.319.416l-3.17 2.183a.65.65 0 01-.893-.16zm11.145 1.102a.648.648 0 01-.646-.643v-3.833a.642.642 0 01.646-.643.648.648 0 01.646.643v3.836a.642.642 0 01-.646.64z" fill="#316CCC"/><path d="M275.551 77.377a.645.645 0 01-.889.184l-3.231-2.108a.641.641 0 01.246-1.12.648.648 0 01.46.051l3.231 2.108a.64.64 0 01.183.886z" fill="#316CCC"/><path d="M271.291 77.433a.642.642 0 01.161-.89l3.17-2.184a.65.65 0 01.841.198.641.641 0 01-.109.853l-3.171 2.183a.65.65 0 01-.892-.16zm11.145 1.101a.642.642 0 01-.646-.643v-3.833a.637.637 0 01.161-.5.638.638 0 01.481-.215.65.65 0 01.616.448.637.637 0 01.027.267v3.836a.644.644 0 01-.639.64z" fill="#316CCC"/><path d="M284.577 77.378a.645.645 0 01-.89.183l-3.221-2.108a.646.646 0 01-.341-.675.642.642 0 01.54-.531.648.648 0 01.507.137l3.221 2.108a.644.644 0 01.184.886z" fill="#316CCC"/><path d="M280.322 77.432a.644.644 0 01.162-.89l3.169-2.183a.648.648 0 011.051.635.642.642 0 01-.319.416l-3.17 2.183a.647.647 0 01-.893-.16zm11.145 1.102a.646.646 0 01-.646-.643v-3.833a.646.646 0 011.293 0v3.836a.643.643 0 01-.647.64z" fill="#316CCC"/><path d="M293.624 77.378a.647.647 0 01-.89.183l-3.222-2.108a.642.642 0 01.468-1.191.647.647 0 01.238.122l3.222 2.108a.644.644 0 01.184.886z" fill="#316CCC"/><path d="M289.354 77.433a.644.644 0 01.162-.891l3.17-2.183a.647.647 0 01.951.645.646.646 0 01-.22.406l-3.171 2.183a.648.648 0 01-.892-.16zm14.663-.179h-5.427a.414.414 0 00-.415.413v.026c0 .228.186.413.415.413h5.427a.414.414 0 00.415-.413v-.026a.414.414 0 00-.415-.413zm9.216 0h-5.426a.414.414 0 00-.415.413v.026c0 .228.185.413.415.413h5.426c.23 0 .416-.185.416-.413v-.026a.414.414 0 00-.416-.413zm8.786 0h-5.427a.414.414 0 00-.415.413v.026c0 .228.186.413.415.413h5.427a.414.414 0 00.415-.413v-.026a.414.414 0 00-.415-.413z" fill="#316CCC"/><path d="M125.975 115.675l-19.611 19.514a1.725 1.725 0 01-2.423 0l-19.614-19.514a1.709 1.709 0 010-2.411l19.61-19.519a1.727 1.727 0 012.424 0l19.614 19.515a1.71 1.71 0 010 2.415z" fill="#fff"/><path d="M124.529 115.59l-18.255 18.166a1.605 1.605 0 01-2.262 0L85.757 115.59a1.591 1.591 0 010-2.251l18.255-18.166a1.604 1.604 0 012.262 0l18.255 18.166a1.58 1.58 0 01.347 1.735 1.58 1.58 0 01-.347.516z" fill="#79C3F0"/><path d="M124.798 112.687H85.507c-.88 0-1.593.709-1.593 1.585v23.248a1.59 1.59 0 001.593 1.585h39.291c.879 0 1.592-.71 1.592-1.585v-23.248c0-.876-.713-1.585-1.592-1.585z" fill="#fff"/><path opacity=".3" d="M126.39 114.154c0-.804.067-.804-.744-1.317a2.262 2.262 0 00-.849-.16c-42.134 0-39.562-.076-40.14.16-.785.499-.743.483-.743 1.317.184.362-1.186-.584 20.032 12.896a2.472 2.472 0 002.423 0c21.206-13.48 19.837-12.536 20.021-12.896z" fill="#79C3F0"/><path d="M122.905 133.226H108.58a.43.43 0 110-.859h14.325a.43.43 0 110 .859zm.001 1.85h-14.325a.434.434 0 01-.407-.43.434.434 0 01.407-.43h14.325a.43.43 0 010 .86z" fill="#3973CF"/><path d="M111.982 59.969c-2.622 0-5.185-.774-7.366-2.224a13.206 13.206 0 01-4.882-5.92 13.134 13.134 0 01-.755-7.622 13.173 13.173 0 013.628-6.755 13.284 13.284 0 016.788-3.61 13.318 13.318 0 017.66.75 13.24 13.24 0 015.949 4.86 13.145 13.145 0 012.235 7.328 13.173 13.173 0 01-3.888 9.324 13.303 13.303 0 01-9.369 3.869zm0-24.454c-2.239 0-4.428.66-6.29 1.899a11.275 11.275 0 00-4.168 5.056 11.22 11.22 0 002.458 12.276 11.335 11.335 0 005.797 3.08c2.197.433 4.473.209 6.541-.645a11.302 11.302 0 005.077-4.153 11.22 11.22 0 001.903-6.26 11.247 11.247 0 00-3.321-7.955 11.357 11.357 0 00-7.997-3.298z" fill="#FB8627"/><path d="M111.982 52.23a5.502 5.502 0 01-3.045-.92 5.461 5.461 0 01-2.018-2.447 5.43 5.43 0 011.188-5.943 5.505 5.505 0 015.972-1.182 5.475 5.475 0 012.459 2.009c.602.897.924 1.95.924 3.03a5.455 5.455 0 01-1.609 3.852 5.507 5.507 0 01-3.871 1.6zm0-8.978c-.701 0-1.385.207-1.968.594a3.53 3.53 0 00-1.304 1.582 3.516 3.516 0 00.768 3.84 3.557 3.557 0 003.859.764 3.537 3.537 0 001.589-1.298c.389-.58.597-1.26.597-1.958a3.528 3.528 0 00-1.041-2.488 3.562 3.562 0 00-2.5-1.036z" fill="#FB8627"/><path d="M127.719 47.74h-31.61a.971.971 0 01-.686-.282.962.962 0 01.686-1.646h31.61c.257 0 .504.101.686.282a.962.962 0 010 1.364.974.974 0 01-.686.283z" fill="#FB8627"/><path d="M111.981 62.557a.97.97 0 01-.969-.965V31.674a.97.97 0 011.938 0v29.918a.97.97 0 01-.969.965zM90.4 94.695c-2.315 0-4.579-.683-6.504-1.963a11.661 11.661 0 01-4.311-5.228 11.596 11.596 0 01-.666-6.73 11.632 11.632 0 013.204-5.965 11.723 11.723 0 015.993-3.188 11.76 11.76 0 016.764.663 11.693 11.693 0 015.253 4.29 11.611 11.611 0 011.973 6.472 11.634 11.634 0 01-3.433 8.233 11.75 11.75 0 01-8.273 3.416zm0-21.368c-1.932 0-3.82.57-5.427 1.638a9.73 9.73 0 00-3.597 4.362 9.676 9.676 0 00-.556 5.616 9.704 9.704 0 002.673 4.976 9.782 9.782 0 005.001 2.66 9.811 9.811 0 005.644-.553 9.758 9.758 0 004.383-3.58 9.686 9.686 0 001.646-5.4 9.707 9.707 0 00-2.864-6.87 9.803 9.803 0 00-6.903-2.85z" fill="#FB8627"/><path d="M90.4 87.932a4.928 4.928 0 01-2.729-.824 4.891 4.891 0 01-1.809-2.194 4.865 4.865 0 011.066-5.326 4.934 4.934 0 015.353-1.058 4.9 4.9 0 012.203 1.8 4.87 4.87 0 01-.613 6.17 4.927 4.927 0 01-3.471 1.432zm0-7.844a2.98 2.98 0 00-1.651.499 2.945 2.945 0 00-.45 4.551 2.977 2.977 0 003.239.641 2.97 2.97 0 001.334-1.09 2.947 2.947 0 00-.37-3.734 2.981 2.981 0 00-2.102-.867z" fill="#FB8627"/><path d="M104.151 84.01H76.525a.971.971 0 01-.685-.282.962.962 0 01.685-1.646h27.626a.97.97 0 01.969.964.97.97 0 01-.969.965z" fill="#FB8627"/><path d="M90.4 96.957a.972.972 0 01-.686-.282.962.962 0 01-.284-.682V69.849c0-.255.102-.5.284-.682a.972.972 0 011.655.682v26.144a.962.962 0 01-.284.682.972.972 0 01-.685.282z" fill="#FB8627"/><path d="M273.6 139.452h-59.156c-.644 0-1.166.52-1.166 1.161v25.331c0 .642.522 1.161 1.166 1.161H273.6c.644 0 1.166-.519 1.166-1.161v-25.331c0-.641-.522-1.161-1.166-1.161z" fill="#3AA1E0"/><path d="M272.145 146.717h-56.243a.94.94 0 00-.942.937v17.215a.94.94 0 00.942.937h56.243a.94.94 0 00.941-.937v-17.215a.938.938 0 00-.941-.937zm-54.446-5.23h-1.365a.521.521 0 00-.522.52v1.118c0 .287.234.52.522.52h1.365a.52.52 0 00.522-.52v-1.118a.52.52 0 00-.522-.52zm4.38 0h-1.365a.521.521 0 00-.522.52v1.118c0 .287.234.52.522.52h1.365a.52.52 0 00.522-.52v-1.118a.52.52 0 00-.522-.52zm4.38 0h-1.365a.52.52 0 00-.522.52v1.118c0 .287.233.52.522.52h1.365a.521.521 0 00.522-.52v-1.118a.521.521 0 00-.522-.52z" fill="#fff"/><path d="M270.719 150.9h-30.745a.921.921 0 01-.959-.915c0-.124.025-.246.073-.36a.923.923 0 01.886-.556h30.745c.237.01.462.111.626.281a.913.913 0 010 1.269.921.921 0 01-.626.281zm-23.124 14.122h-30.747a.922.922 0 01-.882-.916.922.922 0 01.882-.916h30.747c.237.01.461.111.626.282a.915.915 0 01-.626 1.55zm5.664-1.832h-3.181a.315.315 0 00-.315.314v1.204c0 .173.141.314.315.314h3.181a.315.315 0 00.315-.314v-1.204a.315.315 0 00-.315-.314zm4.796 0h-3.181a.315.315 0 00-.315.314v1.204c0 .173.141.314.315.314h3.181a.315.315 0 00.315-.314v-1.204a.315.315 0 00-.315-.314zm12.96-8.301H220.1a.623.623 0 010-1.243h50.915a.623.623 0 010 1.243zm0 2.679H220.1a.626.626 0 01-.593-.621.619.619 0 01.593-.621h50.915a.626.626 0 01.593.621.619.619 0 01-.593.621z" fill="#3AA1E0"/><path d="M240.942 108.647h-4.425a3.475 3.475 0 01-2.444-1.01 3.433 3.433 0 01-1.013-2.432v-4.402c0-.912.365-1.787 1.013-2.432a3.47 3.47 0 012.444-1.01h4.425a3.472 3.472 0 012.444 1.01 3.437 3.437 0 011.013 2.432v4.402a3.437 3.437 0 01-1.013 2.432 3.477 3.477 0 01-2.444 1.01zm-4.425-9.357a1.516 1.516 0 00-1.519 1.513v4.402a1.515 1.515 0 001.519 1.512h4.425c.403-.001.788-.16 1.073-.444.285-.283.445-.668.445-1.068v-4.402c0-.401-.16-.785-.445-1.069a1.525 1.525 0 00-1.073-.444h-4.425z" fill="#316CCC"/><path opacity=".8" d="M240.942 127.517h-4.425a3.637 3.637 0 01-2.558-1.056 3.598 3.598 0 01-1.061-2.545v-4.404a3.598 3.598 0 011.061-2.545 3.633 3.633 0 012.558-1.056h4.425a3.63 3.63 0 012.557 1.056 3.598 3.598 0 011.061 2.545v4.404a3.598 3.598 0 01-1.061 2.545 3.635 3.635 0 01-2.557 1.056zm-4.425-9.355a1.36 1.36 0 00-1.357 1.35v4.404a1.36 1.36 0 001.357 1.35h4.425a1.352 1.352 0 001.357-1.35v-4.404a1.352 1.352 0 00-1.357-1.35h-4.425z" fill="#316CCC"/><path d="M239.007 106.169h-.047a.963.963 0 01-.722-.378l-3.181-4.127a.95.95 0 01-.192-.713.965.965 0 011.089-.83.968.968 0 01.642.37l2.483 3.223 6.96-7.422a.974.974 0 011.371-.048.964.964 0 01.048 1.364l-7.744 8.256a.962.962 0 01-.707.305zm0 18.712h-.047a.977.977 0 01-.722-.377l-3.181-4.126a.964.964 0 01.897-1.544.971.971 0 01.642.37l2.483 3.215 6.96-7.422a.971.971 0 011.679.625.963.963 0 01-.26.691l-7.744 8.254a.966.966 0 01-.707.314z" fill="#FB8627"/><path d="M251.805 101.975h33.419c.142.005.285-.018.418-.068a1.044 1.044 0 00.683-.986 1.046 1.046 0 00-.325-.76 1.057 1.057 0 00-.776-.294h-33.419a1.058 1.058 0 00-1.018 1.054 1.053 1.053 0 001.018 1.054zm-.001 4.125h24.857a1.059 1.059 0 001.058-1.053 1.053 1.053 0 00-1.058-1.053h-24.857a1.053 1.053 0 100 2.106zm.001 14.609h33.419a1.065 1.065 0 001.016-.641 1.05 1.05 0 00-.598-1.399 1.065 1.065 0 00-.418-.068h-33.419a1.058 1.058 0 00-1.018 1.054 1.053 1.053 0 001.018 1.054zm-.001 4.122h29.277a1.059 1.059 0 001.058-1.053 1.053 1.053 0 00-1.058-1.053h-29.277a1.053 1.053 0 100 2.106z" fill="#316CCC"/><path d="M182.055 142.566h-36.414a.618.618 0 00-.619.616v20.193c0 .34.277.616.619.616h36.414a.617.617 0 00.618-.616v-20.193a.617.617 0 00-.618-.616z" fill="#3AA1E0"/><path d="M181.271 143.51h-34.847a.575.575 0 00-.576.574v18.39c0 .317.258.573.576.573h34.847a.574.574 0 00.577-.573v-18.39a.575.575 0 00-.577-.574z" fill="#fff"/><path d="M180.203 144.706h-32.711a.648.648 0 00-.649.646v15.85c0 .357.291.646.649.646h32.711c.359 0 .65-.289.65-.646v-15.85a.648.648 0 00-.65-.646z" fill="#3AA1E0"/><path d="M163.848 159.226c3.301 0 5.977-2.663 5.977-5.948 0-3.285-2.676-5.948-5.977-5.948-3.302 0-5.978 2.663-5.978 5.948 0 3.285 2.676 5.948 5.978 5.948z" fill="#fff"/><path d="M163.848 158.4c2.842 0 5.147-2.293 5.147-5.122 0-2.829-2.305-5.122-5.147-5.122-2.843 0-5.147 2.293-5.147 5.122 0 2.829 2.304 5.122 5.147 5.122z" fill="#3AA1E0"/><path d="M166.384 153.005l-1.881 1.08-1.882 1.08v-4.323l1.882 1.081 1.881 1.082z" fill="#fff"/><path d="M173.15 149.722h-28.128v13.665a.617.617 0 00.617.614h28.128v-13.665a.62.62 0 00-.617-.614z" fill="#99A8C2" opacity=".5"/><path d="M169.867 150.854h-36.414a.617.617 0 00-.619.615v20.194c0 .34.277.616.619.616h36.414a.618.618 0 00.619-.616v-20.194a.617.617 0 00-.619-.615z" fill="#3AA1E0"/><path d="M169.084 151.797h-34.847a.575.575 0 00-.577.574v18.39c0 .317.258.574.577.574h34.847a.575.575 0 00.576-.574v-18.39a.575.575 0 00-.576-.574z" fill="#fff"/><path d="M168.016 152.993h-32.711c-.359 0-.65.29-.65.646v15.85c0 .357.291.646.65.646h32.711a.647.647 0 00.649-.646v-15.85a.648.648 0 00-.649-.646z" fill="#3AA1E0"/><path d="M151.66 167.513c3.301 0 5.977-2.663 5.977-5.948 0-3.285-2.676-5.948-5.977-5.948s-5.977 2.663-5.977 5.948c0 3.285 2.676 5.948 5.977 5.948z" fill="#fff"/><path d="M156.805 161.565a5.109 5.109 0 01-.867 2.846 5.152 5.152 0 01-5.284 2.178 5.16 5.16 0 01-2.636-1.402 5.114 5.114 0 01-1.115-5.583 5.123 5.123 0 011.897-2.298 5.166 5.166 0 016.499.638 5.102 5.102 0 011.506 3.621z" fill="#3AA1E0"/><path d="M154.197 161.292l-1.881 1.08-1.882 1.082v-4.325l1.882 1.081 1.881 1.082z" fill="#fff"/><path d="M121.857 176.907v-7.363a1.857 1.857 0 00-.548-1.309 1.875 1.875 0 00-1.315-.545H64.512v11.071h55.482a1.875 1.875 0 001.315-.545c.349-.347.546-.818.548-1.309zm-1.863-25.661H64.512v11.068h55.482a1.866 1.866 0 001.863-1.853v-7.363a1.855 1.855 0 00-.548-1.308 1.872 1.872 0 00-1.315-.544z" fill="#99A8C2" opacity=".5"/><path d="M116.891 148.156h-56.32c-1.029 0-1.863.83-1.863 1.853v7.362c0 1.024.834 1.853 1.863 1.853h56.32a1.858 1.858 0 001.863-1.853v-7.362a1.858 1.858 0 00-1.863-1.853z" fill="#1B45A1"/><path d="M114.388 149.717H63.07c-.83 0-1.501.668-1.501 1.493v4.962c0 .824.672 1.493 1.5 1.493h51.319c.829 0 1.501-.669 1.501-1.493v-4.962c0-.825-.672-1.493-1.501-1.493z" fill="#fff"/><path d="M116.891 164.602h-56.32c-1.029 0-1.863.83-1.863 1.854v7.361c0 1.024.834 1.854 1.863 1.854h56.32c1.029 0 1.863-.83 1.863-1.854v-7.361a1.858 1.858 0 00-1.863-1.854z" fill="#1B45A1"/><path d="M114.388 166.162H63.07c-.83 0-1.501.668-1.501 1.493v4.961c0 .825.672 1.494 1.5 1.494h51.319c.829 0 1.501-.669 1.501-1.494v-4.961c0-.825-.672-1.493-1.501-1.493z" fill="#fff"/><path d="M68.177 153.691a1.28 1.28 0 01-.798 1.188 1.298 1.298 0 01-1.409-.279 1.286 1.286 0 01-.28-1.401 1.292 1.292 0 011.194-.794 1.286 1.286 0 011.292 1.286zm4.685-1.286a1.292 1.292 0 00-1.268 1.537 1.284 1.284 0 001.016 1.01 1.298 1.298 0 001.326-.547 1.28 1.28 0 00.218-.714 1.283 1.283 0 00-.379-.903 1.296 1.296 0 00-.907-.377l-.006-.006zm5.977 0a1.292 1.292 0 00-1.267 1.537 1.284 1.284 0 001.015 1.01 1.298 1.298 0 001.327-.547 1.28 1.28 0 00.218-.714 1.285 1.285 0 00-1.288-1.28l-.005-.006zm5.978 0a1.292 1.292 0 00-1.268 1.537 1.286 1.286 0 001.015 1.01 1.298 1.298 0 001.327-.547 1.28 1.28 0 00.218-.714 1.285 1.285 0 00-1.288-1.28l-.004-.006zm5.977 0a1.292 1.292 0 00-1.268 1.537 1.286 1.286 0 001.016 1.01 1.298 1.298 0 001.326-.547 1.28 1.28 0 00.218-.714 1.285 1.285 0 00-.379-.904 1.297 1.297 0 00-.908-.376l-.005-.006zm5.977 0a1.292 1.292 0 00-1.267 1.537 1.286 1.286 0 001.015 1.01 1.298 1.298 0 001.327-.547 1.28 1.28 0 00.218-.714 1.28 1.28 0 00-.38-.904 1.296 1.296 0 00-.91-.376l-.003-.006zm-28.594 17.623a1.28 1.28 0 01-.798 1.188 1.298 1.298 0 01-1.409-.279 1.286 1.286 0 01-.28-1.401 1.293 1.293 0 012.487.492zm4.685-1.286a1.293 1.293 0 00-1.194.794 1.28 1.28 0 00.28 1.401 1.298 1.298 0 001.988-.195 1.28 1.28 0 00.218-.714 1.282 1.282 0 00-.379-.903 1.296 1.296 0 00-.907-.377l-.006-.006zm5.977 0a1.293 1.293 0 00-1.194.794 1.28 1.28 0 00.28 1.401 1.298 1.298 0 001.989-.195 1.28 1.28 0 00.218-.714 1.285 1.285 0 00-1.288-1.28l-.005-.006zm5.978 0a1.294 1.294 0 00-1.194.794 1.28 1.28 0 00.28 1.401 1.298 1.298 0 001.988-.195 1.28 1.28 0 00.218-.714 1.285 1.285 0 00-1.288-1.28l-.004-.006zm5.977 0a1.293 1.293 0 00-1.268 1.537 1.286 1.286 0 001.016 1.01 1.298 1.298 0 001.326-.547 1.28 1.28 0 00.218-.714 1.285 1.285 0 00-.379-.904 1.297 1.297 0 00-.908-.376l-.005-.006zm5.977 0a1.293 1.293 0 00-1.194.794 1.28 1.28 0 00.28 1.401 1.298 1.298 0 001.989-.195 1.28 1.28 0 00.218-.714 1.28 1.28 0 00-.38-.904 1.296 1.296 0 00-.91-.376l-.003-.006zm12.234-13.029c-2.378 0-4.261-1.725-4.339-1.799a.475.475 0 01-.153-.352.472.472 0 01.153-.352c.078-.074 1.961-1.799 4.339-1.799s4.262 1.725 4.341 1.799a.488.488 0 01.154.352.49.49 0 01-.154.352c-.079.074-1.963 1.799-4.341 1.799zm-3.231-2.152c.629.455 1.857 1.188 3.231 1.188 1.375 0 2.606-.732 3.231-1.187-.628-.455-1.856-1.186-3.231-1.186-1.374 0-2.609.731-3.235 1.185h.004z" fill="#1B45A1"/><path d="M109.006 155.509a1.95 1.95 0 01-1.92-2.329 1.943 1.943 0 011.539-1.53 1.962 1.962 0 012.01.829c.215.321.329.698.329 1.083a1.947 1.947 0 01-.575 1.377 1.96 1.96 0 01-1.383.57zm0-2.931a.99.99 0 00-.97 1.176.985.985 0 00.777.773.987.987 0 001.182-.965.989.989 0 00-.989-.984zm-1.445 15.847h-2.428c-.688 0-1.246.555-1.246 1.239v1.039c0 .684.558 1.239 1.246 1.239h2.428c.688 0 1.245-.555 1.245-1.239v-1.039c0-.684-.557-1.239-1.245-1.239z" fill="#1B45A1"/><path d="M112.925 171.264h-8.454a.481.481 0 110-.964h7.969v-1.258a.481.481 0 01.485-.482.481.481 0 01.485.482v1.74a.481.481 0 01-.485.482z" fill="#1B45A1"/><path d="M111.791 171.179a.481.481 0 01-.485-.482v-1.431a.48.48 0 01.485-.482.483.483 0 01.484.482v1.431a.485.485 0 01-.484.482zm-1.772 0a.481.481 0 01-.485-.482v-1.941a.481.481 0 01.485-.482.485.485 0 01.484.482v1.941a.485.485 0 01-.484.482z" fill="#1B45A1"/><path d="M104.832 170.782a.365.365 0 01-.255-.106.357.357 0 01-.106-.254v-.556a.339.339 0 01.02-.145.368.368 0 01.341-.24c.049 0 .098.011.144.03.045.02.086.049.12.085.034.036.06.078.076.125a.355.355 0 01.021.145v.556a.359.359 0 01-.361.36z" fill="#fff"/><path d="M60.075 232.475s-31.732-21.933-45.156-9.284c-10.717 10.098 8.307 21.962 32.645 18.772 17.125-2.25 19.073 1.015 22.075.946 22.328-1.703 52.415-8.36 37.772-18.795-19.945-14.228-33.441.855-40.388 4.609l-6.948 3.752z" fill="#0E3A82"/><path d="M101.101 223.583c-8.34-1.712-40.112 10.013-40.112 10.013s-27.67-8.3-34.288-9.09c-6.619-.789-9.664 1.712-9.664 1.712s3.123-3.503 6.751-3.819c3.629-.317 8.871-1.187 8.871-1.187s52.954-2.503 59.97-.923c7.016 1.581 8.472 3.294 8.472 3.294z" fill="#0F2D5C"/><path d="M56.103 180.91c-1.258.198-20.819 8.681-21.06 12.246-.24 3.564 5.36 32.411 16.188 36.172 10.829 3.76 22.94 0 22.94 0s12.71-31.221 8.936-37.148c-3.774-5.928-20.84-11.263-20.84-11.263l-6.164-.007z" fill="url(#paint3_linear)"/><path d="M41.726 187.622c-18.687 9.967-23.277 27.955-18.335 31.921 3.464 2.778 16.522 8.926 27.84 8.531 11.319-.396 21.949.664 21.949.664s19.415-3.931 23.288-9.722c3.872-5.791-6.871-24.597-16.504-30.035-9.634-5.439-38.238-1.359-38.238-1.359z" fill="url(#paint4_linear)"/><path d="M59.545 192.164a4.725 4.725 0 01-3.316-1.375 4.678 4.678 0 01-1.379-3.3v-15.743c0-1.24.495-2.429 1.377-3.306a4.711 4.711 0 016.646 0 4.663 4.663 0 011.376 3.306v15.743a4.678 4.678 0 01-1.382 3.303 4.73 4.73 0 01-3.322 1.372z" fill="#F09959"/><path d="M59.545 167.07a4.722 4.722 0 00-3.316 1.375 4.678 4.678 0 00-1.379 3.301v12.873c2.77 2.304 5.454 1.096 9.4-1.947V171.74a4.679 4.679 0 00-1.385-3.301 4.724 4.724 0 00-3.32-1.369z" fill="#E38540"/><path d="M69.86 172.389c-.773 1.569-2.028 2.439-2.802 1.944-.774-.495-.777-2.17 0-3.74.777-1.569 2.026-2.438 2.801-1.942.776.497.773 2.163 0 3.738zm-18.184-1.684c.893 1.427 1.064 3.152.382 3.858-.681.706-1.958.111-2.851-1.317-.893-1.427-1.065-3.152-.383-3.858.682-.706 1.958-.111 2.852 1.317z" fill="#F09959"/><path d="M67.839 172.282c0 5.72-3.619 10.356-8.078 10.356s-8.077-4.636-8.077-10.356 3.618-10.357 8.077-10.357 8.078 4.637 8.078 10.357z" fill="#F09959"/><path d="M77.38 197.916c5.294 2.81 9.91 13.459 9.91 13.459s-11.915 1.845-14.378 3.697c-2.464 1.852.354-.702 1.766-5.797 1.412-5.094 2.702-11.359 2.702-11.359zm-36.866-.769c1.236 5.627 7.149 21.314 7.149 21.314s-5.477-6.207-11.298-6.559c-5.82-.352-7.979-.439-7.943.965.008.278.97-6.237 5.472-10.277 4.502-4.04 6.62-5.443 6.62-5.443z" fill="#FB8627"/><path d="M76.013 232.535h-31.98a2.64 2.64 0 01-1.703-.622 2.618 2.618 0 01-.897-1.57l-3.856-22.897a2.614 2.614 0 01.59-2.127 2.64 2.64 0 012.01-.928h39.687a2.635 2.635 0 012.011.928 2.627 2.627 0 01.59 2.127l-3.856 22.897a2.621 2.621 0 01-.895 1.569 2.65 2.65 0 01-1.701.623z" fill="#2A66C6"/><path d="M76.013 232.535H44.034a2.62 2.62 0 01-1.681-.587 2.593 2.593 0 01-.912-1.523l-3.856-22.071c-.268-1.542.97-2.947 2.601-2.947h39.679c1.63 0 2.869 1.405 2.6 2.947l-3.856 22.071a2.594 2.594 0 01-.912 1.524 2.62 2.62 0 01-1.684.586z" fill="url(#paint5_linear)"/><path d="M64.244 241.555c-.192-.032-20.65-5.128-25.218-1.374-4.567 3.754 15.29 3.818 18.864 2.996a133.027 133.027 0 006.354-1.622zm4.567.913s4.362-3.275 10.126-2.681c5.764.593 10.724 1.842 5.76 3.39-4.965 1.548-10.128 1.746-12.511 1.548-2.383-.197-3.375-2.257-3.375-2.257zm-11.635-84.785c-5.25 1.585-3.423 16.293 2.585 15.808 6.008-.486 6.245-6.844 5.816-10.963-.43-4.119-2.984-6.48-8.401-4.845z" fill="#0F2D5C"/><path d="M55.29 168.586c-1.455-1.394-3.47 2.99-2.68 4.918.792 1.927-.314 3.054.757 5.122 1.07 2.067-1.973-1.319-2.4-3.802-.426-2.484-.67-6.783-1.277-8.722-.607-1.939.03-5.305 2.746-5.996 2.716-.692 3.343-1.939 4.378-1.999 1.036-.059 5.965.423 8.401 1.756s3.774 3.331 3.591 6.36c-.182 3.029-.969 10.782-1.704 12.057-.735 1.275-1.108.965-.889.243.22-.722 1.01-5.088.403-6.664-.608-1.575-.306-5.451-1.887-5.754-1.582-.302-1.218 2.383-3.105 2.584-1.887.201-6.335-.103-6.335-.103zm236.43 65.026s-1.273 4.892-5.605 6.128c-4.331 1.236-8.554 3.633-2.468 3.707 6.675.081 10.501-.231 13.276-.694 2.776-.463.957-5.331.516-7.648-.441-2.316-5.719-1.493-5.719-1.493zm35.473-3.177s.853 9.003-1.32 9.768c-2.173.766-4.658 2.627-1.553 2.627 3.106 0 6.947.73 7.952-2.627 1.226-4.093 3.997-4.784 3.01-6.868-.987-2.083-3.976-5.948-3.976-5.948l-4.113 3.048z" fill="#0F2D5C"/><path d="M281.889 135.743l8.572 99.943s4.452 2.048 7.663 2.356c3.21.309 9.854-43.708 9.284-52.031-.57-8.323 5.801-34.754 4.326-43.321-1.475-8.567-29.845-6.947-29.845-6.947z" fill="#0E3A82"/><path d="M299.041 136.314a63.095 63.095 0 00-1.824-.217l-14.809 5.702 2.732 31.849c7.097 15.523 14.877 29.621 19.143 39.093 1.939-11.265 3.393-22.859 3.125-26.73-.27-4.008 1.065-12.218 2.357-20.607l-10.724-29.09z" fill="#0F2D5C"/><path d="M286.115 152.059c8.317 36.761 40.983 81.553 40.95 81.553-.032 0 6.109-1.056 6.419-3.836.31-2.78-3.488-30.465-11.793-38.513-8.306-8.048-8.886-46.258-8.886-46.258l-26.69 7.054z" fill="#0E3A82"/><path d="M305.709 100.669c9.348 9.355 15.348 25.443 15.425 29.42.078 3.978-10.778 11.085-10.778 11.085l-4.647-40.505z" fill="#FB8627"/><path d="M295.193 80.024l3.701 18.329-10.123 10.846-1.347-22.227 7.769-6.948z" fill="#F09959"/><path d="M298.894 92.637s4.775 1.668 10.09 15.093c5.316 13.425 9.007 46.512 9.007 46.512s-10.212 8.629-24.832 8.624c-9.317 0-14.021-2.09-14.021-2.09s-.931-31.189 0-42.442c.93-11.254 15.144-25.981 19.756-25.697z" fill="url(#paint6_linear)"/><path d="M291.304 95.45c3.008-3.488 4.125-8.816 4.538-12.208l-.585-2.893-.752.292-7.081 6.334.693 11.436a17.969 17.969 0 003.187-2.962z" fill="#E38540"/><path d="M292.879 84.063c-1.161 5.454-5.493 9.163-9.693 8.277-4.2-.886-6.645-6.024-5.483-11.478 1.162-5.455 5.501-9.164 9.693-8.278 4.192.886 6.646 6.022 5.483 11.478z" fill="#F09959"/><path d="M297.464 88.496l3.171 5.333-16.811 12.507s1.265-5.797 1.606-7.929c.341-2.131 11.768-10.36 12.034-9.91z" fill="url(#paint7_linear)"/><path d="M277.553 68.878c-7.06 2.209-1.292 11.064.979 11.146 2.272.082 3.097-2.023 4.96-1.539 1.863.484 3.622-2.81 4.761-2.09 1.139.72.413 7.415 0 8.548-.414 1.134 1.454 1.237 1.454 1.237s.759-4.738 1.938-4.43c1.18.31 2.044 3.605 3.731 4.43l1.686.823s1.034-7.15 2.585-8.52c1.551-1.372.58-6.11-1.625-7.033-2.205-.922-2.737-5.144-5.782-5.466-3.045-.321-5.53 1.751-9.566 1.237-4.035-.515-3.145 1.04-5.121 1.657z" fill="#153F9C"/><path d="M294.661 82.911c-.581 1.36-1.872 2.116-2.887 1.687-1.014-.43-1.361-1.878-.782-3.238.58-1.36 1.875-2.116 2.887-1.688 1.013.428 1.361 1.886.782 3.24z" fill="#F09959"/><path d="M302.33 102.608s-17.323 19.173-23.561 25.103c-.084 5.521-.04 11.955.04 17.673 3.38-1.656 12.763-6.493 18.114-11.622 6.599-6.334 9.544-20.856 5.407-31.154z" fill="#FB8627"/><path d="M258.033 126.12s-4.144-5.104-5.797-4.614c-1.652.49-2.276.571-3.725.492-1.449-.079-1.553 2.005.517 5.752 2.069 3.747 7.659 4.501 9.005 4.431 1.345-.071 0-6.061 0-6.061z" fill="#F09959"/><path d="M300.396 98.407c6.7 1.769 4.524 18.673.744 25.65-2.713 5.016-11.778 10.128-17.316 11.564-5.538 1.436-27.518-2.855-27.518-2.855s-.884-7.878.788-7.878c1.672 0 19.47.852 24.8-3.94 5.329-4.792 10.412-24.682 18.502-22.54z" fill="url(#paint8_linear)"/><path d="M252.677 125.022a.977.977 0 01-.772-.38l-3.588-4.676a.965.965 0 01.899-1.543.968.968 0 01.642.371l3.588 4.678c.11.143.177.313.194.492a.953.953 0 01-.452.912.978.978 0 01-.511.146z" fill="#FB8627"/><mask id="a" maskUnits="userSpaceOnUse" x="175" y="80" width="25" height="29"><path d="M187.443 108.093c-3.971 0-6.995-1.007-9.071-3.02-2.05-2.013-3.076-4.955-3.076-8.826V83.743c0-1.058.312-1.897.935-2.516.649-.646 1.505-.968 2.569-.968s1.908.322 2.531.968c.649.619.973 1.458.973 2.516v12.775c0 1.961.442 3.471 1.324 4.529.882 1.058 2.154 1.588 3.815 1.588 1.662 0 2.933-.53 3.816-1.588.882-1.058 1.324-2.568 1.324-4.529V83.743c0-1.058.311-1.897.934-2.516.649-.646 1.505-.968 2.569-.968 1.065 0 1.921.322 2.57.968.649.619.973 1.458.973 2.516v12.504c0 3.845-1.051 6.788-3.153 8.826-2.077 2.013-5.087 3.02-9.033 3.02z" fill="#fff"/></mask><g mask="url(#a)"><path d="M187.443 108.093c-3.971 0-6.995-1.007-9.071-3.02-2.05-2.013-3.076-4.955-3.076-8.826V83.743c0-1.058.312-1.897.935-2.516.649-.646 1.505-.968 2.569-.968s1.908.322 2.531.968c.649.619.973 1.458.973 2.516v12.775c0 1.961.442 3.471 1.324 4.529.882 1.058 2.154 1.588 3.815 1.588 1.662 0 2.933-.53 3.816-1.588.882-1.058 1.324-2.568 1.324-4.529V83.743c0-1.058.311-1.897.934-2.516.649-.646 1.505-.968 2.569-.968 1.065 0 1.921.322 2.57.968.649.619.973 1.458.973 2.516v12.504c0 3.845-1.051 6.788-3.153 8.826-2.077 2.013-5.087 3.02-9.033 3.02z" fill="#fff"/><path d="M180.041 107.611c-.004-.002-.009-.001-.011.003-.003.004-.001.009.004.01l.003.001c.01.003.014-.008.005-.013l-.001-.001z" fill="url(#paint9_linear)"/><path d="M179.085 86.414a.019.019 0 01-.004-.006c-.014-.029.004-.063.035-.072.194-.055.223-.207.398-.266.219-.071.144.007.359 0 .074-.003.136.018.197.036.087.026.149.138.077.191-.164.116-.332.235-.527.28-.194.044-.421-.002-.535-.163z" fill="url(#paint10_linear)"/><g filter="url(#filter0_d)"><path d="M182.108 99.816c-.004.132-.083.248-.151.36a3.645 3.645 0 00-.529 1.644c-.041.554-.016 1.238-.502 1.511-.277.153-.667.126-.852.385-.058.078-.085.177-.112.269l-.35 1.262a.041.041 0 01-.044.031c-.051-.005-.191.233-.191.284a.256.256 0 01-.018.099c-.01.025-.04.032-.066.024-.167-.054-.367.05-.456.21-.092.173-.079.384-.028.575.1.354.328.665.625.882.268.195.277.44.002.254a7.008 7.008 0 01-2.78-3.771c-.161-.537-.264-1.109-.58-1.571-.263-.391-.66-.677-.924-1.067-.369-.561-.438-1.29-.866-1.802-.239-.293-.609-.652-.397-.966.085-.129.267-.251.195-.388-.024-.044-.072-.071-.11-.109-.144-.153-.045-.394.027-.592.231-.665-.272-1.308-.606-1.927a2.984 2.984 0 01-.147-.314c-.089-.228-.202-.504-.409-.59-.075-.03-.15-.077-.178-.153l-.127-.35c-.02-.052-.118-.065-.169-.042-.035.015-.07-.016-.068-.054a14.907 14.907 0 013.687-8.802.949.949 0 01.251-.196c.516-.3.927-.749 1.426-1.075.102-.068.219-.133.346-.12.123.01.239.136.195.251a.261.261 0 01-.1.116c-.584.494-1.224.926-1.904 1.284-.082.04-.168.089-.205.17-.069.14.047.313.195.364.156.054.327.263.331.428l.004.059c.009.081.093.142.146.08.053-.064.081-.172.108-.257.088-.274.359-.464.591-.66.253-.215.792-.723.972-1.002.126-.199.391-.395.567-.291.041.024.058.072.063.119l.009.09a.143.143 0 00.177.124l.143-.036c.123-.031.413.293.473.406a.417.417 0 00.087.109c.173.154.364.332.176.469-.302.226-.625.459-.973.59a.096.096 0 00-.054.13l.029.06c.008.016.001.037-.016.037-.247.023-.507-.153-.77-.12-.161.022-.359.022-.452.184-.013.021-.071.306-.03.283l.275-.157c.08-.046.183-.01.192.082.01.1.092.191.191.205a.825.825 0 01.117.025c.116.033.16.168.088.265-.163.218-.42.368-.692.402-.104.013-.187-.075-.191-.18-.005-.104-.088-.193-.189-.167-.252.064-.459.297-.595.53-.17.288-.3.619-.581.802-.17.116-.38.16-.564.255-.181.1-.349.286-.311.487.017.095.079.184.076.282-.01.184-.225.27-.369.388-.246.204-.308.58-.571.759-.191.133-.445.13-.667.198-.196.06-.392.237-.375.425.004.044-.017.091-.06.086-.075-.01-.257-.002-.289.066a7.455 7.455 0 00-.586 1.85c-.042.232.129.454.26.257a.749.749 0 00.113-.286c.074-.422.402-.137.347.287l-.042.318c-.01.065-.017.133.014.19.038.072.12.102.182.153.174.15.151.415.161.643a1.6 1.6 0 00.189.681c.009.017.036.006.032-.013-.003-.01.007-.02.018-.02.26.027.527-.06.723-.231.106-.095.195-.218.328-.266.138-.05.288-.014.428.024.435.119.897.251 1.187.591.147.173.24.392.415.534.397.333 1.068.186 1.431.557.217.224.241.55.207.873-.017.16-.234.273-.344.389-.11.115.045.156.188.086a.318.318 0 01.142-.035c.054 0 .512.121.566.117.253-.018.529.108.633.338a.147.147 0 00.116.09l.384.026c.371.027.747.377 1.072.557.315.175.703.324.69.649z" fill="url(#paint11_linear)"/></g><path d="M179.776 84.078a.307.307 0 01-.406-.164.303.303 0 01.21-.382c.102-.024.243-.012.274-.111.009-.03.004-.063.004-.094-.004-.187.163-.341.344-.388a.97.97 0 01.383-.006c.109.017.207.09.228.198a.646.646 0 01.012.107c.004.097-.081.166-.178.17-.118.005-.204.106-.218.223-.017.146-.069.281-.199.333-.174.069-.402-.06-.547.057" fill="url(#paint12_linear)"/><path d="M181.736 82c.344-.164.635-.421.974-.595.583-.297 1.263-.324 1.918-.344l3.292-.102c.297-.01.404.388.144.53-.224.122-.472.246-.72.25-.099 0-.194.072-.153.162.064.14.068.434-.084.452-.524.06-1.116-.091-1.595.143-.271.133-.49.383-.788.43-.172.028-.351-.018-.523.02-.286.061-.467.332-.679.533-.244.233-.603.392-.922.28-.319-.11-.486-.582-.23-.802.126-.109.305-.127.454-.203.149-.075.266-.278.154-.4-.048-.055-.127-.075-.172-.133-.048-.062-.043-.15-.083-.218-.152-.264-.573.091-.86-.015" fill="url(#paint13_linear)"/><path d="M186.265 83.251c.201-.046.376-.165.565-.251.054-.025.112-.047.171-.064.271-.076.449.234.184.327a1.705 1.705 0 01-.836.073" fill="url(#paint14_linear)"/><g filter="url(#filter1_d)"><path d="M198.572 84.874c-.073-.08-.183-.112-.288-.137-.257-.055-.452-.252-.671-.395a1.795 1.795 0 00-1.26-.259c-.135.022-.324-.184-.309-.32.004-.036.006-.073.007-.11 0-.031-.031-.052-.061-.042a.045.045 0 01-.038-.003c-.893-.514-1.936-1.04-2.907-.696-.227.082-.431.205-.66.283-.243.084-.513.12-.721.269-.213.15-.325.48-.143.66.154.153.4.112.616.133a.49.49 0 01.275.127c.151.143-.036.33-.225.418l-1.564.73c-.344.162-.376.859-.328 1.236a.248.248 0 01-.294.276c-.217-.038-.432-.135-.654-.15-.462-.023-.903.381-.913.84-.013.46.411.885.873.878a.988.988 0 00.094-.006c.482-.05 1.036-.576 1.376-.92.431-.43 1.047-.817 1.622-.607.189.068.349.195.507.32l.865.685a.245.245 0 00.327-.02.24.24 0 01.345.004l.3.314a.168.168 0 00.213.024l.057-.036a.115.115 0 01.169.053c.042.107.199.088.213-.026l.006-.042a.123.123 0 01.125-.108c.192.003.387-.007.559-.091.205-.1.356-.344.269-.555-.044-.112-.15-.2-.171-.32-.044-.238.297-.401.52-.293a.668.668 0 01.272.268c.055.09.2.078.223-.026.022-.105.171-.118.216-.02.086.186.183.368.289.543.144.236-.064.597-.34.606a3.773 3.773 0 00-.643.079c-.333.07-.431.473-.11.585.129.045.265.067.401.062.161-.004.339-.04.462.06.093.079.117.205.134.32.057.341-.423.716-.769.703-.152-.006-.307-.005-.456-.008-.328-.008-.693-.072-.95-.252-.167-.117-.429-.15-.481.047-.051.192-.235.37-.423.306a1.924 1.924 0 01-.433-.204c-.282-.186-.683-.375-.983-.532a.737.737 0 01-.377-.45c-.038-.14-.048-.31-.171-.385-.075-.044-.172-.037-.26-.027-.743.086-1.482.167-2.22.253-.404.048-.821.096-1.177.293-.649.353-1.032 1.195-1.549 1.722a4.523 4.523 0 00-.698.923c-.123.21-.229.453-.181.69.035.184.158.34.196.521.065.31-.113.61-.188.915-.212.871.453 1.691 1.069 2.35.291.306.627.64 1.051.656.263.01.513-.105.759-.201.51-.2 1.053-.321 1.6-.362.213-.015.637.412.846.456.212.044.441-.025.647.047.415.147.412.7.258 1.135-.024.068.033.142.104.128a.087.087 0 01.098.118l-.044.112c-.037.095.026.2.12.238.497.209.676.938.543 1.499-.147.63-.523 1.208-.533 1.855-.003.354.106.697.216 1.033l.116.362c.431 1.342 1.329 1.573 2.625 1.021.267-.116.582-.139.791-.337.202-.19.136-.636-.123-.636a.765.765 0 00.663-.712c.004-.099-.01-.197.003-.295.024-.14.113-.262.198-.382.544-.775.896-1.664 1.248-2.541.092-.235.185-.466.276-.701l1.043-2.62a.264.264 0 01.01-.025c.041-.105-.475-.894-.562-.965-.284-.231-.432-.582-.654-.871-.189-.249-.443-.469-.532-.772-.051-.173-.041-.36-.071-.541-.07-.392-.329-.718-.507-1.072-.256-.51.286-.59.557-.087.394.731.767 1.474 1.119 2.228.096.205.474.21.676.106.14-.075.297-.105.445-.166.39-.17.659-.582.659-1.004a1.119 1.119 0 00-.667-1c-.195-.081-.418-.108-.602-.22-.185-.109-.318-.357-.202-.538.109-.17.373-.167.554-.072.182.1.315.266.486.378.123.082.267.136.4.21.722.412.9 1.348 1.052 2.164.065.347.137.691.218 1.032.011.046.07.04.07-.008a14.938 14.938 0 00-3.938-10.106zm1.268 4.815c-.099-.007-.191-.072-.271-.133-.129-.102-.26-.221-.298-.381-.044-.19.047-.409-.055-.578-.048-.082-.133-.133-.205-.19a1.064 1.064 0 01-.377-.595c-.045-.204.02-.476.229-.51a.246.246 0 01.234.097c.012.017.005.04-.014.05-.033.017-.025.079.006.1.152.104.2.365.051.49-.023.024-.054.045-.054.079 0 .043.045.071.077.1.145.126.339.182.511.273.148.077.293.203.339.353.025.084-.04.16-.122.19-.031.012-.065.03-.074.062-.018.065.026.15.081.201.068.064.157.13.161.224 0 .103-.117.174-.219.168z" fill="url(#paint15_linear)"/></g><path d="M199.976 100.392c-.037-.065-.18-.137-.241-.094a.082.082 0 00-.031.083.667.667 0 01-.391.72c-.155.062-.36.089-.412.246-.044.134.061.27.075.409.022.232-.195.405-.352.577-.158.172-.241.496-.032.6.049.024.104.029.158.034.228.019.477.026.662-.106.532-.377.027-1.402.552-1.789.075-.055.169-.094.209-.177.085-.167-.102-.333-.197-.503z" fill="url(#paint16_linear)"/></g><defs><linearGradient id="paint0_linear" x1="153651" y1="15634.5" x2="156817" y2="48621.8" gradientUnits="userSpaceOnUse"><stop stop-color="#6BBEFF"/><stop offset="1" stop-color="#0C3AA1"/></linearGradient><linearGradient id="paint1_linear" x1="36460" y1="3811.69" x2="37224.4" y2="11664.7" gradientUnits="userSpaceOnUse"><stop stop-color="#6BBEFF"/><stop offset="1" stop-color="#0C3AA1"/></linearGradient><linearGradient id="paint2_linear" x1="123.797" y1="41.142" x2="197.967" y2="160.16" gradientUnits="userSpaceOnUse"><stop stop-color="#fff"/><stop offset="1"/></linearGradient><linearGradient id="paint3_linear" x1="73.466" y1="177.259" x2="43.383" y2="231.779" gradientUnits="userSpaceOnUse"><stop stop-color="#FFC34E"/><stop offset="1" stop-color="#FB8627"/></linearGradient><linearGradient id="paint4_linear" x1="62725.5" y1="55748.1" x2="56850.1" y2="74593.2" gradientUnits="userSpaceOnUse"><stop stop-color="#FFC34E"/><stop offset="1" stop-color="#FB8627"/></linearGradient><linearGradient id="paint5_linear" x1="77.031" y1="195.731" x2="46.727" y2="233.282" gradientUnits="userSpaceOnUse"><stop stop-color="#8FD4FF"/><stop offset="1" stop-color="#1355BF"/></linearGradient><linearGradient id="paint6_linear" x1="78269.4" y1="56586.9" x2="103088" y2="72750.2" gradientUnits="userSpaceOnUse"><stop stop-color="#FFC34E"/><stop offset="1" stop-color="#FB8627"/></linearGradient><linearGradient id="paint7_linear" x1="35940" y1="13851.2" x2="36739.1" y2="14727.4" gradientUnits="userSpaceOnUse"><stop stop-color="#FFC34E"/><stop offset="1" stop-color="#FB8627"/></linearGradient><linearGradient id="paint8_linear" x1="92797.5" y1="39596.5" x2="109987" y2="27632" gradientUnits="userSpaceOnUse"><stop stop-color="#FFC34E"/><stop offset="1" stop-color="#FB8627"/></linearGradient><linearGradient id="paint9_linear" x1="180.024" y1="107.607" x2="180.031" y2="107.649" gradientUnits="userSpaceOnUse"><stop stop-color="#6A7FFE"/><stop offset=".375" stop-color="#5B8CFD"/><stop offset=".766" stop-color="#4E9FFD"/><stop offset=".984" stop-color="#49A4FC"/></linearGradient><linearGradient id="paint10_linear" x1="179.052" y1="86.04" x2="179.148" y2="86.754" gradientUnits="userSpaceOnUse"><stop stop-color="#6A7FFE"/><stop offset=".375" stop-color="#5B8CFD"/><stop offset=".766" stop-color="#4E9FFD"/><stop offset=".984" stop-color="#49A4FC"/></linearGradient><linearGradient id="paint11_linear" x1="172.292" y1="83.715" x2="187.592" y2="103.494" gradientUnits="userSpaceOnUse"><stop stop-color="#6A7FFE"/><stop offset=".375" stop-color="#5B8CFD"/><stop offset=".766" stop-color="#4E9FFD"/><stop offset=".984" stop-color="#49A4FC"/></linearGradient><linearGradient id="paint12_linear" x1="179.355" y1="82.917" x2="179.729" y2="84.384" gradientUnits="userSpaceOnUse"><stop stop-color="#6A7FFE"/><stop offset=".375" stop-color="#5B8CFD"/><stop offset=".766" stop-color="#4E9FFD"/><stop offset=".984" stop-color="#49A4FC"/></linearGradient><linearGradient id="paint13_linear" x1="181.736" y1="80.922" x2="182.196" y2="84.647" gradientUnits="userSpaceOnUse"><stop stop-color="#6A7FFE"/><stop offset=".375" stop-color="#5B8CFD"/><stop offset=".766" stop-color="#4E9FFD"/><stop offset=".984" stop-color="#49A4FC"/></linearGradient><linearGradient id="paint14_linear" x1="186.265" y1="82.905" x2="186.336" y2="83.493" gradientUnits="userSpaceOnUse"><stop stop-color="#6A7FFE"/><stop offset=".375" stop-color="#5B8CFD"/><stop offset=".766" stop-color="#4E9FFD"/><stop offset=".984" stop-color="#49A4FC"/></linearGradient><linearGradient id="paint15_linear" x1="186.447" y1="82.802" x2="197.664" y2="107.79" gradientUnits="userSpaceOnUse"><stop stop-color="#6A7FFE"/><stop offset=".375" stop-color="#5B8CFD"/><stop offset=".766" stop-color="#4E9FFD"/><stop offset=".984" stop-color="#49A4FC"/></linearGradient><linearGradient id="paint16_linear" x1="198.467" y1="100.155" x2="199.982" y2="103.087" gradientUnits="userSpaceOnUse"><stop stop-color="#6A7FFE"/><stop offset=".375" stop-color="#5B8CFD"/><stop offset=".766" stop-color="#4E9FFD"/><stop offset=".984" stop-color="#49A4FC"/></linearGradient><filter id="filter0_d" x="168.297" y="81.715" width="17.811" height="31.957" filterUnits="userSpaceOnUse" color-interpolation-filters="sRGB"><feFlood flood-opacity="0" result="BackgroundImageFix"/><feColorMatrix in="SourceAlpha" values="0 0 0 0 0 0 0 0 0 0 0 0 0 0 0 0 0 0 127 0"/><feOffset dy="2"/><feGaussianBlur stdDeviation="2"/><feColorMatrix values="0 0 0 0 0 0 0 0 0 0 0 0 0 0 0 0 0 0 0.25 0"/><feBlend in2="BackgroundImageFix" result="effect1_dropShadow"/><feBlend in="SourceGraphic" in2="effect1_dropShadow" result="shape"/></filter><filter id="filter1_d" x="182.447" y="80.802" width="24.063" height="29.904" filterUnits="userSpaceOnUse" color-interpolation-filters="sRGB"><feFlood flood-opacity="0" result="BackgroundImageFix"/><feColorMatrix in="SourceAlpha" values="0 0 0 0 0 0 0 0 0 0 0 0 0 0 0 0 0 0 127 0"/><feOffset dy="2"/><feGaussianBlur stdDeviation="2"/><feColorMatrix values="0 0 0 0 0 0 0 0 0 0 0 0 0 0 0 0 0 0 0.25 0"/><feBlend in2="BackgroundImageFix" result="effect1_dropShadow"/><feBlend in="SourceGraphic" in2="effect1_dropShadow" result="shape"/></filter></defs></svg>