<svg width="24" height="24" fill="none" xmlns="http://www.w3.org/2000/svg"><g clip-path="url(#clip0)" fill="#fff"><mask id="a"><path d="M12.753 0h-1.506c-1.218 0-2.21.991-2.21 2.21v.509a9.69 9.69 0 00-1.504.624l-.361-.36a2.21 2.21 0 00-3.125 0L2.982 4.047a2.21 2.21 0 000 3.125l.361.36a9.69 9.69 0 00-.624 1.505h-.51A2.213 2.213 0 000 11.247v1.506c0 1.218.991 2.21 2.21 2.21h.509c.165.518.374 1.02.624 1.504l-.36.361a2.21 2.21 0 000 3.125l1.064 1.065a2.21 2.21 0 003.125 0l.36-.361a9.7 9.7 0 001.505.624v.51c0 1.218.992 2.209 2.21 2.209h1.506c1.218 0 2.21-.991 2.21-2.21v-.509a9.69 9.69 0 001.504-.624l.361.36a2.21 2.21 0 003.125 0l1.065-1.064a2.21 2.21 0 000-3.125l-.361-.361c.25-.483.459-.986.624-1.504h.51A2.212 2.212 0 0024 12.753v-1.506c0-1.218-.991-2.21-2.21-2.21h-.509a9.698 9.698 0 00-.624-1.504l.36-.361a2.21 2.21 0 000-3.125l-1.064-1.065a2.21 2.21 0 00-3.125 0l-.361.361a9.698 9.698 0 00-1.504-.624v-.51A2.213 2.213 0 0012.753 0zM7.768 4.82a8.288 8.288 0 012.148-.892c.31-.08.528-.36.528-.68V2.209c0-.442.36-.803.803-.803h1.506c.443 0 .803.36.803.803v1.039c0 .32.217.6.528.68a8.288 8.288 0 012.148.892.703.703 0 00.855-.108l.736-.735a.803.803 0 011.135 0l1.065 1.065a.803.803 0 010 1.135l-.735.736a.703.703 0 00-.108.855c.397.672.697 1.394.892 2.148.08.31.36.528.68.528h1.039c.442 0 .803.36.803.803v1.506c0 .443-.36.803-.803.803h-1.038a.703.703 0 00-.681.528 8.286 8.286 0 01-.892 2.148.703.703 0 00.108.855l.735.735a.803.803 0 010 1.136l-1.064 1.065a.803.803 0 01-1.136 0l-.736-.735a.703.703 0 00-.855-.108 8.285 8.285 0 01-2.148.892.703.703 0 00-.528.68v1.039c0 .442-.36.803-.803.803h-1.506a.804.804 0 01-.803-.803v-1.038a.703.703 0 00-.528-.681 8.284 8.284 0 01-2.148-.892.703.703 0 00-.855.108l-.735.735a.803.803 0 01-1.136 0l-1.065-1.065a.803.803 0 010-1.135l.735-.736a.703.703 0 00.108-.855 8.285 8.285 0 01-.892-2.148.703.703 0 00-.68-.528H2.209a.804.804 0 01-.803-.803v-1.506c0-.443.36-.803.803-.803h1.039c.32 0 .6-.217.68-.528a8.288 8.288 0 01.892-2.148.703.703 0 00-.108-.855l-.735-.735a.803.803 0 010-1.136l1.065-1.065a.803.803 0 011.135 0l.736.735c.167.167.515.31.855.108z"/></mask><path d="M12.753 0h-1.506c-1.218 0-2.21.991-2.21 2.21v.509a9.69 9.69 0 00-1.504.624l-.361-.36a2.21 2.21 0 00-3.125 0L2.982 4.047a2.21 2.21 0 000 3.125l.361.36a9.69 9.69 0 00-.624 1.505h-.51A2.213 2.213 0 000 11.247v1.506c0 1.218.991 2.21 2.21 2.21h.509c.165.518.374 1.02.624 1.504l-.36.361a2.21 2.21 0 000 3.125l1.064 1.065a2.21 2.21 0 003.125 0l.36-.361a9.7 9.7 0 001.505.624v.51c0 1.218.992 2.209 2.21 2.209h1.506c1.218 0 2.21-.991 2.21-2.21v-.509a9.69 9.69 0 001.504-.624l.361.36a2.21 2.21 0 003.125 0l1.065-1.064a2.21 2.21 0 000-3.125l-.361-.361c.25-.483.459-.986.624-1.504h.51A2.212 2.212 0 0024 12.753v-1.506c0-1.218-.991-2.21-2.21-2.21h-.509a9.698 9.698 0 00-.624-1.504l.36-.361a2.21 2.21 0 000-3.125l-1.064-1.065a2.21 2.21 0 00-3.125 0l-.361.361a9.698 9.698 0 00-1.504-.624v-.51A2.213 2.213 0 0012.753 0zM7.768 4.82a8.288 8.288 0 012.148-.892c.31-.08.528-.36.528-.68V2.209c0-.442.36-.803.803-.803h1.506c.443 0 .803.36.803.803v1.039c0 .32.217.6.528.68a8.288 8.288 0 012.148.892.703.703 0 00.855-.108l.736-.735a.803.803 0 011.135 0l1.065 1.065a.803.803 0 010 1.135l-.735.736a.703.703 0 00-.108.855c.397.672.697 1.394.892 2.148.08.31.36.528.68.528h1.039c.442 0 .803.36.803.803v1.506c0 .443-.36.803-.803.803h-1.038a.703.703 0 00-.681.528 8.286 8.286 0 01-.892 2.148.703.703 0 00.108.855l.735.735a.803.803 0 010 1.136l-1.064 1.065a.803.803 0 01-1.136 0l-.736-.735a.703.703 0 00-.855-.108 8.285 8.285 0 01-2.148.892.703.703 0 00-.528.68v1.039c0 .442-.36.803-.803.803h-1.506a.804.804 0 01-.803-.803v-1.038a.703.703 0 00-.528-.681 8.284 8.284 0 01-2.148-.892.703.703 0 00-.855.108l-.735.735a.803.803 0 01-1.136 0l-1.065-1.065a.803.803 0 010-1.135l.735-.736a.703.703 0 00.108-.855 8.285 8.285 0 01-.892-2.148.703.703 0 00-.68-.528H2.209a.804.804 0 01-.803-.803v-1.506c0-.443.36-.803.803-.803h1.039c.32 0 .6-.217.68-.528a8.288 8.288 0 01.892-2.148.703.703 0 00-.108-.855l-.735-.735a.803.803 0 010-1.136l1.065-1.065a.803.803 0 011.135 0l.736.735c.167.167.515.31.855.108z" stroke="#fff" stroke-width="20" mask="url(#a)"/><mask id="b"><path d="M12 6.778A5.228 5.228 0 006.778 12 5.228 5.228 0 0012 17.222 5.228 5.228 0 0017.222 12 5.228 5.228 0 0012 6.778zm0 9.037A3.82 3.82 0 018.185 12 3.82 3.82 0 0112 8.184 3.82 3.82 0 0115.816 12 3.82 3.82 0 0112 15.815z"/></mask><path d="M12 6.778A5.228 5.228 0 006.778 12 5.228 5.228 0 0012 17.222 5.228 5.228 0 0017.222 12 5.228 5.228 0 0012 6.778zm0 9.037A3.82 3.82 0 018.185 12 3.82 3.82 0 0112 8.184 3.82 3.82 0 0115.816 12 3.82 3.82 0 0112 15.815z"/><path d="M12 16.778A4.772 4.772 0 0016.778 12h-20c0-8.402 6.82-15.222 15.222-15.222v20zM16.778 12A4.772 4.772 0 0012 7.222v20c-8.402 0-15.222-6.82-15.222-15.222h20zM12 7.222A4.772 4.772 0 007.222 12h20c0 8.402-6.82 15.222-15.222 15.222v-20zM7.222 12A4.772 4.772 0 0012 16.778v-20c8.402 0 15.222 6.82 15.222 15.222h-20zM12 25.815C4.373 25.815-1.815 19.626-1.815 12h20A6.18 6.18 0 0012 5.815v20zM-1.815 12C-1.815 4.373 4.373-1.816 12-1.816v20A6.18 6.18 0 0018.185 12h-20zM12-1.816c7.627 0 13.816 6.189 13.816 13.816h-20A6.18 6.18 0 0012 18.184v-20zM25.816 12c0 7.627-6.189 13.815-13.816 13.815v-20A6.18 6.18 0 005.816 12h20z" mask="url(#b)"/></g><defs><clipPath id="clip0"><path transform="matrix(1 0 0 -1 0 24)" fill="#fff" d="M0 0h24v24H0z"/></clipPath></defs></svg>