<svg width="80" height="80" fill="none" xmlns="http://www.w3.org/2000/svg"><path d="M61 23.431C61 18.794 57.22 15 52.6 15H27.4c-4.621 0-8.4 3.794-8.4 8.431v35.132c0 4.637 3.779 8.431 8.4 8.431L45.6 67 61 51.542v-28.11z" fill="#D3D3D3"/><path d="M53.962 51.213L61 51.202 45.514 66.685l.003-7.027c0-4.643 3.802-8.445 8.445-8.445z" fill="#1F4254"/><path fill-rule="evenodd" clip-rule="evenodd" d="M52.6 15c4.62 0 8.4 3.794 8.4 8.431v28.111L45.6 67l-5.6-.002V15h12.6z" fill="#C2C2C2"/><path d="M31.44 29.068h16.89a2.111 2.111 0 100-4.222H31.44a2.11 2.11 0 100 4.223zm0 10.912h16.89a2.111 2.111 0 100-4.222H31.44a2.11 2.11 0 100 4.223zm0 10.728h16.89a2.111 2.111 0 100-4.222H31.44a2.11 2.11 0 100 4.223z" fill="#1F4254"/><g clip-path="url(#clip0)"><path d="M40 .156C17.908.156 0 18.05 0 40.121c0 22.072 17.908 39.964 40 39.964s40-17.892 40-39.964S62.092.156 40 .156zM8.75 40.121a31.066 31.066 0 016.243-18.726l43.75 43.711A31.13 31.13 0 0140 71.343c-17.259 0-31.25-13.979-31.25-31.222zm56.19 18.814L21.17 15.203A31.128 31.128 0 0140 8.898c17.259 0 31.25 13.98 31.25 31.223a31.07 31.07 0 01-6.31 18.814z" fill="#E5554E"/><path fill-rule="evenodd" clip-rule="evenodd" d="M37.363 80c.872.057 1.75.085 2.637.085 22.092 0 40-17.892 40-39.964S62.092.156 40 .156v8.742c17.259 0 31.25 13.98 31.25 31.223a31.07 31.07 0 01-6.31 18.814L40 34.017v12.364l18.742 18.725A31.13 31.13 0 0140 71.343V80h-2.637z" fill="#D0413A"/></g><defs><clipPath id="clip0"><path fill="#fff" d="M0 0h80v80H0z"/></clipPath></defs></svg>