<svg width="84" height="65" fill="none" xmlns="http://www.w3.org/2000/svg"><g clip-path="url(#clip0)"><path d="M66.651 25.931v13.306a86.348 86.348 0 01-5.554-3.834 88.73 88.73 0 01-8.611 5.695 95.253 95.253 0 01-9.201 4.7 1.846 1.846 0 00-1.091 1.69v9.808a19.352 19.352 0 001.4 7.339H8.23a7.446 7.446 0 007.448-7.447V25.931a7.447 7.447 0 017.446-7.447h36.08a7.447 7.447 0 017.447 7.447z" fill="#E48E66"/><path d="M57.519 16.968v1.516H23.123a7.447 7.447 0 00-7.446 7.447v31.257a7.445 7.445 0 01-7.449 7.447h-.783A7.444 7.444 0 010 57.188V8.392A7.446 7.446 0 017.446.944h16.708c2.09 0 4.086.88 5.496 2.424l5.071 5.547c.353.386.852.606 1.375.605h13.976a7.448 7.448 0 017.447 7.448z" fill="#CC7350"/><path d="M62.087 7.004c-10.296 0-18.69 8.393-18.69 18.689v10.194c0 .951.748 1.699 1.7 1.699h6.796c.951 0 1.699-.748 1.699-1.7V25.694a8.498 8.498 0 018.495-8.495 8.498 8.498 0 018.495 8.495v3.398c0 .951.747 1.699 1.699 1.699h6.796c.951 0 1.699-.748 1.699-1.7v-3.397c0-10.296-8.393-18.69-18.69-18.69z" fill="#C5C9F7"/><path d="M80.776 25.693v3.398c0 .951-.748 1.699-1.7 1.699h-6.795a1.682 1.682 0 01-1.7-1.7v-3.397a8.498 8.498 0 00-8.494-8.495V7.004c10.296 0 18.689 8.393 18.689 18.689z" fill="#A8AFF1"/><path d="M75.68 34.188H48.496c-.952 0-1.7.747-1.7 1.698v27.41c0 .952.748 1.7 1.7 1.7H75.68c.951 0 1.698-.748 1.698-1.7v-27.41c0-.951-.747-1.699-1.698-1.699z" fill="#FEDB41"/><path d="M77.378 35.886v27.41c0 .952-.748 1.7-1.7 1.7h-13.59V34.188H75.68c.951 0 1.699.747 1.699 1.698z" fill="#FC3"/><path d="M50.194 64.996h-5.097A5.103 5.103 0 0140 59.899V39.285a5.103 5.103 0 015.097-5.097h5.097v30.808z" fill="#FEA832"/><path d="M84.175 59.899a5.103 5.103 0 01-5.097 5.097H73.98V34.188h5.097a5.103 5.103 0 015.097 5.096V59.9z" fill="#FE9923"/><path d="M62.086 40.983a5.09 5.09 0 00-5.097 5.097 5.09 5.09 0 005.097 5.097 5.09 5.09 0 005.097-5.097 5.09 5.09 0 00-5.097-5.097z" fill="#994C0F"/><path d="M63.785 49.478v6.796c0 1.121-.85 1.7-1.699 1.7-.85 0-1.699-.578-1.699-1.7v-6.796c0-1.121.85-1.699 1.699-1.699.85 0 1.699.578 1.699 1.7z" fill="#994C0F"/><path d="M67.184 46.08a5.09 5.09 0 01-5.097 5.097V40.983a5.09 5.09 0 015.097 5.097z" fill="#713708"/><path d="M63.786 49.478v6.796c0 1.121-.85 1.7-1.7 1.7V47.778c.85 0 1.7.578 1.7 1.7z" fill="#713708"/></g><defs><clipPath id="clip0"><path fill="#fff" d="M0 0h84v65H0z"/></clipPath></defs></svg>