<svg width="80" height="80" fill="none" xmlns="http://www.w3.org/2000/svg"><g clip-path="url(#clip0)"><path d="M67.888 45.92a33.914 33.914 0 01-2.59 13.056c-1.263 3.04-5.124 3.686-7.166 6.207-1.917 2.366-1.973 6.644-4.449 8.424a33.919 33.919 0 01-19.432 6.39c-.148.002-7.14-6.177-7.287-6.177-5.23 0-3.342 5.002-7.771 2.896C7.683 71.245-.272 59.51-.272 45.92c0-1.979.168-3.918.492-5.803 1.482-8.64 8.39-13.997 15.072-19.11 5.211-3.986 9.434-8.675 16.394-9.102a34.67 34.67 0 012.122-.065c4.957 0 9.667 1.058 13.917 2.962 6.866 3.075 8.183 8.356 11.741 14.941 2.6 4.813 8.422 10.323 8.422 16.177z" fill="#BED9FD"/><path fill-rule="evenodd" clip-rule="evenodd" d="M34 12v67.748c.308.257.5.41.523.41a33.92 33.92 0 0019.433-6.39c1.4-1.008 2.026-2.814 2.653-4.62.48-1.388.962-2.777 1.795-3.805.875-1.08 2.085-1.817 3.28-2.544 1.595-.97 3.165-1.926 3.886-3.663a33.916 33.916 0 002.59-13.056c0-4.041-2.773-7.918-5.347-11.515-1.155-1.614-2.269-3.171-3.074-4.662-.69-1.277-1.296-2.505-1.875-3.678-2.403-4.873-4.333-8.784-9.867-11.263A33.96 33.96 0 0034.08 12H34z" fill="#9EC8FC"/><path d="M47.723 14.803a3.833 3.833 0 00-.279 1.443v2.73c0 .679-.18 1.344-.522 1.93l-4.119 7.058a27.842 27.842 0 00-3.796 14.034v.803c0 1.41.775 2.705 2.017 3.372l1.712.919c.88.472 1.908.582 2.867.306l1.578-.453a3.826 3.826 0 002.611-2.59l1.005-3.389a3.826 3.826 0 00.124-1.592l-.297-2.228a3.827 3.827 0 017.343-1.935l2.438 6.05a3.829 3.829 0 001.238 1.62l6.202 4.7c.027-.55.041-1.104.041-1.661 0-13.864-8.28-25.794-20.163-31.117z" fill="#6DC17D"/><path d="M47.724 14.803a3.833 3.833 0 00-.279 1.443v2.193c7.573 5.563 12.758 14.181 13.748 24.038.14.146.29.282.45.405l6.203 4.7c.027-.551.041-1.105.041-1.662 0-13.864-8.28-25.794-20.163-31.117z" fill="#6DC17D"/><path d="M33.234 55.533a8.81 8.81 0 00-5.788-2.168h-5.16a9.89 9.89 0 01-6.268-2.24l-.736-.602a9.891 9.891 0 01-3.392-5.527l-1.466-6.667a3.262 3.262 0 011.093-3.204l1.37-1.144a1.83 1.83 0 012.106-.171 4.177 4.177 0 006.064-2.202l1.055-2.982a5.234 5.234 0 012.626-2.952l5.243-2.576a5.235 5.235 0 002.82-5.748l-1.114-5.443C15.802 12.883 2.861 24.738.222 40.117l6.251 8.372a31.921 31.921 0 012.41 3.748l3.698 6.742a31.925 31.925 0 012.18 4.918l4.433 12.817A33.943 33.943 0 0033.808 80c.148 0 .295-.003.443-.005l2.985-14.223a8.812 8.812 0 00-.338-4.81" fill="#7FCB8F"/><path d="M36.898 60.962a8.806 8.806 0 00-.908-1.82l-1.167-1.785a8.81 8.81 0 00-1.587-1.823" fill="#7FCB8F"/><path d="M65.287 58.997l-2.791-3.753a6.709 6.709 0 00-10.366-.488l-1.735 1.925a6.708 6.708 0 00-1.12 7.278l4.407 9.647a34.195 34.195 0 0011.605-14.61z" fill="#6DC17D"/><path d="M76.882 6H30.118C28.403 6 27 7.395 27 9.1v18.6c0 1.705 1.403 3.1 3.118 3.1h3.117v4.015c0 .96.624 1.782 1.512 2.061.219.093.437.124.686.124.593 0 1.154-.233 1.56-.636l4.925-4.897.67-.667h34.294c1.715 0 3.118-1.395 3.118-3.1V9.1C80 7.395 78.597 6 76.882 6z" fill="#3996DF"/><path fill-rule="evenodd" clip-rule="evenodd" d="M53 6h23.882C78.597 6 80 7.395 80 9.1v18.6c0 1.705-1.403 3.1-3.118 3.1H53V6z" fill="#1E81CE"/><path d="M38.596 14.2h3.99c1.036 0 1.95.21 2.744.63.793.41 1.41.99 1.848 1.736.439.737.658 1.582.658 2.534 0 .952-.22 1.801-.658 2.548a4.609 4.609 0 01-1.848 1.736c-.793.41-1.708.616-2.744.616h-3.99v-9.8zm3.934 8.904c.859 0 1.61-.168 2.254-.504a3.775 3.775 0 001.498-1.414c.355-.607.532-1.302.532-2.086 0-.784-.177-1.475-.532-2.072a3.65 3.65 0 00-1.498-1.414c-.644-.345-1.395-.518-2.254-.518h-2.898v8.008h2.898zM58.352 14.2V24h-.854l-6.3-7.952V24h-1.036v-9.8h.854l6.314 7.952V14.2h1.022zm5.901 9.884a6.357 6.357 0 01-2.1-.35c-.663-.233-1.176-.541-1.54-.924l.406-.798c.355.355.826.644 1.414.868a5.266 5.266 0 001.82.322c.877 0 1.535-.159 1.974-.476.439-.327.658-.747.658-1.26 0-.392-.121-.705-.364-.938a2.271 2.271 0 00-.868-.532 12.79 12.79 0 00-1.442-.42 16.33 16.33 0 01-1.764-.532 3.022 3.022 0 01-1.134-.798c-.308-.355-.462-.835-.462-1.442 0-.495.13-.943.392-1.344.261-.41.663-.737 1.204-.98.541-.243 1.213-.364 2.016-.364a5.7 5.7 0 011.638.238 4.63 4.63 0 011.4.63l-.35.826c-.41-.27-.85-.471-1.316-.602a4.76 4.76 0 00-1.372-.21c-.859 0-1.507.168-1.946.504-.43.327-.644.751-.644 1.274 0 .392.117.71.35.952.243.233.541.415.896.546.364.121.85.257 1.456.406.719.177 1.297.355 1.736.532.448.168.826.43 1.134.784.308.345.462.817.462 1.414 0 .495-.135.947-.406 1.358-.261.401-.667.723-1.218.966-.55.233-1.227.35-2.03.35z" fill="#fff"/></g><defs><clipPath id="clip0"><path fill="#fff" d="M0 0h80v80H0z"/></clipPath></defs></svg>