<svg width="61" height="80" fill="none" xmlns="http://www.w3.org/2000/svg"><path d="M48.598 25.63C43.763 20.71 37.334 18 30.496 18c-6.839 0-13.268 2.71-18.103 7.63-4.835 4.921-7.508 11.464-7.508 18.422 0 6.085 2.109 12.007 5.921 16.675.954 1.188 2.067 2.293 3.23 3.287l15.19 15.453a1.773 1.773 0 002.532 0l15.186-15.453a26.065 26.065 0 003.22-3.287c3.825-4.668 5.932-10.59 5.932-16.675 0-6.958-2.662-13.5-7.498-18.422z" fill="#A1C5FF"/><path d="M48.598 25.63C43.763 20.71 37.334 18 30.496 18l-.003 62a1.77 1.77 0 001.265-.533l15.186-15.453a26.027 26.027 0 003.22-3.287c3.826-4.668 5.932-10.59 5.932-16.675 0-6.958-2.662-13.5-7.498-18.422z" fill="#5A8CDB"/><path d="M52.682 23.829H8.318l2.846-9.566.907-3.046 2.022-6.791a3.916 3.916 0 012.126-2.435 4.027 4.027 0 013.256-.043L26.9 5.12a9.159 9.159 0 003.601.733 9.159 9.159 0 003.6-.733l7.424-3.173a4.027 4.027 0 013.257.043 3.916 3.916 0 012.126 2.434l2.022 6.792.907 3.047 2.846 9.565z" fill="#00429B"/><path d="M52.682 23.829H30.5V5.854a9.158 9.158 0 003.6-.733l7.424-3.173a4.027 4.027 0 013.257.043 3.915 3.915 0 012.126 2.434l2.022 6.792.907 3.047 2.846 9.565z" fill="#002659"/><path d="M57 25.343v.027c0 2.514-2.085 4.56-4.648 4.56H8.648C6.085 29.93 4 27.883 4 25.37v-.027c0-2.515 2.085-4.56 4.648-4.56h43.704c2.563 0 4.648 2.045 4.648 4.56z" fill="#046EFF"/><path d="M55.447 37.09h-3.629c-.858 0-1.553.682-1.553 1.523 0 .841.695 1.524 1.553 1.524h3.63c.857 0 1.552-.683 1.552-1.524s-.695-1.523-1.553-1.523z" fill="#B6B4E8"/><path d="M35.513 38.613c0 .842-.695 1.523-1.553 1.523h-6.913c-.858 0-1.553-.681-1.553-1.523 0-.84.695-1.524 1.553-1.524h6.913c.858 0 1.553.683 1.553 1.524zM9.182 37.09h-3.63c-.857 0-1.552.682-1.552 1.523 0 .841.695 1.524 1.553 1.524h3.629c.857 0 1.553-.683 1.553-1.524s-.695-1.523-1.553-1.523z" fill="#D0CEF0"/><path d="M35.513 38.613c0 .842-.695 1.523-1.552 1.523H30.5V37.09h3.46c.858 0 1.553.683 1.553 1.524z" fill="#B6B4E8"/><path d="M26.42 33.83a6.67 6.67 0 00-1.644-.967c-1.507-.628-3.468-.902-6.768-.95a90.809 90.809 0 00-1.318-.009c-3.87 0-6.822 1.611-8.313 4.536a9.035 9.035 0 00-.702 1.88 11.013 11.013 0 00-.296 1.816c-.026.327-.038.664-.038 1.004 0 5.092 4.193 9.235 9.349 9.235 3.148 0 6.184-1.374 8.55-3.87a13.325 13.325 0 002.137-2.971c.31-.593.568-1.2.763-1.803.202-.625.34-1.25.407-1.86.04-.354.053-1.046.053-1.258 0-1.129-.19-1.773-.562-2.637a5.596 5.596 0 00-1.618-2.146z" fill="#00429B"/><path d="M53.62 40.137a10.8 10.8 0 00-.295-1.817 9.038 9.038 0 00-.702-1.88c-1.49-2.925-4.442-4.535-8.313-4.535-.471 0-.903.002-1.318.008-3.3.047-5.26.322-6.768.95a6.647 6.647 0 00-1.643.967 5.586 5.586 0 00-1.619 2.146c-.368.852-.554 1.494-.554 2.637 0 .088 0 .871.045 1.257.068.61.205 1.236.408 1.86.195.604.451 1.21.763 1.803a13.327 13.327 0 002.137 2.972c2.365 2.496 5.401 3.87 8.549 3.87 5.156 0 9.35-4.143 9.35-9.235 0-.34-.013-.678-.04-1.003z" fill="#002659"/><path d="M49.836 14.264H11.164l.907-3.047h36.858l.907 3.046z" fill="#046EFF"/><path d="M49.836 14.264H30.5v-3.047h18.429l.907 3.046zM57 25.343v.027c0 2.514-2.085 4.56-4.648 4.56H30.5v-9.148h21.852c2.563 0 4.648 2.046 4.648 4.56z" fill="#0051BD"/></svg>