<svg width="80" height="80" fill="none" xmlns="http://www.w3.org/2000/svg"><path d="M15.11 49.485l11.241-25.003 2.28 1.025-11.24 25.003-2.28-1.025zm14.436 9.373l21.258-8.756.952 2.313-21.258 8.755-.952-2.312zm12.062-34.221l1.768-1.767 11.248 11.248-1.767 1.768-11.249-11.249zm3.185-15.883l16.244-2.499.38 2.47-16.244 2.5-.38-2.47zm5.376 60.643l7.507-12.493 2.143 1.288-7.508 12.493-2.142-1.288z" fill="#218ADC"/><path d="M65 10a3.75 3.75 0 100-7.5 3.75 3.75 0 000 7.5zM50 77.5a3.75 3.75 0 100-7.5 3.75 3.75 0 000 7.5z" fill="#F5B953"/><path d="M65 11.25c-2.758 0-5-2.242-5-5 0-2.757 2.242-5 5-5 2.757 0 5 2.243 5 5 0 2.758-2.243 5-5 5zm0-7.5a2.502 2.502 0 00-2.5 2.5c0 1.379 1.121 2.5 2.5 2.5s2.5-1.121 2.5-2.5-1.121-2.5-2.5-2.5zm-15 75c-2.758 0-5-2.243-5-5s2.242-5 5-5 5 2.243 5 5-2.242 5-5 5zm0-7.5a2.502 2.502 0 00-2.5 2.5c0 1.379 1.121 2.5 2.5 2.5s2.5-1.121 2.5-2.5-1.121-2.5-2.5-2.5z" fill="#005FE1"/><g clip-path="url(#clip0)"><path d="M59.5 58.927c7.436 0 13.464-6.028 13.464-13.463C72.964 38.028 66.936 32 59.5 32c-7.435 0-13.463 6.028-13.463 13.464 0 7.435 6.028 13.463 13.463 13.463z" fill="#4DCFE0"/><path d="M66.778 47.72c2.292-.582 4.403-1.382 6.222-2.328 0-.4-.036-.837-.073-1.237-.218.109-.4.218-.618.327-1.565.8-3.42 1.528-5.386 2.074.037-.364.037-.728.037-1.091a21.987 21.987 0 00-4.84-13.246 12.637 12.637 0 00-1.638-.218l.073.073c.692.764 1.31 1.6 1.892 2.474 2.11 3.239 3.312 7.023 3.385 10.917 0 .436-.037.91-.073 1.382-2.074.51-4.294.8-6.259.837-1.82-.036-4.003-.327-6.259-.837-.036-.473-.073-.91-.073-1.382.11-4.622 1.71-9.025 4.585-12.59.255-.292.473-.583.764-.874-.545.036-1.091.11-1.637.218-.291.364-.582.764-.873 1.165 0 .036-.037.036-.073.073-.11.145-.182.29-.291.436l-.219.328c-.072.109-.145.218-.218.364-.073.145-.182.29-.255.436a21.79 21.79 0 00-2.91 10.48c0 .4 0 .764.036 1.128-1.492-.4-2.875-.873-4.076-1.42a19.043 19.043 0 01-1.928-.945c-.037.4-.073.8-.073 1.237 1.71.91 3.82 1.71 6.222 2.329a22.452 22.452 0 004.622 10.953c.545.109 1.055.182 1.637.218l-.036-.036a21.503 21.503 0 01-1.783-2.293 20.023 20.023 0 01-3.312-8.551c2.184.473 4.294.728 6.114.764a29.555 29.555 0 006.076-.764c-.509 3.748-2.11 7.35-4.512 10.261 0 .037-.036.037-.036.073l-.146.146a3.65 3.65 0 01-.363.4c.545-.036 1.091-.11 1.637-.218.327-.437.655-.837.982-1.31a22.443 22.443 0 003.676-9.752z" fill="#00BBD3"/></g><g clip-path="url(#clip1)"><path d="M35.5 27.927c7.435 0 13.463-6.028 13.463-13.463C48.963 7.028 42.935 1 35.5 1c-7.436 0-13.464 6.028-13.464 13.464 0 7.435 6.028 13.463 13.464 13.463z" fill="#4DCFE0"/><path d="M42.778 16.72c2.292-.582 4.403-1.382 6.222-2.328 0-.4-.036-.837-.073-1.237-.218.109-.4.218-.618.327-1.565.8-3.42 1.528-5.386 2.074.036-.364.036-.728.036-1.091a21.987 21.987 0 00-4.84-13.246 12.634 12.634 0 00-1.637-.218l.073.073c.692.764 1.31 1.6 1.892 2.474 2.11 3.239 3.312 7.023 3.384 10.917 0 .436-.036.91-.072 1.382-2.074.51-4.294.8-6.259.837-1.82-.036-4.003-.327-6.259-.837-.036-.473-.073-.91-.073-1.382.11-4.622 1.71-9.025 4.585-12.59.255-.292.473-.583.764-.874-.545.036-1.091.11-1.637.218-.291.364-.582.765-.873 1.165 0 .036-.037.036-.073.073-.11.145-.182.29-.291.436l-.219.328c-.072.109-.145.218-.218.364-.073.145-.182.29-.255.436a21.79 21.79 0 00-2.91 10.48c0 .4 0 .764.036 1.128-1.492-.4-2.875-.873-4.076-1.42a19.043 19.043 0 01-1.928-.945c-.037.4-.073.8-.073 1.237 1.71.91 3.82 1.71 6.222 2.329a22.452 22.452 0 004.622 10.953c.545.109 1.055.182 1.637.218l-.036-.036a21.503 21.503 0 01-1.783-2.293 20.023 20.023 0 01-3.312-8.551c2.184.473 4.294.728 6.114.764a29.555 29.555 0 006.076-.764c-.509 3.748-2.11 7.35-4.512 10.261 0 .037-.036.037-.036.073l-.146.146a3.65 3.65 0 01-.363.4c.545-.036 1.091-.11 1.637-.218.327-.437.655-.837.982-1.31a22.443 22.443 0 003.676-9.752z" fill="#00BBD3"/></g><g clip-path="url(#clip2)"><path d="M19.5 71.927c7.436 0 13.464-6.028 13.464-13.463C32.964 51.028 26.936 45 19.5 45c-7.435 0-13.463 6.028-13.463 13.464 0 7.435 6.028 13.463 13.463 13.463z" fill="#4DCFE0"/><path d="M26.778 60.72c2.292-.582 4.403-1.382 6.222-2.328 0-.4-.036-.837-.073-1.237-.218.109-.4.218-.618.327-1.565.8-3.42 1.528-5.386 2.074.037-.364.037-.728.037-1.091a21.987 21.987 0 00-4.84-13.246 12.637 12.637 0 00-1.638-.218l.073.073c.692.764 1.31 1.6 1.892 2.474 2.11 3.239 3.312 7.023 3.384 10.917 0 .436-.036.91-.072 1.382-2.074.51-4.294.8-6.259.837-1.82-.036-4.003-.327-6.259-.837-.036-.473-.073-.91-.073-1.382.11-4.622 1.71-9.025 4.585-12.59.255-.292.473-.583.764-.874-.545.036-1.091.11-1.637.218-.291.364-.582.764-.873 1.165 0 .036-.037.036-.073.073-.11.145-.182.29-.291.436l-.219.328c-.072.109-.145.218-.218.364-.073.145-.182.29-.255.436a21.79 21.79 0 00-2.91 10.48c0 .4 0 .764.036 1.128-1.492-.4-2.875-.873-4.076-1.42a19.042 19.042 0 01-1.928-.945c-.037.4-.073.8-.073 1.237 1.71.91 3.82 1.71 6.222 2.329a22.452 22.452 0 004.622 10.953c.546.109 1.055.182 1.637.218l-.036-.036a21.503 21.503 0 01-1.783-2.293 20.023 20.023 0 01-3.312-8.551c2.184.473 4.294.728 6.114.764a29.555 29.555 0 006.076-.764c-.509 3.748-2.11 7.35-4.512 10.261 0 .037-.036.037-.036.073l-.146.146a3.65 3.65 0 01-.363.4c.545-.036 1.091-.11 1.637-.218.327-.437.655-.837.982-1.31a22.443 22.443 0 003.676-9.752z" fill="#00BBD3"/></g><defs><clipPath id="clip0"><path fill="#fff" d="M46 32h27v27H46z"/></clipPath><clipPath id="clip1"><path fill="#fff" d="M22 1h27v27H22z"/></clipPath><clipPath id="clip2"><path fill="#fff" d="M6 45h27v27H6z"/></clipPath></defs></svg>