<svg width="16" height="16" fill="none" xmlns="http://www.w3.org/2000/svg"><g clip-path="url(#clip0)" fill="#598FFD"><path d="M12.922 4.528a5.006 5.006 0 00-9.819-.003 3.504 3.504 0 00.404 6.985H6.01a.5.5 0 100-1.001H3.507a2.503 2.503 0 11.03-5.006.5.5 0 00.497-.446 4.005 4.005 0 017.957 0 .53.53 0 00.527.446 2.503 2.503 0 110 5.006h-2.503a.5.5 0 100 1.001h2.503a3.504 3.504 0 00.404-6.982z"/><path d="M9.782 12.537l-1.27 1.27V7.505a.5.5 0 10-1 0v6.3l-1.27-1.269a.5.5 0 10-.707.708l2.123 2.123a.501.501 0 00.709 0l2.123-2.123a.5.5 0 10-.696-.72l-.012.012z"/></g><defs><clipPath id="clip0"><path fill="#fff" d="M0 0h16v16H0z"/></clipPath></defs></svg>