<svg width="80" height="80" fill="none" xmlns="http://www.w3.org/2000/svg"><path d="M61.823 0H40.118L36.99 36.823 40.118 80c21.316-8.025 35.43-28.42 35.43-51.196v-15.08A18.732 18.732 0 0161.822 0z" fill="#5469E0"/><path d="M18.412 0A18.732 18.732 0 014.688 13.724v15.08C4.688 51.58 18.8 71.974 40.117 80V0H18.412z" fill="#7A8DF7"/><path d="M59.712 15.835A28.763 28.763 0 0155.2 9.98H40.118L36.99 33.073l3.128 36.092a44.499 44.499 0 0017.502-14.91 44.527 44.527 0 007.948-25.451v-8.456a28.748 28.748 0 01-5.855-4.513z" fill="#B4D2D7"/><path d="M25.035 9.98a28.73 28.73 0 01-10.368 10.368v8.456a44.528 44.528 0 007.948 25.452 44.497 44.497 0 0017.503 14.91V9.978H25.035z" fill="#E1EBF0"/><g clip-path="url(#clip0)"><path d="M39.999 50.43a3.94 3.94 0 01-3.936-3.935A3.94 3.94 0 0140 42.559a3.94 3.94 0 013.936 3.936A3.94 3.94 0 0140 50.431z" fill="#7A8DF6"/><path d="M31.927 44.092c-.87 0-1.69-.34-2.305-.955a3.238 3.238 0 01-.954-2.305c0-.87.339-1.69.954-2.305A14.577 14.577 0 0140 34.235c3.924 0 7.61 1.524 10.377 4.292.616.616.955 1.434.955 2.305 0 .87-.34 1.69-.955 2.305a3.239 3.239 0 01-2.305.955c-.87 0-1.69-.34-2.305-.955-3.18-3.18-8.355-3.18-11.535 0a3.238 3.238 0 01-2.305.955z" fill="#7A8DF6"/><path d="M27.258 37.367c-.871 0-1.69-.339-2.305-.955a3.263 3.263 0 010-4.61 21.14 21.14 0 0115.046-6.232 21.14 21.14 0 0115.047 6.232 3.263 3.263 0 010 4.61 3.239 3.239 0 01-2.305.955c-.87 0-1.69-.339-2.305-.955-5.755-5.754-15.118-5.754-20.873 0a3.239 3.239 0 01-2.305.955z" fill="#7A8DF6"/><path d="M43.935 46.495A3.94 3.94 0 0040 42.559v7.872a3.94 3.94 0 003.936-3.936zm1.832-3.358a3.238 3.238 0 002.305.955c.87 0 1.69-.34 2.305-.955a3.238 3.238 0 00.955-2.305c0-.87-.34-1.69-.955-2.305a14.576 14.576 0 00-10.378-4.292v6.517a8.13 8.13 0 015.768 2.385zm4.669-6.725a3.238 3.238 0 002.305.955c.87 0 1.69-.339 2.305-.955a3.263 3.263 0 000-4.61A21.14 21.14 0 0040 25.57v6.526c3.78 0 7.56 1.439 10.437 4.316z" fill="#5469E0"/></g><defs><clipPath id="clip0"><path fill="#fff" d="M24 22h32v32H24z"/></clipPath></defs></svg>