<svg width="20" height="20" fill="none" xmlns="http://www.w3.org/2000/svg"><path d="M16.402 8.716h-.294V6.11A6.116 6.116 0 009.998 0a6.116 6.116 0 00-6.11 6.11.56.56 0 101.119 0 4.997 4.997 0 014.99-4.992A4.997 4.997 0 0114.99 6.11v2.606H3.598c-.597 0-1.082.485-1.082 1.081v6.964A3.244 3.244 0 005.756 20h8.488a3.244 3.244 0 003.24-3.24V9.798c0-.597-.485-1.081-1.082-1.081zm-.037 8.045c0 1.168-.949 2.12-2.121 2.12H5.76a2.122 2.122 0 01-2.12-2.12V9.834h12.725v6.927z" fill="#598FFD"/><path d="M10.002 16.533c1.156 0 2.092-.94 2.092-2.092 0-1.156-.94-2.092-2.092-2.092-1.156 0-2.092.94-2.092 2.092 0 1.151.936 2.092 2.092 2.092zm0-3.07a.975.975 0 010 1.951.975.975 0 010-1.951z" fill="#598FFD"/></svg>