<svg width="24" height="24" fill="none" xmlns="http://www.w3.org/2000/svg"><g clip-path="url(#clip0)" fill="#fff"><path d="M21.736 2.838c-2.637 0-7.436-.537-8.94-2.516a.68.68 0 00-1.119-.054c-1.77 1.979-6.58 2.57-9.412 2.57a.704.704 0 00-.703.706v11.293c0 5.085 5.854 8.193 10.29 9.159.572.124 10.587-2.413 10.587-9.16V3.544a.704.704 0 00-.703-.706zm-.703 11.998c0 5.3-7.845 7.45-9.033 7.745-1.188-.295-9.032-2.444-9.032-7.745V4.242c5.43-.126 8.137-1.69 9.214-2.537 2.169 1.918 5.962 2.471 8.85 2.537v10.594z"/><path d="M8.487 9.167v2.14H7.78a.704.704 0 00-.703.706v5.646c0 .39.315.706.703.706h8.438a.704.704 0 00.703-.706v-5.646a.704.704 0 00-.703-.706H9.893v-2.14c0-1.103.868-2.094 2.128-2.094 1.15 0 2.086.939 2.086 2.093 0 .39.315.706.703.706a.704.704 0 00.703-.706 3.503 3.503 0 00-3.492-3.505 3.502 3.502 0 00-3.534 3.506zm7.029 7.787H8.484v-4.235h7.032v4.235z"/><path d="M12 15.542a.704.704 0 00.703-.706.704.704 0 00-.703-.706.704.704 0 00-.703.706c0 .39.315.706.703.706z"/></g><defs><clipPath id="clip0"><path fill="#fff" d="M0 0h24v24H0z"/></clipPath></defs></svg>