<svg width="13" height="622" xmlns="http://www.w3.org/2000/svg"><path d="M5.533 468.359c.003.746-.248 1.625-.853 2.569v-1.222l.536-.846c2.484 3.883 4.94 7.767 7.428 11.65.475.737.475 2.168 0 2.905-2.667 4.162-5.297 8.324-7.964 12.487v-2.905c2.667 4.162 5.297 8.324 7.964 12.487.475.737.475 2.167 0 2.904-2.667 4.163-5.297 8.325-7.964 12.487v-2.905c2.667 4.163 5.297 8.325 7.964 12.487.475.737.475 2.168 0 2.905-2.667 4.162-5.297 8.325-7.964 12.487v-2.905c2.667 4.162 5.297 8.324 7.964 12.487.475.737.475 2.168 0 2.905-2.667 4.162-5.297 8.324-7.964 12.486v-2.904c2.667 4.162 5.297 8.324 7.964 12.486.475.737.475 2.168 0 2.905-2.667 4.163-5.297 8.325-7.964 12.487v-2.905c2.667 4.162 5.297 8.325 7.964 12.487.475.737.475 2.168 0 2.905-2.667 4.162-5.297 8.324-7.964 12.487-1.863 2.948-6.1.043-4.2-2.905 2.666-4.162 5.296-8.325 7.963-12.487v2.905c-2.667-4.162-5.297-8.325-7.964-12.487-.475-.737-.475-2.168 0-2.905 2.667-4.162 5.297-8.324 7.964-12.487v2.905c-2.667-4.162-5.297-8.324-7.964-12.487-.475-.737-.475-2.167 0-2.904 2.667-4.163 5.297-8.325 7.964-12.487v2.905c-2.667-4.163-5.297-8.325-7.964-12.487-.475-.737-.475-2.168 0-2.905 2.667-4.162 5.297-8.325 7.964-12.487v2.905c-2.667-4.162-5.297-8.324-7.964-12.487-.475-.737-.475-2.168 0-2.905 2.667-4.162 5.297-8.324 7.964-12.486v2.904c-2.667-4.162-5.297-8.324-7.964-12.486-.475-.737-.475-2.168 0-2.905 2.667-4.163 5.297-8.325 7.964-12.487v2.905c-2.667-4.162-5.297-8.325-7.964-12.487-.28-.434-.395-1.11-.345-1.741-.236-.69-.183-1.508.341-2.33 2.644-4.17 5.253-8.34 7.897-12.511v2.91c-2.644-4.17-5.253-8.34-7.897-12.51-.47-.74-.47-2.173 0-2.911 2.644-4.17 5.253-8.34 7.897-12.511v2.91c-2.644-4.17-5.253-8.34-7.897-12.51-.47-.74-.47-2.173 0-2.911 2.644-4.17 5.253-8.341 7.897-12.511v2.91c-2.644-4.17-5.253-8.34-7.897-12.51-.47-.74-.47-2.173 0-2.911 2.644-4.17 5.253-8.341 7.897-12.511v2.91c-2.644-4.17-5.253-8.34-7.897-12.51-.47-.74-.47-2.173 0-2.911 2.644-4.17 5.253-8.341 7.897-12.511v2.91c-2.644-4.17-5.253-8.34-7.897-12.51-.47-.74-.47-2.173 0-2.911 2.644-4.17 5.253-8.341 7.897-12.511v2.91c-2.644-4.17-5.253-8.34-7.897-12.51-.354-.556-.442-1.503-.264-2.253-.32-.726-.31-1.62.268-2.518 2.667-4.162 5.297-8.325 7.964-12.487v1.729a1243.063 1243.063 0 00-.376.589c-2.539-3.967-5.047-7.933-7.588-11.9-.475-.737-.475-2.168 0-2.905 2.667-4.162 5.297-8.324 7.964-12.487v2.905c-2.667-4.162-5.297-8.324-7.964-12.487-.475-.737-.475-2.167 0-2.904 2.667-4.163 5.297-8.325 7.964-12.487v2.905c-2.667-4.163-5.297-8.325-7.964-12.487-.475-.737-.475-2.168 0-2.905 2.667-4.162 5.297-8.325 7.964-12.487v2.905c-2.667-4.162-5.297-8.324-7.964-12.487-.475-.737-.475-2.168 0-2.905 2.667-4.162 5.297-8.324 7.964-12.486v2.904c-2.667-4.162-5.297-8.324-7.964-12.486-.475-.737-.475-2.168 0-2.905 2.667-4.163 5.297-8.325 7.964-12.487v2.905c-2.667-4.162-5.297-8.325-7.964-12.487-.28-.434-.395-1.11-.345-1.741-.236-.69-.183-1.508.341-2.33 2.644-4.17 5.253-8.34 7.897-12.511v2.91c-2.644-4.17-5.253-8.34-7.897-12.51-.47-.74-.47-2.173 0-2.911 2.644-4.17 5.253-8.34 7.897-12.511v2.91c-2.644-4.17-5.253-8.34-7.897-12.51-.47-.74-.47-2.173 0-2.911 2.644-4.17 5.253-8.341 7.897-12.511v2.91c-2.644-4.17-5.253-8.34-7.897-12.51-.47-.74-.47-2.173 0-2.911C3.12 84.62 5.728 80.45 8.372 76.28v2.91C5.728 75.02 3.12 70.85.475 66.68c-.47-.74-.47-2.173 0-2.911 2.644-4.17 5.253-8.341 7.897-12.511v2.91c-2.644-4.17-5.253-8.34-7.897-12.51-.47-.74-.47-2.173 0-2.911 2.644-4.17 5.253-8.341 7.897-12.511v2.91c-2.644-4.17-5.253-8.34-7.897-12.51-.47-.74-.47-2.173 0-2.911C3.12 9.555 5.728 5.384 8.372 1.214c1.848-2.911 6.013-.044 4.166 2.91-2.645 4.17-5.253 8.34-7.897 12.511v-2.91c2.644 4.17 5.252 8.34 7.897 12.51.47.74.47 2.173 0 2.911-2.645 4.17-5.253 8.34-7.897 12.511v-2.91c2.644 4.17 5.252 8.34 7.897 12.51.47.74.47 2.173 0 2.911-2.645 4.17-5.253 8.34-7.897 12.511v-2.91c2.644 4.17 5.252 8.34 7.897 12.51.47.74.47 2.173 0 2.911-2.645 4.17-5.253 8.34-7.897 12.511v-2.91c2.644 4.17 5.252 8.34 7.897 12.51.47.74.47 2.173 0 2.911-2.645 4.17-5.253 8.34-7.897 12.511v-2.91c2.644 4.17 5.252 8.34 7.897 12.51.47.74.47 2.173 0 2.911-2.645 4.17-5.253 8.341-7.897 12.511v-2.91c2.644 4.17 5.252 8.34 7.897 12.51.47.74.47 2.173 0 2.911-2.347 3.701-4.665 7.402-7.005 11.103.003.746-.248 1.625-.853 2.569v-1.222l.536-.846c2.484 3.883 4.94 7.767 7.428 11.65.475.737.475 2.168 0 2.905-2.667 4.162-5.297 8.324-7.964 12.487v-2.905c2.667 4.162 5.297 8.324 7.964 12.487.475.737.475 2.167 0 2.904-2.667 4.163-5.297 8.325-7.964 12.487v-2.905c2.667 4.163 5.297 8.325 7.964 12.487.475.737.475 2.168 0 2.905-2.667 4.162-5.297 8.325-7.964 12.487v-2.905c2.667 4.162 5.297 8.324 7.964 12.487.475.737.475 2.168 0 2.905-2.667 4.162-5.297 8.324-7.964 12.486v-2.904c2.667 4.162 5.297 8.324 7.964 12.486.475.737.475 2.168 0 2.905-2.667 4.163-5.297 8.325-7.964 12.487v-2.905c2.667 4.162 5.297 8.325 7.964 12.487.385.598.458 1.651.218 2.422.239.686.19 1.502-.324 2.324-2.645 4.17-5.253 8.34-7.897 12.511v-1.805l.04-.06.312-.49c2.524 3.986 5.018 7.97 7.545 11.956.47.738.47 2.172 0 2.91-2.645 4.17-5.253 8.34-7.897 12.511v-2.91c2.644 4.17 5.252 8.34 7.897 12.51.47.74.47 2.173 0 2.911-2.645 4.17-5.253 8.34-7.897 12.511v-2.91c2.644 4.17 5.252 8.34 7.897 12.51.47.74.47 2.173 0 2.911-2.645 4.17-5.253 8.34-7.897 12.511v-2.91c2.644 4.17 5.252 8.34 7.897 12.51.47.74.47 2.173 0 2.911-2.645 4.17-5.253 8.34-7.897 12.511v-2.91c2.644 4.17 5.252 8.34 7.897 12.51.47.74.47 2.173 0 2.911-2.645 4.17-5.253 8.341-7.897 12.511v-2.91c2.644 4.17 5.252 8.34 7.897 12.51.47.74.47 2.173 0 2.911-2.347 3.701-4.665 7.402-7.005 11.103z" fill="#3D3BFF"/></svg>