<svg width="55" height="60" fill="none" xmlns="http://www.w3.org/2000/svg"><g filter="url(#filter0_d)"><mask id="a" maskUnits="userSpaceOnUse" x="10" y="7" width="35" height="40"><path d="M26.996 46.166c-5.557 0-9.787-1.416-12.693-4.248C11.434 39.084 10 34.944 10 29.497V11.902c0-1.49.436-2.67 1.307-3.541C12.215 7.454 13.414 7 14.903 7c1.489 0 2.669.454 3.54 1.362.908.871 1.362 2.052 1.362 3.54V29.88c0 2.76.618 4.884 1.852 6.373 1.235 1.49 3.015 2.234 5.339 2.234 2.324 0 4.103-.745 5.338-2.234 1.235-1.489 1.852-3.613 1.852-6.373V11.903c0-1.49.436-2.67 1.308-3.541C36.4 7.454 37.6 7 39.089 7c1.489 0 2.687.454 3.595 1.362.908.871 1.362 2.052 1.362 3.54v17.596c0 5.41-1.47 9.55-4.413 12.42-2.905 2.832-7.117 4.248-12.637 4.248z" fill="#fff"/></mask><g mask="url(#a)"><path d="M26.996 46.166c-5.557 0-9.787-1.416-12.693-4.248C11.434 39.084 10 34.944 10 29.497V11.902c0-1.49.436-2.67 1.307-3.541C12.215 7.454 13.414 7 14.903 7c1.489 0 2.669.454 3.54 1.362.908.871 1.362 2.052 1.362 3.54V29.88c0 2.76.618 4.884 1.852 6.373 1.235 1.49 3.015 2.234 5.339 2.234 2.324 0 4.103-.745 5.338-2.234 1.235-1.489 1.852-3.613 1.852-6.373V11.903c0-1.49.436-2.67 1.308-3.541C36.4 7.454 37.6 7 39.089 7c1.489 0 2.687.454 3.595 1.362.908.871 1.362 2.052 1.362 3.54v17.596c0 5.41-1.47 9.55-4.413 12.42-2.905 2.832-7.117 4.248-12.637 4.248z" fill="#fff"/><g filter="url(#filter1_d)"><path d="M16.64 45.488c-.006-.003-.013 0-.017.004-.004.006 0 .013.006.015l.004.001c.014.004.02-.012.008-.019h-.002z" fill="url(#paint0_linear)"/><path d="M15.301 15.661a.061.061 0 01-.005-.008c-.02-.04.006-.089.049-.101.27-.078.313-.291.557-.374.306-.101.202.009.502 0 .103-.005.19.024.276.05.12.035.209.194.107.269-.23.163-.463.33-.736.393-.272.062-.59-.003-.75-.229z" fill="url(#paint1_linear)"/><g filter="url(#filter2_d)"><path d="M19.532 34.519c-.006.187-.116.35-.211.507a5.145 5.145 0 00-.74 2.313c-.058.78-.023 1.742-.703 2.126-.388.216-.933.177-1.192.542-.08.11-.119.249-.157.379l-.49 1.776a.06.06 0 01-.062.043c-.071-.006-.267.326-.266.398a.37.37 0 01-.026.141c-.014.036-.056.046-.093.034-.233-.076-.513.07-.637.295-.128.244-.11.54-.038.81.138.498.457.936.873 1.24.376.275.389.62.004.358a9.86 9.86 0 01-3.89-5.306c-.226-.756-.37-1.56-.811-2.21-.369-.55-.925-.953-1.293-1.503-.517-.79-.613-1.813-1.212-2.535-.335-.412-.853-.918-.556-1.36.119-.18.373-.353.272-.545-.033-.062-.1-.1-.153-.153-.202-.216-.062-.555.038-.834.323-.936-.382-1.841-.85-2.714a4.235 4.235 0 01-.204-.44c-.124-.32-.283-.707-.572-.828-.105-.044-.21-.109-.249-.216l-.178-.492c-.027-.074-.165-.091-.237-.06-.049.02-.097-.022-.094-.075a21.038 21.038 0 015.158-12.386 1.34 1.34 0 01.352-.277c.722-.421 1.297-1.053 1.995-1.513.143-.095.306-.186.483-.168.173.015.336.19.273.354a.367.367 0 01-.139.163 14.761 14.761 0 01-2.665 1.807c-.114.056-.234.124-.286.24-.097.195.066.439.273.51.218.077.458.369.463.6.001.029.003.057.006.085.012.115.131.201.205.112.074-.09.113-.242.15-.36.124-.386.503-.653.828-.93.353-.302 1.108-1.018 1.359-1.409.176-.28.547-.556.794-.41.057.034.08.101.087.167l.013.128a.2.2 0 00.248.174l.195-.05c.174-.044.582.412.667.57a.57.57 0 00.12.152c.242.219.51.47.248.662-.423.319-.875.646-1.362.831a.135.135 0 00-.075.183l.04.085c.01.022 0 .05-.023.05-.344.033-.709-.214-1.077-.167-.225.03-.502.03-.632.259-.018.029-.099.43-.042.397l.383-.22c.113-.065.258-.014.27.115a.33.33 0 00.268.288c.056.008.11.02.164.035a.236.236 0 01.123.372 1.446 1.446 0 01-.968.567c-.146.018-.262-.106-.269-.253-.006-.147-.123-.272-.265-.235-.352.09-.64.418-.83.744-.239.407-.42.872-.814 1.13-.238.163-.531.225-.79.36-.252.138-.487.402-.434.684.024.134.11.258.106.397-.014.259-.315.38-.516.546-.345.288-.43.815-.8 1.068-.267.186-.622.182-.933.278-.274.084-.548.335-.524.6.006.06-.023.127-.083.12-.105-.013-.36-.003-.405.093a10.52 10.52 0 00-.821 2.606c-.058.325.18.635.363.36.08-.12.139-.27.16-.404.102-.593.563-.195.485.402-.02.15-.04.3-.058.45-.015.091-.024.186.02.267.052.1.166.143.254.215.244.21.21.584.225.904.012.334.108.662.264.959.012.024.05.008.045-.018a.024.024 0 01.025-.028 1.34 1.34 0 001.012-.326c.148-.134.273-.306.46-.373.191-.072.402-.02.598.033.608.167 1.254.353 1.661.832.205.243.335.55.58.75.555.47 1.494.263 2.002.785.304.315.338.775.29 1.23-.024.223-.327.382-.482.545-.152.16.064.219.264.121a.446.446 0 01.198-.048c.076-.002.718.17.793.164.355-.025.74.152.885.475.03.067.09.12.163.126l.538.038c.518.037 1.041.528 1.495.782.442.247.988.456.969.914z" fill="url(#paint2_linear)"/></g><path d="M16.269 12.374a.428.428 0 01-.568-.23.427.427 0 01.294-.539c.141-.033.339-.017.383-.156.013-.042.005-.089.005-.132-.005-.262.229-.48.482-.546.174-.045.354-.035.534-.008.154.023.291.125.32.278a.97.97 0 01.018.152c.004.135-.115.233-.25.238-.164.007-.286.148-.305.312-.023.206-.096.397-.279.47-.243.097-.561-.083-.764.081" fill="url(#paint3_linear)"/><path d="M19.012 9.45c.48-.23.887-.593 1.361-.837.816-.418 1.769-.456 2.685-.485l4.604-.143c.417-.013.57.545.203.745-.312.172-.659.347-1.005.351-.14.002-.274.104-.216.231.09.197.096.61-.119.635-.732.084-1.56-.129-2.23.201-.38.187-.686.54-1.103.606-.241.038-.491-.027-.731.026-.401.088-.654.468-.951.751-.342.327-.844.551-1.29.395-.447-.156-.68-.82-.322-1.13.176-.152.428-.178.636-.285.208-.106.372-.39.216-.564-.068-.076-.18-.105-.241-.185-.068-.088-.061-.212-.117-.308-.212-.372-.801.129-1.203-.021" fill="url(#paint4_linear)"/><path d="M25.348 11.21c.282-.065.527-.232.79-.353.076-.035.156-.066.238-.09.38-.107.631.329.26.46a2.372 2.372 0 01-1.17.102" fill="url(#paint5_linear)"/><g filter="url(#filter3_d)"><path d="M42.568 13.493c-.102-.112-.256-.157-.403-.192-.36-.077-.632-.354-.94-.555a2.496 2.496 0 00-1.76-.365c-.188.03-.455-.259-.434-.449.006-.052.009-.104.009-.157a.062.062 0 00-.084-.058.065.065 0 01-.055-.005c-1.248-.722-2.708-1.464-4.067-.978-.316.115-.602.287-.923.397-.34.12-.718.168-1.01.379-.296.21-.453.675-.2.928.217.216.561.158.863.187a.684.684 0 01.384.18c.213.2-.05.465-.316.589-.727.34-1.456.683-2.184 1.025-.484.228-.53 1.208-.462 1.738a.349.349 0 01-.413.39c-.302-.054-.603-.19-.912-.21-.647-.034-1.264.536-1.277 1.182-.019.647.575 1.244 1.221 1.235.042 0 .084-.003.125-.007.677-.07 1.455-.811 1.932-1.296.603-.604 1.464-1.15 2.27-.854.263.096.488.273.708.45.403.319.806.641 1.21.964.137.11.335.096.457-.029a.334.334 0 01.484.006l.42.442a.235.235 0 00.298.034l.079-.051a.16.16 0 01.236.075c.06.15.28.123.3-.037l.007-.06a.174.174 0 01.175-.151c.269.004.542-.009.782-.128.287-.14.498-.484.377-.78-.062-.158-.21-.283-.24-.451-.062-.335.416-.564.728-.412.163.08.284.217.38.376.077.128.281.11.312-.036.032-.147.24-.165.303-.028.121.264.257.52.407.768.2.332-.091.836-.478.85-.303.01-.606.047-.902.11-.466.099-.603.664-.154.823.18.064.371.095.563.087.226-.005.475-.057.647.086.13.11.163.287.187.45.08.479-.598 1.007-1.082.988-.212-.008-.425-.006-.632-.01-.458-.013-.968-.102-1.327-.354-.234-.165-.603-.21-.675.066-.071.27-.33.52-.593.43a2.68 2.68 0 01-.605-.288c-.395-.262-.959-.528-1.377-.75a1.032 1.032 0 01-.526-.633c-.053-.196-.067-.436-.24-.54-.104-.062-.24-.053-.364-.038-1.038.12-2.073.235-3.106.356-.564.067-1.148.135-1.646.412-.91.498-1.445 1.682-2.169 2.426a6.36 6.36 0 00-.974 1.296c-.173.297-.321.637-.253.972.047.258.22.478.272.732.092.436-.157.858-.262 1.288-.296 1.225.633 2.379 1.496 3.306.406.43.877.9 1.47.923.368.015.718-.148 1.062-.283a7.668 7.668 0 012.236-.508c.3-.022.893.579 1.187.64.297.063.617-.034.905.067.58.207.576.987.36 1.598-.033.096.047.198.146.18a.122.122 0 01.138.164l-.062.16c-.052.133.037.279.169.334.695.294.945 1.32.759 2.11-.206.886-.732 1.699-.746 2.609-.004.498.148.981.302 1.454l.166.52c.6 1.88 1.854 2.203 3.67 1.426.373-.163.813-.196 1.106-.474.282-.268.19-.895-.172-.895.492-.053.914-.504.928-1.002.005-.139-.014-.278.004-.416.033-.196.158-.368.277-.536.76-1.092 1.253-2.342 1.746-3.577.128-.33.258-.655.387-.986.487-1.23.97-2.456 1.458-3.687l.016-.04c.058-.147-.667-1.253-.788-1.353-.398-.325-.604-.819-.916-1.225-.263-.35-.618-.66-.743-1.087-.071-.243-.058-.507-.1-.761-.097-.551-.46-1.01-.709-1.508-.358-.715.401-.827.78-.122a60.863 60.863 0 011.565 3.135c.134.288.664.296.945.15.196-.107.416-.15.623-.235a1.58 1.58 0 00.923-1.412 1.577 1.577 0 00-.934-1.407c-.273-.115-.584-.152-.842-.311-.259-.152-.445-.502-.282-.756.152-.24.522-.235.775-.101.254.139.44.373.679.531.172.115.373.19.56.297 1.01.578 1.26 1.895 1.472 3.043.09.488.191.974.305 1.453.015.064.098.055.098-.011a21.083 21.083 0 00-5.51-14.222zm1.774 6.776c-.139-.009-.267-.1-.379-.186-.181-.144-.364-.312-.417-.537-.062-.267.066-.575-.077-.813-.067-.116-.186-.187-.287-.268a1.503 1.503 0 01-.527-.837c-.063-.287.028-.67.32-.718a.343.343 0 01.328.137c.016.024.006.055-.02.07-.046.024-.035.11.008.14.214.148.28.515.072.692-.033.033-.076.062-.076.11 0 .06.063.1.108.14.202.178.475.257.715.385.207.108.41.286.474.498.035.117-.055.223-.17.266-.044.017-.09.042-.104.087-.026.092.036.21.113.283.095.09.22.182.225.316 0 .144-.163.245-.306.235z" fill="url(#paint6_linear)"/></g><path d="M44.531 35.33c-.05-.092-.25-.192-.336-.132a.115.115 0 00-.044.116c.076.406-.16.857-.547 1.013-.216.088-.503.126-.576.347-.06.188.085.38.105.575.032.326-.273.57-.493.812-.22.242-.336.698-.044.844.068.034.146.041.222.048.317.027.666.037.925-.149.745-.53.038-1.972.773-2.518.104-.077.235-.132.292-.249.12-.235-.144-.469-.277-.707z" fill="url(#paint7_linear)"/></g></g></g><defs><linearGradient id="paint0_linear" x1="16.616" y1="45.482" x2="16.625" y2="45.542" gradientUnits="userSpaceOnUse"><stop stop-color="#6A7FFE"/><stop offset=".375" stop-color="#5B8CFD"/><stop offset=".766" stop-color="#4E9FFD"/><stop offset=".984" stop-color="#49A4FC"/></linearGradient><linearGradient id="paint1_linear" x1="15.256" y1="15.135" x2="15.392" y2="16.14" gradientUnits="userSpaceOnUse"><stop stop-color="#6A7FFE"/><stop offset=".375" stop-color="#5B8CFD"/><stop offset=".766" stop-color="#4E9FFD"/><stop offset=".984" stop-color="#49A4FC"/></linearGradient><linearGradient id="paint2_linear" x1="5.798" y1="11.864" x2="27.357" y2="39.577" gradientUnits="userSpaceOnUse"><stop stop-color="#6A7FFE"/><stop offset=".375" stop-color="#5B8CFD"/><stop offset=".766" stop-color="#4E9FFD"/><stop offset=".984" stop-color="#49A4FC"/></linearGradient><linearGradient id="paint3_linear" x1="15.679" y1="10.74" x2="16.209" y2="12.804" gradientUnits="userSpaceOnUse"><stop stop-color="#6A7FFE"/><stop offset=".375" stop-color="#5B8CFD"/><stop offset=".766" stop-color="#4E9FFD"/><stop offset=".984" stop-color="#49A4FC"/></linearGradient><linearGradient id="paint4_linear" x1="19.012" y1="7.934" x2="19.662" y2="13.174" gradientUnits="userSpaceOnUse"><stop stop-color="#6A7FFE"/><stop offset=".375" stop-color="#5B8CFD"/><stop offset=".766" stop-color="#4E9FFD"/><stop offset=".984" stop-color="#49A4FC"/></linearGradient><linearGradient id="paint5_linear" x1="25.348" y1="10.724" x2="25.449" y2="11.55" gradientUnits="userSpaceOnUse"><stop stop-color="#6A7FFE"/><stop offset=".375" stop-color="#5B8CFD"/><stop offset=".766" stop-color="#4E9FFD"/><stop offset=".984" stop-color="#49A4FC"/></linearGradient><linearGradient id="paint6_linear" x1="25.603" y1="10.578" x2="41.447" y2="45.673" gradientUnits="userSpaceOnUse"><stop stop-color="#6A7FFE"/><stop offset=".375" stop-color="#5B8CFD"/><stop offset=".766" stop-color="#4E9FFD"/><stop offset=".984" stop-color="#49A4FC"/></linearGradient><linearGradient id="paint7_linear" x1="42.421" y1="34.996" x2="44.56" y2="39.113" gradientUnits="userSpaceOnUse"><stop stop-color="#6A7FFE"/><stop offset=".375" stop-color="#5B8CFD"/><stop offset=".766" stop-color="#4E9FFD"/><stop offset=".984" stop-color="#49A4FC"/></linearGradient><filter id="filter0_d" x="0" y="0" width="54.046" height="59.166" filterUnits="userSpaceOnUse" color-interpolation-filters="sRGB"><feFlood flood-opacity="0" result="BackgroundImageFix"/><feColorMatrix in="SourceAlpha" values="0 0 0 0 0 0 0 0 0 0 0 0 0 0 0 0 0 0 127 0"/><feOffset dy="3"/><feGaussianBlur stdDeviation="5"/><feColorMatrix values="0 0 0 0 0 0 0 0 0 0 0 0 0 0 0 0 0 0 0.25 0"/><feBlend in2="BackgroundImageFix" result="effect1_dropShadow"/><feBlend in="SourceGraphic" in2="effect1_dropShadow" result="shape"/></filter><filter id="filter1_d" x="-.195" y="3.985" width="54.272" height="49.589" filterUnits="userSpaceOnUse" color-interpolation-filters="sRGB"><feFlood flood-opacity="0" result="BackgroundImageFix"/><feColorMatrix in="SourceAlpha" values="0 0 0 0 0 0 0 0 0 0 0 0 0 0 0 0 0 0 127 0"/><feOffset dy="2"/><feGaussianBlur stdDeviation="3"/><feColorMatrix values="0 0 0 0 0 0 0 0 0 0 0 0 0 0 0 0 0 0 0.25 0"/><feBlend in2="BackgroundImageFix" result="effect1_dropShadow"/><feBlend in="SourceGraphic" in2="effect1_dropShadow" result="shape"/></filter><filter id="filter2_d" x="1.805" y="9.864" width="21.727" height="41.71" filterUnits="userSpaceOnUse" color-interpolation-filters="sRGB"><feFlood flood-opacity="0" result="BackgroundImageFix"/><feColorMatrix in="SourceAlpha" values="0 0 0 0 0 0 0 0 0 0 0 0 0 0 0 0 0 0 127 0"/><feOffset dy="2"/><feGaussianBlur stdDeviation="2"/><feColorMatrix values="0 0 0 0 0 0 0 0 0 0 0 0 0 0 0 0 0 0 0.25 0"/><feBlend in2="BackgroundImageFix" result="effect1_dropShadow"/><feBlend in="SourceGraphic" in2="effect1_dropShadow" result="shape"/></filter><filter id="filter3_d" x="21.603" y="8.578" width="30.475" height="38.824" filterUnits="userSpaceOnUse" color-interpolation-filters="sRGB"><feFlood flood-opacity="0" result="BackgroundImageFix"/><feColorMatrix in="SourceAlpha" values="0 0 0 0 0 0 0 0 0 0 0 0 0 0 0 0 0 0 127 0"/><feOffset dy="2"/><feGaussianBlur stdDeviation="2"/><feColorMatrix values="0 0 0 0 0 0 0 0 0 0 0 0 0 0 0 0 0 0 0.25 0"/><feBlend in2="BackgroundImageFix" result="effect1_dropShadow"/><feBlend in="SourceGraphic" in2="effect1_dropShadow" result="shape"/></filter></defs></svg>