<svg width="25" height="25" fill="none" xmlns="http://www.w3.org/2000/svg"><g filter="url(#filter0_d)" clip-path="url(#clip0)"><path d="M6.589 13.315h2.74v11.282c0 .223.18.403.404.403h4.646c.223 0 .403-.18.403-.403V13.368h3.15a.403.403 0 00.401-.357l.479-4.153a.404.404 0 00-.4-.45h-3.63V5.805c0-.785.423-1.183 1.256-1.183h2.373c.223 0 .403-.18.403-.403V.406a.403.403 0 00-.403-.403h-3.27a3.199 3.199 0 00-.15-.003c-.567 0-2.539.111-4.096 1.544-1.726 1.588-1.487 3.49-1.43 3.82v3.044H6.59a.403.403 0 00-.403.403v4.1c0 .223.18.404.403.404z" fill="url(#paint0_linear)"/></g><defs><linearGradient id="paint0_linear" x1="9.843" y1="4.018" x2="26.161" y2="21.918" gradientUnits="userSpaceOnUse"><stop stop-color="#6A7FFE"/><stop offset=".375" stop-color="#5B8CFD"/><stop offset=".766" stop-color="#4E9FFD"/><stop offset=".984" stop-color="#49A4FC"/></linearGradient><clipPath id="clip0"><path fill="#fff" d="M0 0h25v25H0z"/></clipPath><filter id="filter0_d" x="-33.814" y="-35" width="112.629" height="125" filterUnits="userSpaceOnUse" color-interpolation-filters="sRGB"><feFlood flood-opacity="0" result="BackgroundImageFix"/><feColorMatrix in="SourceAlpha" values="0 0 0 0 0 0 0 0 0 0 0 0 0 0 0 0 0 0 127 0"/><feOffset dx="10" dy="15"/><feGaussianBlur stdDeviation="25"/><feColorMatrix values="0 0 0 0 0 0 0 0 0 0 0 0 0 0 0 0 0 0 0.1 0"/><feBlend in2="BackgroundImageFix" result="effect1_dropShadow"/><feBlend in="SourceGraphic" in2="effect1_dropShadow" result="shape"/></filter></defs></svg>