<svg width="25" height="25" fill="none" xmlns="http://www.w3.org/2000/svg"><g filter="url(#filter0_d)" clip-path="url(#clip0)"><path d="M24.026 5.213c-.903-1.072-2.569-1.51-5.75-1.51H6.724c-3.255 0-4.95.466-5.848 1.608C0 6.425 0 8.065 0 10.336v4.328c0 4.4 1.04 6.633 6.725 6.633h11.55c2.76 0 4.289-.386 5.278-1.333 1.014-.97 1.447-2.556 1.447-5.3v-4.328c0-2.395-.068-4.045-.974-5.123zm-7.976 7.885l-5.245 2.74a.806.806 0 01-1.18-.714V9.66a.806.806 0 011.178-.715l5.245 2.723a.807.807 0 01.002 1.43z" fill="url(#paint0_linear)"/></g><defs><linearGradient id="paint0_linear" x1="7.241" y1="6.531" x2="14.005" y2="27.405" gradientUnits="userSpaceOnUse"><stop stop-color="#6A7FFE"/><stop offset=".375" stop-color="#5B8CFD"/><stop offset=".766" stop-color="#4E9FFD"/><stop offset=".984" stop-color="#49A4FC"/></linearGradient><clipPath id="clip0"><path fill="#fff" d="M0 0h25v25H0z"/></clipPath><filter id="filter0_d" x="-40" y="-31.297" width="125" height="117.594" filterUnits="userSpaceOnUse" color-interpolation-filters="sRGB"><feFlood flood-opacity="0" result="BackgroundImageFix"/><feColorMatrix in="SourceAlpha" values="0 0 0 0 0 0 0 0 0 0 0 0 0 0 0 0 0 0 127 0"/><feOffset dx="10" dy="15"/><feGaussianBlur stdDeviation="25"/><feColorMatrix values="0 0 0 0 0 0 0 0 0 0 0 0 0 0 0 0 0 0 0.1 0"/><feBlend in2="BackgroundImageFix" result="effect1_dropShadow"/><feBlend in="SourceGraphic" in2="effect1_dropShadow" result="shape"/></filter></defs></svg>