<svg width="25" height="25" fill="none" xmlns="http://www.w3.org/2000/svg"><g filter="url(#filter0_d)" clip-path="url(#clip0)"><path d="M.442 12.054l5.76 2.15 2.23 7.17a.678.678 0 001.077.325l3.21-2.618a.958.958 0 011.169-.033l5.791 4.205a.679.679 0 001.064-.41l4.242-20.408a.68.68 0 00-.909-.772L.435 10.783a.68.68 0 00.007 1.27zm7.63 1.005l11.259-6.934c.202-.124.41.15.236.31l-9.29 8.637a1.93 1.93 0 00-.598 1.153l-.316 2.345c-.042.314-.482.345-.568.042l-1.218-4.277a1.134 1.134 0 01.496-1.276z" fill="url(#paint0_linear)"/></g><defs><linearGradient id="paint0_linear" x1="7.241" y1="5.115" x2="17.098" y2="29.7" gradientUnits="userSpaceOnUse"><stop stop-color="#6A7FFE"/><stop offset=".375" stop-color="#5B8CFD"/><stop offset=".766" stop-color="#4E9FFD"/><stop offset=".984" stop-color="#49A4FC"/></linearGradient><clipPath id="clip0"><path fill="#fff" d="M0 0h25v25H0z"/></clipPath><filter id="filter0_d" x="-40" y="-33.383" width="125" height="121.767" filterUnits="userSpaceOnUse" color-interpolation-filters="sRGB"><feFlood flood-opacity="0" result="BackgroundImageFix"/><feColorMatrix in="SourceAlpha" values="0 0 0 0 0 0 0 0 0 0 0 0 0 0 0 0 0 0 127 0"/><feOffset dx="10" dy="15"/><feGaussianBlur stdDeviation="25"/><feColorMatrix values="0 0 0 0 0 0 0 0 0 0 0 0 0 0 0 0 0 0 0.1 0"/><feBlend in2="BackgroundImageFix" result="effect1_dropShadow"/><feBlend in="SourceGraphic" in2="effect1_dropShadow" result="shape"/></filter></defs></svg>