<svg width="908" height="564" fill="none" xmlns="http://www.w3.org/2000/svg"><path d="M251.462 416.775l11.781 80.9 450.885 11.678 11.132-94.874-473.798 2.296z" fill="#1B45A1"/><path d="M66.16 493.584a1.695 1.695 0 01-1.68-2.043 1.7 1.7 0 01.479-.873c.376-.369 9.39-9.086 26.155-18.829a192.327 192.327 0 0172.855-24.482 1.703 1.703 0 01.4 3.378 188.945 188.945 0 00-71.553 24.036c-16.413 9.555-25.403 18.26-25.495 18.345-.313.3-.728.468-1.161.468z" fill="#65ACE4"/><path d="M859.256 519.236c-9.699-3.842-21.16-8.013-33.196-12.463-57.419-21.305-230.637-45.118-368.784-35.779-38.057 2.572-146.678 16.068-199.457 16.701-58.144.697-28.722 26.473-171.3 31.885-142.579 5.412-77.258 19.851-18.914 34.004 38.428 9.331 148.331 6.362 260.194 3.253-3.338.437-2.95.449 1.966-.056 17.749-.492 35.534-.985 53.083-1.434 65.297.777 160.12 7.059 230.26 7.64 93.322.769 276.731 5.66 292.887-15.925 8.146-10.9-14.01-20.715-46.739-27.826z" fill="#D7E3FF"/><path d="M796.867 247.054c5.379-8.635 2.745-19.999-5.883-25.382-8.628-5.383-19.983-2.747-25.362 5.888-5.379 8.635-2.745 19.999 5.883 25.382 8.628 5.383 19.983 2.747 25.362-5.888z" fill="url(#paint1_linear)"/><path d="M564.924 498.347v-83.872H370.779v83.872h-63.107a21.207 21.207 0 00-15.002 6.219 21.241 21.241 0 00-6.214 15.014v5.164a6.897 6.897 0 006.897 6.902h349.013a6.895 6.895 0 004.876-2.023 6.908 6.908 0 002.021-4.879v-5.164a21.241 21.241 0 00-6.214-15.014 21.207 21.207 0 00-15.002-6.219h-63.123z" fill="#3B77D9"/><path d="M370.792 471.971l194.137-14.979v-35.33l-194.137 2.059v48.25zm194.137 12.627l-194.137 13.753h194.137v-13.753z" fill="#1F57B5"/><path d="M760.831 63.484H174.889c-5.739 0-10.392 4.657-10.392 10.4v349.36c0 5.744 4.653 10.4 10.392 10.4h585.942c5.739 0 10.392-4.656 10.392-10.4V73.884c0-5.743-4.653-10.4-10.392-10.4z" fill="#153F9C"/><path d="M190.901 78.572h553.918c2.48 0 4.858.986 6.612 2.74a9.36 9.36 0 012.739 6.618v298.887a9.36 9.36 0 01-2.739 6.617 9.348 9.348 0 01-6.612 2.741H190.901a9.345 9.345 0 01-6.603-2.744 9.361 9.361 0 01-2.736-6.61V87.934c0-2.48.983-4.86 2.734-6.614a9.35 9.35 0 016.605-2.748z" fill="#9DD2F2"/><path d="M489.076 411.891h-42.428a4.245 4.245 0 00-4.243 4.246v1.278c0 2.345 1.9 4.247 4.243 4.247h42.428a4.246 4.246 0 004.243-4.247v-1.278c0-2.345-1.9-4.246-4.243-4.246z" fill="#2A66C6"/><path d="M497.798 504.316h133.104a4.496 4.496 0 013.173 1.316 4.493 4.493 0 011.314 3.175v1.09a4.497 4.497 0 01-4.491 4.495h-133.1a4.487 4.487 0 01-4.487-4.491v-1.094a4.486 4.486 0 011.314-3.175 4.5 4.5 0 013.173-1.316z" fill="#79C3F0"/><path d="M473.16 108.493c30.358 0 70.244-11.43 82.565-15.195 1.866-.569 3.787.705 3.787 2.508v84.506c0 65.3-85.031 118.237-85.031 118.237s-85.032-52.937-85.032-118.237V99.724c0-1.73 1.782-2.993 3.603-2.556 11.729 2.812 49.761 11.325 80.108 11.325z" fill="#99A8C2" opacity=".3"/><path d="M466.603 101.25c28.85 0 66.754-10.864 78.459-14.442 1.769-.545 3.603.665 3.603 2.38v80.311c0 62.051-80.805 112.357-80.805 112.357s-80.808-50.306-80.808-112.357V92.914c0-1.647 1.693-2.845 3.43-2.428 11.141 2.664 47.28 10.764 76.121 10.764z" fill="#1B45A1"/><path d="M467.86 114.458c21.644 0 48.552-7.102 62.046-12.707 4.031-1.671 8.599 1.033 8.599 5.092v64.447c0 54.267-70.665 98.258-70.665 98.258s-70.665-43.991-70.665-98.258v-61.643c0-3.898 4.235-6.598 8.218-5.236 13.406 4.571 40.619 10.047 62.467 10.047z" fill="#316CCC"/><path d="M468.604 131.942v120.46s-56.202-35.843-56.202-78.428v-48.815c0-2.844 3.103-4.807 6.005-3.802 10.496 3.65 32.732 10.585 50.197 10.585zm0-.001v120.461s58.208-35.843 58.208-78.428v-48.927c0-2.805-3.043-4.784-5.929-3.826-10.892 3.609-34.59 10.72-52.279 10.72z" fill="#79C3F0"/><path style="mix-blend-mode:overlay" d="M409.3 168.71c7.454 24.337 11.681 62.752 13.658 85.467-20.839-19.446-41.527-42.381-42.568-54.364-1.305-14.991-3.862-58.217-3.418-88.267 8.614 10.244 24.458 31.484 32.328 57.164z" fill="url(#paint2_linear)"/><path d="M771.223 130.611H623.432a4.258 4.258 0 00-4.243 4.247v21.589a4.26 4.26 0 004.243 4.246h147.791v-30.082z" fill="#99A8C2" opacity=".5"/><path d="M814.719 120.704H613.533a4.244 4.244 0 00-4.243 4.247v21.585a4.244 4.244 0 004.243 4.246h201.186a4.244 4.244 0 004.243-4.246v-21.585a4.244 4.244 0 00-4.243-4.247z" fill="#316CCC"/><path d="M810.18 126.128H618.072a3.303 3.303 0 00-3.302 3.305v12.624a3.303 3.303 0 003.302 3.305H810.18a3.303 3.303 0 003.302-3.305v-12.624a3.303 3.303 0 00-3.302-3.305z" fill="#fff"/><path d="M637.327 141.7a1.6 1.6 0 01-1.602-1.602v-9.551a1.605 1.605 0 011.602-1.602 1.603 1.603 0 011.601 1.602v9.559a1.603 1.603 0 01-1.601 1.594z" fill="#316CCC"/><path d="M642.659 138.82a1.6 1.6 0 01-2.202.456l-8.006-5.252a1.606 1.606 0 01-.326-2.121 1.602 1.602 0 012.075-.543l8.006 5.252a1.604 1.604 0 01.453 2.208z" fill="#316CCC"/><path d="M632.123 138.956a1.602 1.602 0 01.4-2.219l7.858-5.44a1.6 1.6 0 011.813 2.62l-7.858 5.44a1.598 1.598 0 01-2.213-.401zm27.596 2.744a1.598 1.598 0 01-1.601-1.602v-9.551a1.605 1.605 0 011.601-1.602 1.605 1.605 0 011.602 1.602v9.559a1.603 1.603 0 01-1.602 1.594z" fill="#316CCC"/><path d="M665.039 138.82a1.596 1.596 0 01-1.009.682 1.595 1.595 0 01-1.196-.225l-7.982-5.252a1.595 1.595 0 01-.813-1.018 1.604 1.604 0 011.306-1.989 1.6 1.6 0 011.256.343l7.982 5.252a1.603 1.603 0 01.456 2.207z" fill="#316CCC"/><path d="M654.479 138.956a1.602 1.602 0 01.401-2.219l7.853-5.44a1.604 1.604 0 012.619.916 1.612 1.612 0 01-.3 1.269 1.6 1.6 0 01-.505.435l-7.854 5.44a1.6 1.6 0 01-2.214-.401zm27.617 2.744a1.605 1.605 0 01-1.601-1.602v-9.551a1.605 1.605 0 011.601-1.602 1.6 1.6 0 011.601 1.602v9.559a1.602 1.602 0 01-1.601 1.594z" fill="#316CCC"/><path d="M687.416 138.82a1.603 1.603 0 01-2.202.456l-8.006-5.252a1.602 1.602 0 011.75-2.664l8.006 5.252a1.609 1.609 0 01.452 2.208z" fill="#316CCC"/><path d="M676.86 138.956a1.602 1.602 0 01.4-2.219l7.854-5.44a1.6 1.6 0 012.357 1.608c-.05.393-.244.753-.543 1.012l-7.858 5.44a1.599 1.599 0 01-2.21-.401zm27.617 2.745a1.599 1.599 0 01-1.601-1.603v-9.551a1.609 1.609 0 01.397-1.246 1.605 1.605 0 011.848-.395 1.604 1.604 0 01.937 1.641v9.559a1.602 1.602 0 01-1.581 1.595z" fill="#316CCC"/><path d="M709.781 138.82a1.598 1.598 0 01-2.206.457l-7.982-5.252a1.591 1.591 0 01-.812-1.018 1.587 1.587 0 01.211-1.285 1.595 1.595 0 011.759-.666c.216.059.418.163.591.305l7.982 5.252a1.6 1.6 0 01.457 2.207z" fill="#316CCC"/><path d="M699.237 138.956a1.602 1.602 0 01.4-2.219l7.854-5.44a1.6 1.6 0 012.603 1.583 1.597 1.597 0 01-.789 1.037l-7.854 5.44a1.6 1.6 0 01-2.214-.401zm27.616 2.744a1.598 1.598 0 01-1.601-1.602v-9.551a1.605 1.605 0 011.601-1.602 1.605 1.605 0 011.602 1.602v9.559a1.603 1.603 0 01-1.602 1.594z" fill="#316CCC"/><path d="M732.198 138.82a1.6 1.6 0 01-2.206.457l-7.982-5.252a1.591 1.591 0 01-.812-1.018 1.587 1.587 0 01.211-1.285 1.595 1.595 0 011.759-.666c.216.059.418.163.591.305l7.982 5.252a1.603 1.603 0 01.457 2.207z" fill="#316CCC"/><path d="M721.617 138.956a1.602 1.602 0 01.401-2.219l7.854-5.44a1.599 1.599 0 012.356 1.608c-.05.393-.243.753-.543 1.012l-7.858 5.44a1.598 1.598 0 01-2.21-.401zm36.332-.444h-13.446c-.569 0-1.029.461-1.029 1.029v.064c0 .569.46 1.03 1.029 1.03h13.446c.568 0 1.028-.461 1.028-1.03v-.064c0-.568-.46-1.029-1.028-1.029zm22.837 0H767.34c-.569 0-1.029.461-1.029 1.029v.064c0 .569.46 1.03 1.029 1.03h13.446c.568 0 1.028-.461 1.028-1.03v-.064c0-.568-.46-1.029-1.028-1.029zm21.768 0h-13.446a1.03 1.03 0 00-1.029 1.029v.064c0 .569.461 1.03 1.029 1.03h13.446a1.03 1.03 0 001.029-1.03v-.064a1.03 1.03 0 00-1.029-1.029z" fill="#316CCC"/><path d="M316.791 234.254l-48.592 48.627a4.262 4.262 0 01-6.005 0l-48.6-48.627a4.268 4.268 0 010-6.009l48.592-48.638a4.262 4.262 0 016.005 0l48.6 48.63a4.27 4.27 0 010 6.017z" fill="#fff"/><path d="M313.208 234.042l-45.233 45.269a3.97 3.97 0 01-5.605 0l-45.233-45.269a3.972 3.972 0 010-5.609l45.233-45.269a3.964 3.964 0 015.605 0l45.233 45.269a3.97 3.97 0 011.163 2.805 3.965 3.965 0 01-1.163 2.804z" fill="#79C3F0"/><path d="M313.873 226.807h-97.357a3.949 3.949 0 00-3.947 3.95v57.933a3.948 3.948 0 003.947 3.95h97.357a3.948 3.948 0 003.947-3.95v-57.933a3.949 3.949 0 00-3.947-3.95z" fill="#fff"/><path opacity=".3" d="M317.82 230.465c0-2.003.164-2.003-1.846-3.281a5.582 5.582 0 00-2.101-.401c-104.402 0-98.029-.188-99.463.401-1.945 1.242-1.841 1.201-1.841 3.281.456.901-2.938-1.455 49.637 32.137a6.112 6.112 0 006.005 0c52.543-33.592 49.152-31.24 49.609-32.137z" fill="#79C3F0"/><path d="M309.185 277.989h-35.494a1.067 1.067 0 01-1.069-1.069 1.071 1.071 0 011.069-1.07h35.494a1.07 1.07 0 110 2.139zm0 4.611h-35.494a1.074 1.074 0 010-2.143h35.494a1.074 1.074 0 010 2.143z" fill="#3973CF"/><path d="M282.117 95.437a32.831 32.831 0 01-18.25-5.54 32.866 32.866 0 01-12.098-14.754 32.896 32.896 0 017.12-35.826 32.824 32.824 0 0135.798-7.126 32.848 32.848 0 0114.742 12.108 32.888 32.888 0 015.536 18.264 32.922 32.922 0 01-9.631 23.235 32.872 32.872 0 01-23.217 9.64zm0-60.937a28.032 28.032 0 00-15.584 4.732 28.066 28.066 0 00-10.329 12.6 28.087 28.087 0 006.091 30.59 28.025 28.025 0 0030.571 6.069 28.052 28.052 0 0012.581-10.348 28.079 28.079 0 004.715-15.6 28.101 28.101 0 00-8.23-19.824 28.056 28.056 0 00-19.815-8.22z" fill="#FB8627"/><path d="M282.117 76.152a13.582 13.582 0 01-12.544-8.389 13.596 13.596 0 012.943-14.809 13.575 13.575 0 0114.797-2.946 13.582 13.582 0 018.382 12.555 13.622 13.622 0 01-3.986 9.6 13.604 13.604 0 01-9.592 3.989zm0-22.37a8.771 8.771 0 00-8.106 5.42 8.786 8.786 0 001.902 9.57 8.77 8.77 0 0013.5-1.33 8.788 8.788 0 001.479-4.879 8.819 8.819 0 00-2.58-6.2 8.8 8.8 0 00-6.195-2.581z" fill="#FB8627"/><path d="M321.114 64.967h-78.326a2.403 2.403 0 010-4.808h78.326a2.403 2.403 0 010 4.807z" fill="#FB8627"/><path d="M282.117 101.887a2.403 2.403 0 01-2.402-2.404V24.93a2.403 2.403 0 114.804 0v74.554a2.403 2.403 0 01-2.402 2.404zm-53.476 80.087a28.987 28.987 0 01-16.115-4.892 29.033 29.033 0 01-12.333-29.8 29.038 29.038 0 017.938-14.863 28.986 28.986 0 0131.61-6.292 29.014 29.014 0 0113.018 10.691 29.047 29.047 0 014.888 16.128 29.08 29.08 0 01-8.506 20.515 29.029 29.029 0 01-20.5 8.513zm0-53.25a24.192 24.192 0 00-13.446 4.082 24.223 24.223 0 00-8.914 10.871 24.242 24.242 0 00-1.377 13.994 24.225 24.225 0 006.624 12.401 24.184 24.184 0 0026.375 5.251 24.229 24.229 0 0014.94-22.377 24.254 24.254 0 00-7.097-17.119 24.22 24.22 0 00-17.105-7.103z" fill="#FB8627"/><path d="M228.641 165.12a12.174 12.174 0 01-11.243-7.519 12.187 12.187 0 012.64-13.273 12.17 12.17 0 016.231-3.332 12.17 12.17 0 0114.541 11.949 12.19 12.19 0 01-3.568 8.607 12.17 12.17 0 01-8.601 3.568zm0-19.546a7.36 7.36 0 00-6.805 4.551 7.38 7.38 0 001.597 8.033 7.357 7.357 0 008.027 1.598 7.375 7.375 0 002.388-12.022 7.367 7.367 0 00-5.207-2.16z" fill="#FB8627"/><path d="M262.715 155.349h-68.452a2.398 2.398 0 01-2.401-2.403 2.398 2.398 0 012.401-2.404h68.452a2.4 2.4 0 012.401 2.404 2.404 2.404 0 01-2.401 2.403z" fill="#FB8627"/><path d="M228.641 187.611a2.403 2.403 0 01-2.402-2.404v-65.148a2.403 2.403 0 114.804 0v65.148a2.405 2.405 0 01-2.402 2.404z" fill="#FB8627"/><path d="M682.581 293.505H536.003a2.891 2.891 0 00-2.89 2.893v63.125a2.891 2.891 0 002.89 2.892h146.578a2.891 2.891 0 002.89-2.892v-63.125a2.891 2.891 0 00-2.89-2.893z" fill="#3AA1E0"/><path d="M678.974 311.609h-139.36a2.335 2.335 0 00-2.334 2.335v42.898a2.335 2.335 0 002.334 2.336h139.36a2.335 2.335 0 002.333-2.336v-42.898a2.335 2.335 0 00-2.333-2.335zm-134.905-13.032h-3.383c-.714 0-1.293.579-1.293 1.294v2.788c0 .715.579 1.294 1.293 1.294h3.383c.714 0 1.293-.579 1.293-1.294v-2.788c0-.715-.579-1.294-1.293-1.294zm10.852 0h-3.383c-.714 0-1.293.579-1.293 1.294v2.788c0 .715.579 1.294 1.293 1.294h3.383c.714 0 1.293-.579 1.293-1.294v-2.788c0-.715-.579-1.294-1.293-1.294zm10.852 0h-3.383c-.714 0-1.293.579-1.293 1.294v2.788c0 .715.579 1.294 1.293 1.294h3.383c.714 0 1.293-.579 1.293-1.294v-2.788c0-.715-.579-1.294-1.293-1.294z" fill="#fff"/><path d="M675.443 322.033h-76.181a2.277 2.277 0 01-1.675-.634 2.273 2.273 0 01-.702-1.648 2.283 2.283 0 012.377-2.281h76.181a2.28 2.28 0 011.551 3.862 2.282 2.282 0 01-1.551.701zm-57.299 35.19h-76.185a2.285 2.285 0 010-4.563h76.185a2.286 2.286 0 011.552.701 2.286 2.286 0 01-1.552 3.862zm14.035-4.563h-7.882a.781.781 0 00-.781.781v3.001c0 .431.35.781.781.781h7.882a.78.78 0 00.78-.781v-3.001a.78.78 0 00-.78-.781zm11.885 0h-7.882a.781.781 0 00-.781.781v3.001c0 .431.35.781.781.781h7.882a.78.78 0 00.78-.781v-3.001a.78.78 0 00-.78-.781zm32.112-20.688H550.017a1.55 1.55 0 010-3.097h126.159a1.548 1.548 0 011.044 2.617 1.55 1.55 0 01-1.044.48zm0 6.678H550.017a1.55 1.55 0 010-3.096h126.159a1.55 1.55 0 010 3.096z" fill="#3AA1E0"/><path d="M601.66 216.739h-10.964a8.571 8.571 0 01-6.055-2.516 8.592 8.592 0 01-2.512-6.061v-10.969a8.593 8.593 0 012.512-6.061 8.571 8.571 0 016.055-2.516h10.964a8.573 8.573 0 016.055 2.516 8.588 8.588 0 012.511 6.061v10.969a8.586 8.586 0 01-2.511 6.061 8.573 8.573 0 01-6.055 2.516zm-10.964-23.315a3.77 3.77 0 00-3.763 3.769v10.969a3.775 3.775 0 003.763 3.77h10.964a3.77 3.77 0 003.763-3.77v-10.969a3.772 3.772 0 00-3.763-3.769h-10.964z" fill="#316CCC"/><path opacity=".8" d="M601.66 263.764h-10.964a8.98 8.98 0 01-8.967-8.974v-10.973a8.988 8.988 0 012.63-6.342 8.976 8.976 0 016.337-2.632h10.964a8.976 8.976 0 016.337 2.632 8.992 8.992 0 012.63 6.342v10.973a8.98 8.98 0 01-8.967 8.974zm-10.964-23.312a3.366 3.366 0 00-3.363 3.365v10.973a3.371 3.371 0 003.363 3.365h10.964a3.367 3.367 0 003.362-3.365v-10.973a3.367 3.367 0 00-3.362-3.365h-10.964z" fill="#316CCC"/><path d="M596.864 210.566h-.116a2.406 2.406 0 01-1.789-.942l-7.882-10.283a2.4 2.4 0 01-.475-1.779 2.42 2.42 0 01.921-1.593 2.413 2.413 0 011.777-.474 2.39 2.39 0 011.592.921l6.152 8.032 17.245-18.496a2.404 2.404 0 113.515 3.281l-19.187 20.572a2.4 2.4 0 01-1.753.761zm0 46.628h-.116a2.403 2.403 0 01-1.789-.938l-7.882-10.284a2.407 2.407 0 01.446-3.371 2.405 2.405 0 013.369.447l6.152 8.012 17.245-18.496a2.4 2.4 0 013.397-.118 2.404 2.404 0 01.118 3.399l-19.186 20.567a2.41 2.41 0 01-1.754.782z" fill="#FB8627"/><path d="M628.576 200.114h82.806a2.616 2.616 0 001.923-.732 2.626 2.626 0 000-3.788 2.627 2.627 0 00-1.923-.732h-82.806a2.624 2.624 0 00-2.524 2.626 2.63 2.63 0 002.524 2.626zm0 10.28h61.59a2.624 2.624 0 000-5.248h-61.59a2.622 2.622 0 00-1.854 4.479 2.623 2.623 0 001.854.769zm0 36.404h82.806a2.634 2.634 0 001.923-.732 2.637 2.637 0 00.806-1.894 2.642 2.642 0 00-.806-1.895 2.64 2.64 0 00-1.923-.732h-82.806a2.626 2.626 0 00-1.79 4.448c.47.49 1.112.778 1.79.805zm0 10.271h72.542a2.618 2.618 0 002.622-2.624 2.623 2.623 0 00-2.622-2.624h-72.542a2.623 2.623 0 000 5.248z" fill="#316CCC"/><path d="M455.747 301.265h-90.228c-.846 0-1.533.687-1.533 1.535v50.321c0 .847.687 1.534 1.533 1.534h90.228c.847 0 1.533-.687 1.533-1.534V302.8c0-.848-.686-1.535-1.533-1.535z" fill="#3AA1E0"/><path d="M453.805 303.617h-86.344a1.43 1.43 0 00-1.429 1.43v45.826c0 .79.64 1.43 1.429 1.43h86.344c.79 0 1.429-.64 1.429-1.43v-45.826c0-.79-.639-1.43-1.429-1.43z" fill="#fff"/><path d="M451.159 306.597h-81.052a1.61 1.61 0 00-1.609 1.611v39.496c0 .89.72 1.611 1.609 1.611h81.052a1.61 1.61 0 001.61-1.611v-39.496a1.61 1.61 0 00-1.61-1.611z" fill="#3AA1E0"/><path d="M410.633 342.781c8.18 0 14.811-6.637 14.811-14.823s-6.631-14.823-14.811-14.823-14.811 6.637-14.811 14.823 6.631 14.823 14.811 14.823z" fill="#fff"/><path d="M410.633 340.721c7.044 0 12.753-5.714 12.753-12.763 0-7.049-5.709-12.764-12.753-12.764-7.044 0-12.754 5.715-12.754 12.764 0 7.049 5.71 12.763 12.754 12.763z" fill="#3AA1E0"/><path d="M416.918 327.277l-4.66 2.692-4.663 2.692v-10.772l4.663 2.692 4.66 2.696z" fill="#fff"/><path d="M433.682 319.097h-69.696v34.052a1.53 1.53 0 001.529 1.53h69.697v-34.052a1.538 1.538 0 00-1.53-1.53z" fill="#99A8C2" opacity=".5"/><path d="M425.548 321.917h-90.227c-.847 0-1.533.687-1.533 1.534v50.322c0 .847.686 1.534 1.533 1.534h90.227c.847 0 1.533-.687 1.533-1.534v-50.322c0-.847-.686-1.534-1.533-1.534z" fill="#3AA1E0"/><path d="M423.607 324.269h-86.345a1.43 1.43 0 00-1.429 1.43v45.826c0 .79.64 1.43 1.429 1.43h86.345a1.43 1.43 0 001.429-1.43v-45.826c0-.79-.64-1.43-1.429-1.43z" fill="#fff"/><path d="M420.961 327.249h-81.053a1.61 1.61 0 00-1.609 1.611v39.496c0 .89.721 1.611 1.609 1.611h81.053a1.61 1.61 0 001.609-1.611V328.86c0-.89-.72-1.611-1.609-1.611z" fill="#3AA1E0"/><path d="M380.434 363.433c8.18 0 14.811-6.637 14.811-14.823 0-8.187-6.631-14.823-14.811-14.823s-14.811 6.636-14.811 14.823c0 8.186 6.631 14.823 14.811 14.823z" fill="#fff"/><path d="M393.184 348.61a12.767 12.767 0 01-7.874 11.792 12.741 12.741 0 01-13.899-2.768 12.77 12.77 0 011.937-19.639 12.745 12.745 0 0116.103 1.59 12.762 12.762 0 013.733 9.025z" fill="#3AA1E0"/><path d="M386.719 347.929l-4.659 2.692-4.664 2.696v-10.776l4.664 2.692 4.659 2.696z" fill="#fff"/><path d="M306.587 386.84v-18.348a4.636 4.636 0 00-4.615-4.619H164.497v27.586h137.475a4.63 4.63 0 004.615-4.619zm-4.615-63.945H164.497v27.582h137.475a4.636 4.636 0 004.615-4.619V327.51a4.633 4.633 0 00-4.615-4.615z" fill="#99A8C2" opacity=".5"/><path d="M294.282 315.194H154.73a4.618 4.618 0 00-4.616 4.619v18.345a4.618 4.618 0 004.616 4.619h139.552a4.618 4.618 0 004.616-4.619v-18.345a4.618 4.618 0 00-4.616-4.619z" fill="#1B45A1"/><path d="M288.082 319.084H160.923a3.72 3.72 0 00-3.719 3.722v12.363a3.72 3.72 0 003.719 3.722h127.159a3.72 3.72 0 003.718-3.722v-12.363a3.72 3.72 0 00-3.718-3.722z" fill="#fff"/><path d="M294.282 356.177H154.73a4.618 4.618 0 00-4.616 4.619v18.344a4.618 4.618 0 004.616 4.62h139.552a4.618 4.618 0 004.616-4.62v-18.344a4.618 4.618 0 00-4.616-4.619z" fill="#1B45A1"/><path d="M288.082 360.063H160.923a3.72 3.72 0 00-3.719 3.722v12.363a3.72 3.72 0 003.719 3.722h127.159a3.72 3.72 0 003.718-3.722v-12.363a3.72 3.72 0 00-3.718-3.722z" fill="#fff"/><path d="M173.576 328.988a3.204 3.204 0 01-5.467 2.266 3.208 3.208 0 01.485-4.931 3.204 3.204 0 014.982 2.665zm11.609-3.205a3.204 3.204 0 103.202 3.205 3.206 3.206 0 00-3.186-3.189l-.016-.016zm14.811 0a3.198 3.198 0 00-2.959 1.978 3.208 3.208 0 002.334 4.37 3.201 3.201 0 003.827-3.143 3.206 3.206 0 00-3.19-3.189l-.012-.016zm14.811 0a3.198 3.198 0 00-2.959 1.978 3.208 3.208 0 002.334 4.37 3.201 3.201 0 003.827-3.143 3.206 3.206 0 00-3.19-3.189l-.012-.016zm14.811 0a3.198 3.198 0 00-2.959 1.978 3.208 3.208 0 002.334 4.37 3.201 3.201 0 003.827-3.143 3.206 3.206 0 00-3.19-3.189l-.012-.016zm14.811 0a3.198 3.198 0 00-2.959 1.978 3.208 3.208 0 002.334 4.37 3.201 3.201 0 003.827-3.143 3.202 3.202 0 00-3.194-3.189l-.008-.016zm-70.853 43.915a3.207 3.207 0 01-1.977 2.961 3.193 3.193 0 01-1.85.182 3.198 3.198 0 01-2.516-2.518 3.204 3.204 0 013.141-3.83 3.202 3.202 0 013.202 3.205zm11.609-3.205a3.204 3.204 0 103.202 3.205 3.204 3.204 0 00-3.186-3.189l-.016-.016zm14.811 0a3.198 3.198 0 00-2.959 1.979 3.204 3.204 0 004.184 4.187 3.206 3.206 0 001.977-2.961 3.203 3.203 0 00-3.19-3.189l-.012-.016zm14.811 0a3.198 3.198 0 00-2.959 1.979 3.204 3.204 0 004.184 4.187 3.2 3.2 0 001.977-2.961 3.203 3.203 0 00-3.19-3.189l-.012-.016zm14.811 0a3.198 3.198 0 00-2.959 1.979 3.204 3.204 0 005.622 3.007 3.214 3.214 0 00.539-1.781 3.203 3.203 0 00-3.19-3.189l-.012-.016zm14.811 0a3.198 3.198 0 00-2.959 1.979 3.204 3.204 0 005.622 3.007 3.214 3.214 0 00.539-1.781 3.202 3.202 0 00-3.194-3.189l-.008-.016zm30.315-32.465c-5.893 0-10.56-4.299-10.753-4.483a1.219 1.219 0 01-.38-.878 1.21 1.21 0 01.38-.877c.193-.184 4.86-4.483 10.753-4.483 5.892 0 10.559 4.299 10.756 4.483a1.204 1.204 0 010 1.755c-.197.184-4.864 4.483-10.756 4.483zm-8.006-5.365c1.557 1.134 4.599 2.961 8.006 2.961 3.406 0 6.456-1.823 8.006-2.957-1.558-1.133-4.6-2.956-8.006-2.956-3.407 0-6.465 1.823-8.018 2.952h.012z" fill="#1B45A1"/><path d="M274.743 333.518a4.845 4.845 0 01-4.482-2.998 4.86 4.86 0 013.538-6.62 4.85 4.85 0 014.98 2.068 4.856 4.856 0 01-4.036 7.55zm0-7.303a2.453 2.453 0 00-2.263 1.514 2.452 2.452 0 003.201 3.203 2.446 2.446 0 00.794-3.997 2.454 2.454 0 00-1.732-.72zm-3.578 39.489h-6.017a3.088 3.088 0 00-3.086 3.089v2.588a3.088 3.088 0 003.086 3.089h6.017a3.088 3.088 0 003.086-3.089v-2.588a3.088 3.088 0 00-3.086-3.089z" fill="#1B45A1"/><path d="M284.455 372.779h-20.948a1.202 1.202 0 010-2.404h19.747v-3.133a1.198 1.198 0 011.201-1.201 1.198 1.198 0 011.201 1.201v4.335a1.204 1.204 0 01-1.201 1.202z" fill="#1B45A1"/><path d="M281.645 372.566a1.199 1.199 0 01-1.201-1.202v-3.565a1.2 1.2 0 112.402 0v3.565a1.203 1.203 0 01-1.201 1.202zm-4.391.001a1.204 1.204 0 01-1.201-1.202v-4.836a1.201 1.201 0 112.401 0v4.836a1.204 1.204 0 01-1.2 1.202z" fill="#1B45A1"/><path d="M264.404 371.577a.9.9 0 01-.897-.897v-1.386a.909.909 0 01.24-.673.892.892 0 01.655-.285.896.896 0 01.894.958v1.386a.894.894 0 01-.892.897z" fill="#fff"/><path d="M153.501 525.313s-78.627-54.656-111.888-23.135c-26.556 25.162 20.583 54.728 80.889 46.779 42.431-5.608 47.259 2.528 54.696 2.356 55.326-4.243 129.878-20.832 93.594-46.836-49.421-35.454-82.862 2.131-100.074 11.486l-17.217 9.35z" fill="#0E3A82"/><path d="M255.157 503.155c-20.663-4.267-99.39 24.95-99.39 24.95s-68.56-20.684-84.96-22.651c-16.4-1.967-23.946 4.267-23.946 4.267s7.738-8.73 16.729-9.519c8.99-.789 21.98-2.956 21.98-2.956s131.21-6.238 148.595-2.3c17.385 3.938 20.992 8.209 20.992 8.209z" fill="#0F2D5C"/><path d="M143.661 396.816c-3.118.493-51.586 21.633-52.183 30.515-.596 8.881 13.278 80.768 40.11 90.138 26.832 9.37 56.843 0 56.843 0s31.491-77.799 22.14-92.57c-9.351-14.771-51.638-28.067-51.638-28.067l-15.272-.016z" fill="url(#paint3_linear)"/><path d="M108.035 413.542c-46.303 24.838-57.675 69.662-45.43 79.546 8.583 6.922 40.939 22.242 68.984 21.256 28.045-.985 54.384 1.655 54.384 1.655s48.108-9.795 57.703-24.225c9.596-14.431-17.024-61.294-40.894-74.847-23.87-13.553-94.747-3.385-94.747-3.385z" fill="url(#paint4_linear)"/><path d="M152.188 424.859a11.674 11.674 0 01-8.216-3.426 11.693 11.693 0 01-3.417-8.224v-39.228a11.66 11.66 0 013.411-8.241 11.639 11.639 0 0116.468 0 11.66 11.66 0 013.411 8.241v39.228a11.698 11.698 0 01-3.426 8.233 11.677 11.677 0 01-8.231 3.417z" fill="#F09959"/><path d="M152.188 362.327a11.666 11.666 0 00-8.217 3.427 11.693 11.693 0 00-3.416 8.227v32.077c6.865 5.74 13.514 2.732 23.29-4.852v-27.242a11.694 11.694 0 00-3.43-8.225 11.673 11.673 0 00-8.227-3.412z" fill="#E38540"/><path d="M177.747 375.583c-1.913 3.91-5.024 6.077-6.941 4.843-1.918-1.234-1.926-5.408 0-9.318 1.925-3.91 5.02-6.077 6.941-4.839 1.921 1.238 1.913 5.388 0 9.314zm-45.058-4.198c2.214 3.557 2.638 7.856.949 9.615-1.689 1.758-4.851.276-7.065-3.282-2.214-3.557-2.638-7.856-.949-9.614 1.689-1.759 4.852-.277 7.065 3.281z" fill="#F09959"/><path d="M172.739 375.315c0 14.254-8.966 25.808-20.015 25.808-11.048 0-20.015-11.554-20.015-25.808s8.967-25.808 20.015-25.808c11.049 0 20.015 11.554 20.015 25.808z" fill="#F09959"/><path d="M196.381 439.193c13.118 7.003 24.554 33.539 24.554 33.539s-29.522 4.599-35.626 9.214c-6.105 4.616.876-1.75 4.375-14.446 3.499-12.695 6.697-28.307 6.697-28.307zm-91.348-1.915c3.062 14.021 17.713 53.113 17.713 53.113s-13.57-15.467-27.993-16.345c-14.423-.877-19.77-1.093-19.683 2.404.02.693 2.402-15.54 13.558-25.607 11.157-10.068 16.405-13.565 16.405-13.565z" fill="#FB8627"/><path d="M192.994 525.461h-79.239a6.53 6.53 0 01-4.222-1.548 6.542 6.542 0 01-2.223-3.912l-9.555-57.06a6.545 6.545 0 013.699-7.004 6.51 6.51 0 012.746-.607h98.338a6.546 6.546 0 016.297 4.801c.252.915.302 1.874.147 2.81l-9.555 57.06a6.533 6.533 0 01-6.433 5.46z" fill="#2A66C6"/><path d="M192.995 525.461h-79.24a6.47 6.47 0 01-6.424-5.256l-9.556-55c-.664-3.842 2.402-7.344 6.445-7.344h98.318c4.039 0 7.109 3.502 6.445 7.344l-9.556 55a6.472 6.472 0 01-6.432 5.256z" fill="url(#paint5_linear)"/><path d="M163.833 547.94c-.477-.08-51.171-12.78-62.487-3.425-11.317 9.354 37.884 9.514 46.743 7.467 8.858-2.047 15.744-4.042 15.744-4.042zm11.316 2.275s10.808-8.161 25.091-6.682c14.283 1.478 26.572 4.591 14.271 8.449-12.302 3.857-25.095 4.35-31 3.857-5.904-.492-8.362-5.624-8.362-5.624zm-28.83-211.28c-13.009 3.95-8.482 40.602 6.405 39.392 14.887-1.21 15.476-17.054 14.411-27.318-1.065-10.263-7.394-16.148-20.816-12.074z" fill="#0F2D5C"/><path d="M141.644 366.105c-3.603-3.474-8.598 7.451-6.637 12.254 1.962 4.804-.781 7.612 1.873 12.764 2.654 5.152-4.887-3.285-5.944-9.475-1.057-6.189-1.661-16.902-3.166-21.733-1.506-4.831.076-13.22 6.805-14.943 6.729-1.722 8.282-4.831 10.848-4.979 2.566-.149 14.779 1.053 20.815 4.374 6.037 3.321 9.351 8.301 8.899 15.849-.452 7.547-2.402 26.869-4.223 30.046-1.821 3.176-2.746 2.403-2.202.605.545-1.799 2.502-12.68.997-16.606-1.505-3.926-.757-13.585-4.676-14.338-3.918-.753-3.018 5.937-7.693 6.438-4.676.501-15.696-.256-15.696-.256zm585.834 162.04s-3.154 12.191-13.886 15.271c-10.732 3.081-21.196 9.054-6.117 9.239 16.541.2 26.02-.577 32.897-1.731 6.877-1.154 2.37-13.284 1.277-19.057-1.093-5.773-14.171-3.722-14.171-3.722zm87.898-7.916s2.113 22.434-3.271 24.341-11.54 6.546-3.847 6.546c7.694 0 17.213 1.819 19.703-6.546 3.038-10.199 9.903-11.922 7.458-17.114-2.446-5.192-9.852-14.823-9.852-14.823l-10.191 7.596z" fill="#0F2D5C"/><path d="M703.12 284.263l21.24 249.05s11.032 5.104 18.986 5.873c7.954.769 24.418-108.919 23.005-129.659-1.413-20.739 14.375-86.605 10.72-107.953-3.655-21.349-73.951-17.311-73.951-17.311z" fill="#0E3A82"/><path d="M745.62 285.685c-1.497-.2-3.004-.38-4.52-.54l-36.695 14.209 6.769 79.366c17.585 38.683 36.863 73.813 47.435 97.418 4.804-28.072 8.407-56.964 7.742-66.611-.668-9.987 2.638-30.446 5.84-51.35l-26.571-72.492z" fill="#0F2D5C"/><path d="M713.592 324.921c20.607 91.605 101.547 203.224 101.467 203.224-.08 0 15.136-2.632 15.904-9.559.769-6.926-8.642-75.916-29.222-95.971-20.579-20.055-22.016-115.273-22.016-115.273l-66.133 17.579z" fill="#0E3A82"/><path d="M762.144 196.861c23.161 23.312 38.028 63.401 38.22 73.312.193 9.911-26.707 27.623-26.707 27.623l-11.513-100.935z" fill="#FB8627"/><path d="M736.084 145.414l9.171 45.674-25.083 27.03-3.338-55.389 19.25-17.315z" fill="#F09959"/><path d="M745.255 176.846s11.833 4.154 25.003 37.61c13.17 33.455 22.316 115.906 22.316 115.906s-25.302 21.501-61.529 21.489c-23.086 0-34.742-5.208-34.742-5.208s-2.306-77.72 0-105.763c2.305-28.043 37.524-64.743 48.952-64.034z" fill="url(#paint6_linear)"/><path d="M726.449 183.853c7.454-8.689 10.22-21.966 11.245-30.419l-1.449-7.211-1.866.729-17.545 15.784 1.717 28.496a44.587 44.587 0 007.898-7.379z" fill="#E38540"/><path d="M730.352 155.478c-2.878 13.592-13.61 22.835-24.018 20.627-10.407-2.207-16.464-15.011-13.586-28.604 2.878-13.593 13.63-22.835 24.018-20.627 10.388 2.207 16.469 15.007 13.586 28.604z" fill="#F09959"/><path d="M741.712 166.526l7.858 13.289-41.655 31.168s3.135-14.447 3.979-19.759c.845-5.312 29.158-25.815 29.818-24.698z" fill="url(#paint7_linear)"/><path d="M692.376 117.639c-17.493 5.505-3.202 27.571 2.426 27.775 5.628.204 7.673-5.04 12.289-3.834 4.615 1.206 8.975-7.003 11.797-5.208 2.822 1.795 1.024 18.476 0 21.301-1.025 2.824 3.602 3.08 3.602 3.08s1.882-11.806 4.804-11.036c2.922.769 5.064 8.981 9.243 11.036l4.179 2.052s2.562-17.816 6.405-21.233c3.843-3.417 1.437-15.223-4.027-17.523-5.464-2.299-6.781-12.82-14.327-13.621-7.546-.801-13.702 4.363-23.702 3.081-9.999-1.282-7.793 2.592-12.689 4.13z" fill="#153F9C"/><path d="M734.767 152.609c-1.441 3.389-4.639 5.272-7.153 4.203-2.514-1.07-3.374-4.68-1.937-8.069 1.437-3.389 4.643-5.272 7.153-4.206 2.51 1.065 3.371 4.699 1.937 8.072z" fill="#F09959"/><path d="M753.769 201.692s-42.924 47.778-58.379 62.556c-.208 13.757-.1 29.79.1 44.04 8.374-4.126 31.624-16.181 44.881-28.961 16.353-15.784 23.65-51.971 13.398-77.635z" fill="#FB8627"/><path d="M644.008 260.283s-10.268-12.72-14.363-11.498c-4.095 1.222-5.64 1.422-9.231 1.226-3.591-.197-3.847 4.995 1.281 14.334 5.128 9.338 18.978 11.217 22.313 11.041 3.334-.177 0-15.103 0-15.103z" fill="#F09959"/><path d="M748.978 191.225c16.6 4.406 11.209 46.531 1.841 63.918-6.721 12.499-29.181 25.238-42.904 28.816-13.722 3.577-68.187-7.115-68.187-7.115s-2.189-19.63 1.954-19.63 48.244 2.123 61.45-9.819c13.206-11.943 25.799-61.507 45.846-56.17z" fill="url(#paint8_linear)"/><path d="M630.738 257.546a2.395 2.395 0 01-1.914-.945l-8.89-11.654a2.41 2.41 0 01.45-3.371 2.399 2.399 0 013.368.45l8.891 11.658a2.408 2.408 0 01-.64 3.499 2.4 2.4 0 01-1.265.363z" fill="#FB8627"/><defs><linearGradient id="paint0_linear" x1="380727" y1="38906.3" x2="388659" y2="121100" gradientUnits="userSpaceOnUse"><stop stop-color="#6BBEFF"/><stop offset="1" stop-color="#0C3AA1"/></linearGradient><linearGradient id="paint1_linear" x1="90346.6" y1="9444.48" x2="92262" y2="29011.5" gradientUnits="userSpaceOnUse"><stop stop-color="#6BBEFF"/><stop offset="1" stop-color="#0C3AA1"/></linearGradient><linearGradient id="paint2_linear" x1="311.395" y1="48.521" x2="496.683" y2="344.164" gradientUnits="userSpaceOnUse"><stop stop-color="#fff"/><stop offset="1"/></linearGradient><linearGradient id="paint3_linear" x1="186.682" y1="387.718" x2="111.491" y2="523.216" gradientUnits="userSpaceOnUse"><stop stop-color="#FFC34E"/><stop offset="1" stop-color="#FB8627"/></linearGradient><linearGradient id="paint4_linear" x1="155428" y1="138867" x2="140718" y2="185780" gradientUnits="userSpaceOnUse"><stop stop-color="#FFC34E"/><stop offset="1" stop-color="#FB8627"/></linearGradient><linearGradient id="paint5_linear" x1="195.516" y1="433.748" x2="119.912" y2="526.905" gradientUnits="userSpaceOnUse"><stop stop-color="#8FD4FF"/><stop offset="1" stop-color="#1355BF"/></linearGradient><linearGradient id="paint6_linear" x1="193943" y1="140957" x2="255646" y2="180914" gradientUnits="userSpaceOnUse"><stop stop-color="#FFC34E"/><stop offset="1" stop-color="#FB8627"/></linearGradient><linearGradient id="paint7_linear" x1="89057.8" y1="34462.3" x2="91050.1" y2="36634.5" gradientUnits="userSpaceOnUse"><stop stop-color="#FFC34E"/><stop offset="1" stop-color="#FB8627"/></linearGradient><linearGradient id="paint8_linear" x1="229941" y1="98617.8" x2="272691" y2="69030.7" gradientUnits="userSpaceOnUse"><stop stop-color="#FFC34E"/><stop offset="1" stop-color="#FB8627"/></linearGradient></defs></svg>